<svg width="48" height="48" viewBox="0 0 48 48" fill="none" xmlns="http://www.w3.org/2000/svg">
<path d="M5.60392 24.7868C5.70127 24.7543 5.80109 24.7255 5.90309 24.6999C5.99561 24.6599 6.08439 24.6148 6.15044 24.5682C7.1234 23.8814 7.9756 22.9005 8.84664 22.0906C10.454 20.5961 12.1341 19.3847 13.8535 18.1257C13.9172 18.0791 13.9809 18.0324 14.0447 17.9856C14.52 17.6371 15.0186 17.337 15.5264 17.0383C15.9524 16.7877 14.4372 17.845 14.1904 17.9613C14.0774 18.0145 13.9651 18.0694 13.8535 18.1257C12.1341 19.3847 10.454 20.5961 8.84664 22.0906C7.9756 22.9005 7.1234 23.8814 6.15044 24.5682C6.08439 24.6148 5.99561 24.6599 5.90309 24.6999C5.58027 24.8394 5.21185 24.9175 5.60392 24.7868Z" fill="#2B2C33"/>
<path d="M42.3426 25.1026C35.0702 24.9294 27.8453 24.4467 20.5666 24.4467C17.4069 24.4467 14.2626 24.4917 11.1056 24.6168C9.44793 24.6824 7.19547 24.2563 5.60392 24.7868C5.09949 24.9549 5.85391 24.7775 6.15044 24.5682C7.1234 23.8814 7.9756 22.9005 8.84664 22.0906C10.5135 20.5407 12.2587 19.2954 14.0447 17.9856C14.52 17.6371 15.0186 17.337 15.5264 17.0383C15.9524 16.7877 14.4372 17.845 14.1904 17.9613C12.4081 18.8009 10.8108 20.0385 9.12597 21.0583C8.38222 21.5084 7.50217 21.8576 6.92772 22.5278C6.54655 22.9725 4.21061 25.1649 5.276 25.3698C9.04475 26.0945 12.1578 29.3119 15.2349 31.4423" stroke="#2B2C33" stroke-width="3.31638" stroke-linecap="round"/>
</svg>
