<svg width="24" height="24" viewBox="0 0 24 24" fill="none" xmlns="http://www.w3.org/2000/svg">
<g opacity="0.6">
<path d="M12.7775 6.46228C10.3385 5.68182 8.39491 6.13134 6.47278 7.75776C4.84092 9.13857 5.00457 10.87 5.00457 12.8317C5.00457 17.9647 12.5036 18.3831 15.8542 16.3727C17.1079 15.6205 18.2995 13.8648 18.402 12.3783C18.5361 10.4337 17.4927 8.83604 16.2753 7.44469C15.888 7.00214 14.3099 6.07364 13.7491 6.07364C13.0713 6.07364 10.9964 5.74921 10.6399 6.46228" stroke="#2B2C33" stroke-width="1.20182" stroke-linecap="round"/>
<path d="M11.7196 8.94336C11.7196 9.81553 11.6348 10.6779 11.6031 11.5326C11.5971 11.6949 11.3042 12.6283 11.6614 12.5489C11.8594 12.5049 12.0655 12.3784 12.2634 12.3159C12.7635 12.158 13.2715 12.1628 13.7651 12.0246C14.224 11.8961 14.7114 11.8697 15.1504 11.6815C15.4693 11.5449 15.6701 11.3902 16.0308 11.3902" stroke="#2B2C33" stroke-width="1.20182" stroke-linecap="round"/>
</g>
</svg>
