<svg width="201" height="96" viewBox="0 0 201 96" fill="none" xmlns="http://www.w3.org/2000/svg">
<path d="M28.7409 52.7193C30.0608 52.5828 31.0393 53.1517 31.6765 54.426C32.3136 55.6549 32.3364 56.8154 31.7447 57.9077C30.3339 60.4109 29.0368 62.914 27.8535 65.4172C27.4894 66.2364 26.7839 66.7598 25.7371 66.9874C24.7359 67.2149 23.8711 67.1012 23.1429 66.646C22.2782 66.2364 21.7321 65.531 21.5045 64.5297C21.3225 63.574 21.459 62.7092 21.9141 61.9355C22.1417 61.3894 22.4147 60.7977 22.7333 60.1606C18.9558 60.4791 15.1556 60.7067 11.3325 60.8432H11.4008V60.9798C12.9027 63.2099 13.6992 65.2807 13.7902 67.1922C13.8357 68.1479 13.4944 68.9444 12.7662 69.5816C12.0835 70.2643 11.287 70.6284 10.3768 70.6739C9.73961 70.7194 9.14795 70.5601 8.6018 70.196C8.10117 69.8774 7.69156 69.445 7.37297 68.8989C7.05439 68.3983 6.89509 67.8294 6.89509 67.1922C6.89509 67.1922 6.89509 67.1694 6.89509 67.1239C6.84958 67.0784 6.82683 67.0101 6.82683 66.9191C6.82683 66.8736 6.80407 66.8053 6.75856 66.7143C6.71305 66.6688 6.69029 66.6233 6.69029 66.5778C6.69029 66.5323 6.66753 66.464 6.62202 66.373C6.57651 66.3275 6.531 66.2592 6.48549 66.1682C6.48549 66.1227 6.46273 66.0771 6.41722 66.0316C6.23517 65.713 5.75729 64.9393 4.98358 63.7105C3.43617 61.4349 2.68522 59.3641 2.73073 57.4981C2.73073 56.5423 3.07207 55.7231 3.75475 55.0404C4.43744 54.3578 5.25666 54.0164 6.21241 54.0164C6.12139 49.3742 5.9621 42.2288 5.73453 32.5802C5.598 27.2097 5.55249 23.7281 5.598 22.1351C5.64351 20.1781 5.75729 18.4031 5.93934 16.8102C6.1669 15.0352 6.531 13.8292 7.03163 13.192C7.80534 12.1907 8.82936 11.5763 10.1037 11.3488C13.7902 10.7116 17.4539 10.3475 21.0949 10.2565C23.0974 10.2109 24.8269 10.2109 26.2833 10.2565C27.9217 10.3475 29.1961 10.8254 30.1063 11.6901C30.9255 12.4638 31.4034 13.5788 31.5399 15.0352C31.5399 15.4904 31.5172 15.9682 31.4717 16.4689C31.4717 16.9695 31.4034 17.6067 31.2669 18.3804C31.1758 19.1086 31.1303 19.5637 31.1303 19.7457C30.9483 21.2021 30.7207 22.9544 30.4476 25.0024C29.6739 31.1921 29.2416 34.7193 29.1506 35.584C28.3313 42.2743 27.9217 48.0088 27.9217 52.7876C28.0127 52.7876 28.1493 52.7876 28.3313 52.7876C28.5134 52.7421 28.6499 52.7193 28.7409 52.7193ZM12.6979 36.7445C12.9255 45.6194 13.062 51.3084 13.1075 53.8116C15.7472 53.7206 18.3869 53.5841 21.0266 53.402C20.9811 48.2591 21.4135 41.9557 22.3237 34.4917C22.3692 34.3096 22.7788 31.0783 23.5526 24.7976C23.7801 22.9316 23.9849 21.2932 24.167 19.8823C24.2125 19.6092 24.3035 18.699 24.44 17.1516C24.0304 17.1516 23.7118 17.1516 23.4843 17.1516C21.8458 17.1516 20.2074 17.1971 18.569 17.2881C17.0216 17.3791 15.4514 17.5384 13.8585 17.766C13.7219 17.766 13.6081 17.7887 13.5171 17.8342C13.3351 17.8342 13.1758 17.857 13.0392 17.9025C12.9027 17.9025 12.8117 17.9025 12.7662 17.9025C12.6296 19.3589 12.5386 20.9973 12.4931 22.8178C12.4476 24.5928 12.4248 26.0492 12.4248 27.187C12.4703 28.3248 12.5158 30.0087 12.5614 32.2388C12.6524 34.4689 12.6979 35.9708 12.6979 36.7445ZM79.6781 17.4246H79.7464V17.4929L79.5416 17.015V17.0833C79.5871 17.1743 79.6099 17.2426 79.6099 17.2881C79.6554 17.2881 79.6781 17.3336 79.6781 17.4246ZM86.9146 17.2881C87.6883 20.2464 88.0979 24.1604 88.1434 29.0302C88.1434 34.1276 87.5973 38.5878 86.505 42.4108C86.0954 43.7762 85.6175 45.1188 85.0713 46.4386C84.5252 47.713 83.8425 49.0328 83.0233 50.3982C82.2496 51.7181 81.3848 52.9014 80.4291 53.9481C79.5188 54.9949 78.4493 55.9507 77.2205 56.8154C75.9916 57.6346 74.6945 58.2263 73.3292 58.5904C71.7363 59.0455 70.0978 59.1365 68.4139 58.8635C66.7754 58.5449 65.2735 57.9077 63.9082 56.952C60.8588 54.7674 58.3102 51.3767 56.2621 46.78C55.8525 45.9152 55.7387 45.0505 55.9208 44.1858C56.1483 43.3211 56.6717 42.6156 57.4909 42.0695C58.2191 41.5688 59.1066 41.4551 60.1534 41.7281C61.2002 41.9557 61.9056 42.4791 62.2697 43.2983C62.8159 44.5271 63.362 45.6422 63.9082 46.6434C64.1812 47.0986 64.4771 47.5537 64.7957 48.0088C64.9322 48.2819 65.0915 48.5322 65.2735 48.7598C65.4101 48.8508 65.5694 49.0328 65.7514 49.3059C65.979 49.579 66.1155 49.7383 66.161 49.7838C66.4796 50.1024 66.7982 50.3982 67.1168 50.6713C67.1168 50.7168 67.1623 50.7623 67.2533 50.8078C67.2988 50.8533 67.3443 50.8988 67.3898 50.9443C67.5264 51.0354 67.6174 51.1036 67.6629 51.1491C67.6174 51.1036 67.5491 51.0581 67.4581 51.0126C67.7312 51.1947 68.0043 51.354 68.2773 51.4905C68.3684 51.536 68.4821 51.6043 68.6187 51.6953C68.6187 51.6953 68.5959 51.6953 68.5504 51.6953C68.5959 51.6953 68.6414 51.6953 68.6869 51.6953C68.7325 51.7408 68.778 51.7636 68.8235 51.7636L69.1648 51.8318C69.3014 51.9229 69.4151 51.9684 69.5062 51.9684C69.5972 52.0139 69.711 52.0366 69.8475 52.0366C70.1661 52.0821 70.3936 52.1049 70.5302 52.1049C70.5302 52.1504 70.6212 52.1504 70.8033 52.1049C70.8488 52.1049 70.8715 52.1049 70.8715 52.1049C70.917 52.0594 70.9398 52.0366 70.9398 52.0366C71.0763 52.0366 71.1674 52.0366 71.2129 52.0366C71.1674 52.0366 71.0991 52.0366 71.0081 52.0366C71.3266 51.9911 71.577 51.9229 71.759 51.8318C71.8045 51.8318 71.8728 51.8091 71.9638 51.7636C71.9183 51.8091 71.8728 51.8318 71.8273 51.8318C71.8728 51.8318 71.9411 51.8091 72.0321 51.7636C72.1231 51.7181 72.2141 51.6953 72.3052 51.6953L72.4417 51.5588C72.5782 51.5132 72.692 51.4677 72.783 51.4222C73.0561 51.2402 73.3519 51.0354 73.6705 50.8078C73.716 50.7623 73.7615 50.7168 73.8071 50.6713H73.8753C73.9208 50.6258 73.9664 50.5802 74.0119 50.5347C74.0119 50.5802 73.9891 50.603 73.9436 50.603C74.4897 50.1024 74.9221 49.67 75.2407 49.3059C75.4227 49.1239 75.6731 48.8508 75.9916 48.4867C76.1282 48.2591 76.2192 48.1226 76.2647 48.0771C76.6288 47.5309 76.9929 46.962 77.357 46.3704C77.7666 45.6422 78.1762 44.8685 78.5858 44.0492C78.5858 44.0037 78.6086 43.9355 78.6541 43.8444L78.7224 43.6396L78.5858 43.9127L78.7906 43.5031V43.5714C78.7906 43.5259 78.7906 43.5031 78.7906 43.5031C78.9272 43.139 79.0637 42.7522 79.2003 42.3425C79.7919 40.7041 80.247 39.0202 80.5656 37.2907C77.8804 37.1086 75.1952 37.1086 72.51 37.2907C71.5997 37.3362 70.8033 36.9949 70.1206 36.2667C69.4379 35.5385 69.0966 34.7193 69.0966 33.809C69.051 33.5359 69.051 33.2629 69.0966 32.9898C69.1876 32.7167 69.2786 32.4892 69.3696 32.3071C69.5062 32.0795 69.6427 31.8747 69.7792 31.6927C69.9613 31.4651 70.1433 31.2831 70.3254 31.1465C70.5529 30.9645 70.7805 30.828 71.0081 30.7369C71.2811 30.6004 71.5315 30.5094 71.759 30.4639C72.0321 30.3728 72.2824 30.3273 72.51 30.3273C75.3772 30.1453 78.2673 30.168 81.18 30.3956C81.2255 28.6661 81.2028 27.0277 81.1118 25.4803C81.0663 24.4335 80.998 23.455 80.907 22.5447C80.8159 21.9531 80.7477 21.6345 80.7022 21.589C80.7477 21.589 80.7932 21.771 80.8387 22.1351C80.7932 21.9986 80.7477 21.8165 80.7022 21.589C80.7022 21.3159 80.6794 21.1339 80.6339 21.0428C80.4063 19.6775 80.1105 18.4942 79.7464 17.4929C79.7919 17.5839 79.8147 17.6294 79.8147 17.6294C79.7692 17.5839 79.7236 17.5156 79.6781 17.4246C79.6781 17.3336 79.6326 17.2198 79.5416 17.0833C79.4506 16.9012 79.3823 16.7647 79.3368 16.6737C79.2913 16.5826 79.1775 16.4006 78.9955 16.1275C78.8589 15.9455 78.7451 15.8317 78.6541 15.7862C78.5176 15.6952 78.4493 15.6496 78.4493 15.6496C78.5403 15.6952 78.5858 15.7179 78.5858 15.7179C78.5858 15.7179 78.5631 15.6952 78.5176 15.6496C78.4265 15.6041 78.3355 15.5586 78.2445 15.5131C78.1535 15.4676 78.108 15.4448 78.108 15.4448C78.1535 15.4904 78.1762 15.5131 78.1762 15.5131C78.0852 15.4676 77.9942 15.4448 77.9032 15.4448C77.7211 15.4448 77.5618 15.4448 77.4253 15.4448C77.3343 15.4448 77.175 15.4448 76.9474 15.4448C76.6288 15.5359 76.2647 15.6269 75.8551 15.7179C75.4455 15.8545 74.9904 16.0137 74.4897 16.1958C74.4442 16.1958 74.4215 16.1958 74.4215 16.1958C74.1484 16.3323 73.9664 16.4234 73.8753 16.4689C72.9651 16.8785 71.9866 17.4019 70.9398 18.039C69.6655 18.7672 67.5036 20.1098 64.4543 22.0669C63.5896 22.5675 62.7021 22.6813 61.7918 22.4082C60.9271 22.1351 60.2217 21.6117 59.6755 20.838C59.2204 20.0188 59.1066 19.1541 59.3342 18.2438C59.6073 17.3336 60.1534 16.6054 60.9726 16.0593C61.9284 15.4676 62.4973 15.1035 62.6793 14.967C62.8614 14.8304 63.1572 14.6484 63.5668 14.4208C65.3418 13.283 66.7299 12.4183 67.7312 11.8266C68.778 11.1895 70.1433 10.5295 71.8273 9.84685C73.5112 9.16417 75.1042 8.7318 76.6061 8.54975C79.0637 8.27668 81.2711 8.95936 83.2281 10.5978C84.912 11.9632 86.1409 14.1933 86.9146 17.2881ZM78.0397 15.3766H77.9714H78.0397ZM78.1762 15.5131H78.2445C78.2445 15.5131 78.2673 15.5359 78.3128 15.5814C78.3583 15.6269 78.4038 15.6496 78.4493 15.6496C78.4038 15.6041 78.3128 15.5586 78.1762 15.5131ZM67.4581 51.0126C67.4581 51.0126 67.4354 51.0126 67.3898 51.0126C67.3898 50.9671 67.3671 50.9216 67.3216 50.8761C67.2761 50.8306 67.2533 50.8078 67.2533 50.8078L67.4581 51.0126ZM72.4417 51.5588C72.2596 51.6498 72.1231 51.7181 72.0321 51.7636H71.9638C72.2369 51.627 72.3962 51.5588 72.4417 51.5588ZM70.9398 52.0366C70.8033 52.0821 70.7122 52.1049 70.6667 52.1049C70.6212 52.1049 70.5757 52.1049 70.5302 52.1049C70.5302 52.0594 70.6895 52.0366 71.0081 52.0366C71.0081 52.0366 70.9853 52.0366 70.9398 52.0366ZM69.1648 51.8318C68.9373 51.7863 68.778 51.7408 68.6869 51.6953H68.6187C68.9373 51.7408 69.1193 51.7863 69.1648 51.8318ZM73.9436 50.603C73.8981 50.603 73.8753 50.6258 73.8753 50.6713C73.7843 50.7168 73.716 50.7623 73.6705 50.8078C73.625 50.8533 73.5795 50.8761 73.534 50.8761L73.9436 50.603ZM142.981 54.2212C143.072 55.1315 142.731 55.9279 141.957 56.6106C141.229 57.2478 140.41 57.5891 139.499 57.6346C138.544 57.6801 137.747 57.3616 137.11 56.6789C136.518 55.9962 136.177 55.177 136.086 54.2212C135.358 47.3034 134.925 40.34 134.789 33.3311C133.97 33.4222 133.423 33.4904 133.15 33.5359C132.559 33.5814 131.717 33.6725 130.624 33.809C130.624 33.809 130.602 33.8318 130.556 33.8773C130.511 33.8773 130.465 33.8773 130.42 33.8773C130.283 33.8773 130.124 33.9 129.942 33.9455C129.623 33.9911 129.259 34.0366 128.849 34.0821C126.483 34.4007 124.071 34.7875 121.613 35.2426C121.932 42.024 122 48.7825 121.818 55.5183C121.818 56.4741 121.476 57.2933 120.794 57.976C120.157 58.6131 119.36 58.9545 118.404 59C117.494 59.0455 116.675 58.7042 115.947 57.976C115.264 57.2478 114.923 56.4286 114.923 55.5183C115.105 47.9633 114.991 40.4083 114.581 32.8533C114.536 32.6712 114.513 32.4892 114.513 32.3071C114.286 27.8014 113.944 23.2957 113.489 18.79C113.398 17.8797 113.717 17.0833 114.445 16.4006C115.219 15.7179 116.06 15.3538 116.971 15.3083C117.926 15.2628 118.723 15.6041 119.36 16.3323C119.997 17.015 120.361 17.8342 120.452 18.79C120.771 21.9303 121.021 25.0934 121.203 28.2793C125.709 27.5511 130.238 26.9139 134.789 26.3678C134.834 22.3627 134.994 18.3804 135.267 14.4208C135.312 13.7836 135.471 13.2147 135.745 12.7141C136.063 12.168 136.473 11.7584 136.973 11.4853C137.474 11.1667 138.043 10.9847 138.68 10.9391C139.59 10.9391 140.41 11.3032 141.138 12.0314C141.866 12.7141 142.207 13.5106 142.162 14.4208C141.843 19.3816 141.684 24.3425 141.684 29.3033C141.684 29.3488 141.684 29.4171 141.684 29.5081C141.729 29.6446 141.729 29.7812 141.684 29.9177C141.729 38.0644 142.162 46.1656 142.981 54.2212ZM196.401 43.9127C196.537 48.9646 196.424 53.0607 196.06 56.201C196.014 56.7927 195.786 57.316 195.377 57.7712C194.967 58.2263 194.467 58.5676 193.875 58.7952C193.329 59.0228 192.783 59.0683 192.237 58.9317C191.326 58.7497 190.621 58.2946 190.12 57.5664C189.62 56.8382 189.415 56.019 189.506 55.1087C189.597 54.244 189.665 53.4248 189.711 52.6511C189.756 52.4235 189.779 52.0139 189.779 51.4222C189.824 51.4222 189.847 51.3995 189.847 51.354C189.847 51.354 189.847 51.3767 189.847 51.4222C189.847 51.3767 189.847 51.3312 189.847 51.2857C189.847 51.2402 189.847 51.1719 189.847 51.0809C189.847 50.8533 189.847 50.7168 189.847 50.6713C189.847 49.2604 189.824 47.5764 189.779 45.6194C189.779 44.9822 189.688 41.5916 189.506 35.4474C189.46 34.8103 189.369 32.1478 189.233 27.4601C186.547 34.7875 184.204 40.7269 182.201 45.2781C180.836 48.3729 179.561 51.0126 178.378 53.1972C178.014 53.8799 177.491 54.4033 176.808 54.7674C176.171 55.1315 175.488 55.2225 174.76 55.0404C173.258 54.7219 172.348 53.7433 172.029 52.1049C171.21 47.8268 170.641 41.6826 170.322 33.6725C170.049 25.6168 169.776 20.3829 169.503 17.9708C169.367 16.3323 169.185 14.8759 168.957 13.6016C168.957 13.5561 168.934 13.4423 168.889 13.2603C168.889 13.0782 168.889 12.9417 168.889 12.8506C168.843 12.8051 168.82 12.7369 168.82 12.6458C168.729 12.3273 168.661 12.0997 168.616 11.9632C168.57 11.8266 168.502 11.6901 168.411 11.5536C168.365 11.4625 168.32 11.3487 168.274 11.2122C168.274 11.2122 168.274 11.1895 168.274 11.1439C168.183 11.0529 168.07 10.9391 167.933 10.8026C167.979 10.8481 168.07 10.9391 168.206 11.0757C167.569 10.393 167.182 9.61929 167.046 8.75455C166.954 7.88982 167.205 7.09336 167.796 6.36517C168.388 5.728 169.139 5.3639 170.049 5.27287C171.005 5.13634 171.824 5.3639 172.507 5.95556C173.281 6.77477 173.895 7.75329 174.35 8.89109C174.851 9.98338 175.192 10.9619 175.374 11.8266C175.556 12.6914 175.738 13.8292 175.92 15.24C176.193 17.5612 176.421 20.4057 176.603 23.7736C176.694 25.321 176.808 27.9152 176.944 31.5562C177.081 35.1516 177.217 37.9051 177.354 39.8166C177.855 38.5423 178.446 37.0859 179.129 35.4474C180.585 31.7154 182.679 26.0947 185.41 18.5852C186.821 14.7166 187.845 11.9177 188.482 10.1882C188.937 9.05039 189.847 8.43597 191.212 8.34494C192.623 8.20841 193.625 8.66353 194.216 9.71031C194.398 9.93787 194.535 10.1882 194.626 10.4613C194.762 10.7343 194.853 11.0302 194.899 11.3488C194.99 11.6673 195.058 11.9404 195.104 12.168C195.149 12.3955 195.195 12.7141 195.24 13.1237C195.286 13.4878 195.309 13.7837 195.309 14.0112C195.309 14.1933 195.309 14.4891 195.309 14.8987C195.354 15.3083 195.4 15.5814 195.445 15.7179C195.491 16.6737 195.582 18.9948 195.718 22.6813C196.173 36.3804 196.401 43.4576 196.401 43.9127ZM168.274 11.2122C168.32 11.2577 168.365 11.3487 168.411 11.4853C168.456 11.4398 168.411 11.3487 168.274 11.2122ZM188.482 12.9872C188.482 12.9872 188.482 12.9644 188.482 12.9189C188.482 12.8734 188.459 12.8279 188.413 12.7824C188.413 12.6914 188.413 12.6231 188.413 12.5776L188.482 12.9872ZM189.847 51.0809C189.847 51.1264 189.847 51.1719 189.847 51.2174C189.847 51.2629 189.847 51.2857 189.847 51.2857V51.354V51.0809Z" fill="#2B2C33"/>
<path d="M47.904 81.024C48.1173 81.0133 48.304 81.0987 48.464 81.28C48.6347 81.4613 48.7093 81.648 48.688 81.84C48.6773 81.9893 48.6347 82.1227 48.56 82.24C48.4853 82.3467 48.384 82.432 48.256 82.496C48.1387 82.5493 48.0053 82.5813 47.856 82.592C46.6293 82.6773 45.408 82.656 44.192 82.528C44.512 84.6613 44.8 86.784 45.056 88.896C45.1413 89.6 45.2267 90.3147 45.312 91.04C45.344 91.296 45.312 91.4987 45.216 91.648C45.088 91.84 44.9173 91.952 44.704 91.984C44.5013 92.0267 44.2933 91.9947 44.08 91.888C43.8773 91.7707 43.76 91.6107 43.728 91.408C43.4507 88.9013 43.1307 86.416 42.768 83.952C42.6613 83.248 42.5547 82.5333 42.448 81.808C42.4053 81.5413 42.464 81.3173 42.624 81.136C42.816 80.912 43.0293 80.816 43.264 80.848C44.8107 81.072 46.3573 81.1307 47.904 81.024ZM55.969 83.744C56.2357 84.7147 56.3317 85.7013 56.257 86.704C56.1823 87.5253 55.9477 88.4427 55.553 89.456C55.425 89.7867 55.2863 90.064 55.137 90.288C55.169 90.32 55.201 90.352 55.233 90.384C55.361 90.5547 55.3983 90.7573 55.345 90.992C55.3023 91.2267 55.1903 91.4027 55.009 91.52C54.5397 91.8187 54.0117 91.9787 53.425 92C52.849 92.0213 52.3157 91.9093 51.825 91.664C51.3237 91.4293 50.8863 91.088 50.513 90.64C50.1503 90.1813 49.8783 89.6747 49.697 89.12C49.601 88.8427 49.5263 88.5653 49.473 88.288C49.4197 88 49.393 87.6853 49.393 87.344C49.4037 86.992 49.409 86.7147 49.409 86.512C49.409 86.3093 49.441 85.9893 49.505 85.552C49.5797 85.1147 49.6223 84.8373 49.633 84.72C49.6543 84.6027 49.7183 84.288 49.825 83.776C49.9317 83.264 49.9903 82.9867 50.001 82.944C50.129 82.3147 50.321 81.8187 50.577 81.456C50.8543 81.0827 51.233 80.816 51.713 80.656C52.2037 80.5067 52.6943 80.4853 53.185 80.592C53.6757 80.6987 54.113 80.912 54.497 81.232C55.1797 81.7973 55.6703 82.6347 55.969 83.744ZM51.713 82.736C51.713 82.7467 51.7077 82.768 51.697 82.8L51.713 82.768V82.736ZM51.393 89.008C51.393 89.0187 51.4037 89.0453 51.425 89.088C51.425 89.0773 51.4143 89.0507 51.393 89.008ZM52.785 90.304C52.7743 90.304 52.7637 90.2987 52.753 90.288H52.737L52.785 90.304ZM53.249 90.384H53.169H53.185C53.2063 90.384 53.2277 90.384 53.249 90.384ZM53.649 90.352C53.649 90.352 53.6597 90.352 53.681 90.352C53.6703 90.352 53.649 90.3573 53.617 90.368C53.617 90.368 53.6223 90.368 53.633 90.368C53.6437 90.368 53.649 90.3627 53.649 90.352ZM54.657 86.4C54.657 86.24 54.657 86.128 54.657 86.064C54.6677 85.6587 54.641 85.2587 54.577 84.864C54.5663 84.8533 54.5557 84.7893 54.545 84.672C54.5343 84.6613 54.529 84.6453 54.529 84.624C54.529 84.592 54.5183 84.5493 54.497 84.496C54.4863 84.432 54.4757 84.3947 54.465 84.384C54.4223 84.192 54.3743 84.016 54.321 83.856C54.2143 83.568 54.1503 83.4027 54.129 83.36C54.1183 83.3493 54.1077 83.3333 54.097 83.312C54.097 83.3013 54.0863 83.2853 54.065 83.264C54.0437 83.232 54.0277 83.2053 54.017 83.184C53.9743 83.0987 53.9263 83.024 53.873 82.96C53.8517 82.9173 53.8143 82.864 53.761 82.8C53.7183 82.736 53.6917 82.6987 53.681 82.688C53.6703 82.6773 53.6543 82.6667 53.633 82.656C53.6223 82.6347 53.6117 82.6187 53.601 82.608C53.5263 82.5333 53.4517 82.4693 53.377 82.416C53.3663 82.4053 53.361 82.4 53.361 82.4C53.3397 82.3893 53.3237 82.3787 53.313 82.368C53.313 82.368 53.3077 82.3627 53.297 82.352C53.2117 82.3093 53.1263 82.272 53.041 82.24C53.0517 82.24 53.057 82.24 53.057 82.24C53.057 82.24 53.0517 82.2347 53.041 82.224C53.0303 82.224 53.025 82.224 53.025 82.224C53.025 82.224 53.0197 82.224 53.009 82.224C52.9983 82.2133 52.9877 82.208 52.977 82.208C52.9663 82.208 52.961 82.208 52.961 82.208C52.8757 82.1867 52.7903 82.1707 52.705 82.16L52.657 82.144C52.6463 82.144 52.6357 82.144 52.625 82.144C52.5717 82.144 52.4863 82.1493 52.369 82.16C52.3583 82.1707 52.337 82.176 52.305 82.176C52.2837 82.1867 52.273 82.192 52.273 82.192C52.2517 82.2027 52.2143 82.2133 52.161 82.224L52.097 82.256H52.081C52.0703 82.2667 52.0597 82.272 52.049 82.272C52.0597 82.272 52.0703 82.2667 52.081 82.256C52.0703 82.2667 52.0543 82.2827 52.033 82.304C52.0117 82.3147 51.9957 82.32 51.985 82.32C51.985 82.3307 51.9743 82.3413 51.953 82.352L51.921 82.384C51.9103 82.4053 51.8943 82.4267 51.873 82.448C51.8517 82.4693 51.841 82.4853 51.841 82.496C51.841 82.496 51.8357 82.496 51.825 82.496C51.825 82.5067 51.809 82.5387 51.777 82.592C51.7557 82.6453 51.7397 82.6827 51.729 82.704C51.7183 82.7253 51.7077 82.7573 51.697 82.8C51.697 82.8107 51.6917 82.8213 51.681 82.832C51.681 82.8427 51.681 82.848 51.681 82.848C51.649 82.976 51.5637 83.3973 51.425 84.112C51.297 84.784 51.217 85.2267 51.185 85.44C51.1423 85.696 51.105 85.9253 51.073 86.128C51.0623 86.256 51.0517 86.3733 51.041 86.48C51.041 86.4907 51.0357 86.5173 51.025 86.56C51.025 86.56 51.025 86.5653 51.025 86.576C51.025 86.6187 51.025 86.6453 51.025 86.656C51.0037 87.136 51.0197 87.5733 51.073 87.968C51.0837 87.9787 51.089 88 51.089 88.032C51.089 88.0533 51.089 88.0693 51.089 88.08C51.0997 88.0907 51.105 88.1067 51.105 88.128C51.1477 88.2773 51.1743 88.3787 51.185 88.432C51.2383 88.624 51.3023 88.8053 51.377 88.976C51.3877 89.008 51.4037 89.0347 51.425 89.056C51.4357 89.0773 51.441 89.088 51.441 89.088C51.441 89.1093 51.4463 89.12 51.457 89.12C51.4997 89.216 51.553 89.3067 51.617 89.392C51.6703 89.4667 51.7237 89.5413 51.777 89.616C51.7877 89.6267 51.7983 89.6373 51.809 89.648C51.8197 89.6693 51.8303 89.6853 51.841 89.696C51.841 89.696 51.8517 89.7013 51.873 89.712C51.9157 89.7547 51.9797 89.8133 52.065 89.888C52.161 89.9627 52.2197 90.0107 52.241 90.032L52.289 90.08C52.289 90.08 52.289 90.0853 52.289 90.096C52.2997 90.096 52.3103 90.096 52.321 90.096C52.3103 90.096 52.2997 90.0907 52.289 90.08C52.2997 90.08 52.305 90.08 52.305 90.08C52.3477 90.112 52.3903 90.1333 52.433 90.144C52.497 90.1867 52.5663 90.2187 52.641 90.24C52.641 90.2507 52.6623 90.2613 52.705 90.272C52.7477 90.2827 52.7743 90.288 52.785 90.288C52.8703 90.0213 53.041 89.84 53.297 89.744C53.3183 89.744 53.361 89.728 53.425 89.696C53.425 89.7067 53.4197 89.712 53.409 89.712C53.4197 89.712 53.425 89.7067 53.425 89.696C53.4463 89.696 53.457 89.6907 53.457 89.68L53.521 89.648C53.5637 89.6267 53.5903 89.6053 53.601 89.584V89.6C53.601 89.6 53.6063 89.5947 53.617 89.584C53.6277 89.5733 53.6383 89.5627 53.649 89.552C53.6597 89.5413 53.6703 89.5307 53.681 89.52C53.7023 89.488 53.745 89.4347 53.809 89.36C53.809 89.3493 53.8143 89.3387 53.825 89.328C53.8357 89.3067 53.8463 89.2907 53.857 89.28C53.8997 89.2053 53.9423 89.1147 53.985 89.008C54.049 88.8587 54.1237 88.6667 54.209 88.432C54.2197 88.4107 54.2303 88.3787 54.241 88.336C54.2623 88.2933 54.2783 88.2613 54.289 88.24C54.289 88.2293 54.289 88.224 54.289 88.224C54.289 88.224 54.289 88.2187 54.289 88.208C54.3317 88.0907 54.3637 87.9893 54.385 87.904C54.449 87.68 54.5023 87.456 54.545 87.232C54.5877 87.008 54.6197 86.784 54.641 86.56C54.641 86.56 54.641 86.544 54.641 86.512C54.6517 86.48 54.657 86.4587 54.657 86.448C54.657 86.4373 54.657 86.4213 54.657 86.4ZM53.041 82.24L52.977 82.208C52.977 82.208 52.9823 82.2133 52.993 82.224C53.0143 82.224 53.0303 82.224 53.041 82.224V82.24ZM53.617 89.584H53.601C53.6117 89.5733 53.6277 89.5627 53.649 89.552C53.6277 89.5627 53.617 89.5733 53.617 89.584ZM52.289 90.08C52.2783 90.0587 52.2623 90.0427 52.241 90.032C52.2517 90.032 52.2677 90.048 52.289 90.08ZM52.161 82.224C52.161 82.2347 52.1343 82.2453 52.081 82.256C52.113 82.256 52.1397 82.2453 52.161 82.224ZM53.425 89.696C53.4677 89.664 53.4997 89.648 53.521 89.648C53.4783 89.6693 53.4463 89.6853 53.425 89.696ZM58.7768 91.888C58.5634 91.9947 58.3501 92.0267 58.1368 91.984C57.9341 91.9307 57.7741 91.8027 57.6568 91.6C57.5714 91.4507 57.5448 91.2427 57.5768 90.976C57.6834 90.24 57.7954 89.5147 57.9128 88.8C58.3501 86.272 58.9474 83.7867 59.7048 81.344C59.8114 81.0027 60.0354 80.8053 60.3768 80.752C60.5368 80.7307 60.6914 80.7573 60.8408 80.832C61.0008 80.9067 61.1181 81.0133 61.1927 81.152C61.5234 81.824 61.8274 82.4533 62.1048 83.04C63.3101 85.6427 64.1421 88.0427 64.6008 90.24C64.6434 90.464 64.6114 90.672 64.5048 90.864C64.4088 91.0453 64.2488 91.1733 64.0248 91.248C63.8221 91.312 63.6141 91.2853 63.4008 91.168C63.1981 91.0507 63.0754 90.8853 63.0328 90.672C62.8834 89.9893 62.7128 89.3067 62.5208 88.624C62.2008 87.5253 61.7848 86.368 61.2728 85.152V85.136V85.152C61.2728 85.1413 61.2728 85.136 61.2728 85.136L61.2568 85.12C61.2568 85.1093 61.2514 85.0933 61.2408 85.072C61.2301 85.0507 61.2248 85.0347 61.2248 85.024C61.1928 84.96 61.1661 84.896 61.1448 84.832C61.0808 84.6933 61.0168 84.5547 60.9528 84.416C60.8781 84.2347 60.7874 84.032 60.6808 83.808L60.6648 83.84V83.872C60.0034 86.3253 59.4968 88.8373 59.1448 91.408C59.1128 91.6213 58.9901 91.7813 58.7768 91.888ZM72.4534 83.744C72.72 84.7147 72.816 85.7013 72.7414 86.704C72.6667 87.5253 72.432 88.4427 72.0374 89.456C71.9094 89.7867 71.7707 90.064 71.6214 90.288C71.6534 90.32 71.6854 90.352 71.7174 90.384C71.8454 90.5547 71.8827 90.7573 71.8294 90.992C71.7867 91.2267 71.6747 91.4027 71.4934 91.52C71.024 91.8187 70.496 91.9787 69.9094 92C69.3334 92.0213 68.8 91.9093 68.3094 91.664C67.808 91.4293 67.3707 91.088 66.9974 90.64C66.6347 90.1813 66.3627 89.6747 66.1814 89.12C66.0854 88.8427 66.0107 88.5653 65.9574 88.288C65.904 88 65.8774 87.6853 65.8774 87.344C65.888 86.992 65.8934 86.7147 65.8934 86.512C65.8934 86.3093 65.9254 85.9893 65.9894 85.552C66.064 85.1147 66.1067 84.8373 66.1174 84.72C66.1387 84.6027 66.2027 84.288 66.3094 83.776C66.416 83.264 66.4747 82.9867 66.4854 82.944C66.6134 82.3147 66.8054 81.8187 67.0614 81.456C67.3387 81.0827 67.7174 80.816 68.1974 80.656C68.688 80.5067 69.1787 80.4853 69.6694 80.592C70.16 80.6987 70.5974 80.912 70.9814 81.232C71.664 81.7973 72.1547 82.6347 72.4534 83.744ZM68.1974 82.736C68.1974 82.7467 68.192 82.768 68.1814 82.8L68.1974 82.768V82.736ZM67.8774 89.008C67.8774 89.0187 67.888 89.0453 67.9094 89.088C67.9094 89.0773 67.8987 89.0507 67.8774 89.008ZM69.2694 90.304C69.2587 90.304 69.248 90.2987 69.2374 90.288H69.2214L69.2694 90.304ZM69.7334 90.384H69.6534H69.6694C69.6907 90.384 69.712 90.384 69.7334 90.384ZM70.1334 90.352C70.1334 90.352 70.144 90.352 70.1654 90.352C70.1547 90.352 70.1334 90.3573 70.1014 90.368C70.1014 90.368 70.1067 90.368 70.1174 90.368C70.128 90.368 70.1334 90.3627 70.1334 90.352ZM71.1414 86.4C71.1414 86.24 71.1414 86.128 71.1414 86.064C71.152 85.6587 71.1254 85.2587 71.0614 84.864C71.0507 84.8533 71.04 84.7893 71.0294 84.672C71.0187 84.6613 71.0134 84.6453 71.0134 84.624C71.0134 84.592 71.0027 84.5493 70.9814 84.496C70.9707 84.432 70.96 84.3947 70.9494 84.384C70.9067 84.192 70.8587 84.016 70.8054 83.856C70.6987 83.568 70.6347 83.4027 70.6134 83.36C70.6027 83.3493 70.592 83.3333 70.5814 83.312C70.5814 83.3013 70.5707 83.2853 70.5494 83.264C70.528 83.232 70.512 83.2053 70.5014 83.184C70.4587 83.0987 70.4107 83.024 70.3574 82.96C70.336 82.9173 70.2987 82.864 70.2454 82.8C70.2027 82.736 70.176 82.6987 70.1654 82.688C70.1547 82.6773 70.1387 82.6667 70.1174 82.656C70.1067 82.6347 70.096 82.6187 70.0854 82.608C70.0107 82.5333 69.936 82.4693 69.8614 82.416C69.8507 82.4053 69.8454 82.4 69.8454 82.4C69.824 82.3893 69.808 82.3787 69.7974 82.368C69.7974 82.368 69.792 82.3627 69.7814 82.352C69.696 82.3093 69.6107 82.272 69.5254 82.24C69.536 82.24 69.5414 82.24 69.5414 82.24C69.5414 82.24 69.536 82.2347 69.5254 82.224C69.5147 82.224 69.5094 82.224 69.5094 82.224C69.5094 82.224 69.504 82.224 69.4934 82.224C69.4827 82.2133 69.472 82.208 69.4614 82.208C69.4507 82.208 69.4454 82.208 69.4454 82.208C69.36 82.1867 69.2747 82.1707 69.1894 82.16L69.1414 82.144C69.1307 82.144 69.12 82.144 69.1094 82.144C69.056 82.144 68.9707 82.1493 68.8534 82.16C68.8427 82.1707 68.8214 82.176 68.7894 82.176C68.768 82.1867 68.7574 82.192 68.7574 82.192C68.736 82.2027 68.6987 82.2133 68.6454 82.224L68.5814 82.256H68.5654C68.5547 82.2667 68.544 82.272 68.5334 82.272C68.544 82.272 68.5547 82.2667 68.5654 82.256C68.5547 82.2667 68.5387 82.2827 68.5174 82.304C68.496 82.3147 68.48 82.32 68.4694 82.32C68.4694 82.3307 68.4587 82.3413 68.4374 82.352L68.4054 82.384C68.3947 82.4053 68.3787 82.4267 68.3574 82.448C68.336 82.4693 68.3254 82.4853 68.3254 82.496C68.3254 82.496 68.32 82.496 68.3094 82.496C68.3094 82.5067 68.2934 82.5387 68.2614 82.592C68.24 82.6453 68.224 82.6827 68.2134 82.704C68.2027 82.7253 68.192 82.7573 68.1814 82.8C68.1814 82.8107 68.176 82.8213 68.1654 82.832C68.1654 82.8427 68.1654 82.848 68.1654 82.848C68.1334 82.976 68.048 83.3973 67.9094 84.112C67.7814 84.784 67.7014 85.2267 67.6694 85.44C67.6267 85.696 67.5894 85.9253 67.5574 86.128C67.5467 86.256 67.536 86.3733 67.5254 86.48C67.5254 86.4907 67.52 86.5173 67.5094 86.56C67.5094 86.56 67.5094 86.5653 67.5094 86.576C67.5094 86.6187 67.5094 86.6453 67.5094 86.656C67.488 87.136 67.504 87.5733 67.5574 87.968C67.568 87.9787 67.5734 88 67.5734 88.032C67.5734 88.0533 67.5734 88.0693 67.5734 88.08C67.584 88.0907 67.5894 88.1067 67.5894 88.128C67.632 88.2773 67.6587 88.3787 67.6694 88.432C67.7227 88.624 67.7867 88.8053 67.8614 88.976C67.872 89.008 67.888 89.0347 67.9094 89.056C67.92 89.0773 67.9254 89.088 67.9254 89.088C67.9254 89.1093 67.9307 89.12 67.9414 89.12C67.984 89.216 68.0374 89.3067 68.1014 89.392C68.1547 89.4667 68.208 89.5413 68.2614 89.616C68.272 89.6267 68.2827 89.6373 68.2934 89.648C68.304 89.6693 68.3147 89.6853 68.3254 89.696C68.3254 89.696 68.336 89.7013 68.3574 89.712C68.4 89.7547 68.464 89.8133 68.5494 89.888C68.6454 89.9627 68.704 90.0107 68.7254 90.032L68.7734 90.08C68.7734 90.08 68.7734 90.0853 68.7734 90.096C68.784 90.096 68.7947 90.096 68.8054 90.096C68.7947 90.096 68.784 90.0907 68.7734 90.08C68.784 90.08 68.7894 90.08 68.7894 90.08C68.832 90.112 68.8747 90.1333 68.9174 90.144C68.9814 90.1867 69.0507 90.2187 69.1254 90.24C69.1254 90.2507 69.1467 90.2613 69.1894 90.272C69.232 90.2827 69.2587 90.288 69.2694 90.288C69.3547 90.0213 69.5254 89.84 69.7814 89.744C69.8027 89.744 69.8454 89.728 69.9094 89.696C69.9094 89.7067 69.904 89.712 69.8934 89.712C69.904 89.712 69.9094 89.7067 69.9094 89.696C69.9307 89.696 69.9414 89.6907 69.9414 89.68L70.0054 89.648C70.048 89.6267 70.0747 89.6053 70.0854 89.584V89.6C70.0854 89.6 70.0907 89.5947 70.1014 89.584C70.112 89.5733 70.1227 89.5627 70.1334 89.552C70.144 89.5413 70.1547 89.5307 70.1654 89.52C70.1867 89.488 70.2294 89.4347 70.2934 89.36C70.2934 89.3493 70.2987 89.3387 70.3094 89.328C70.32 89.3067 70.3307 89.2907 70.3414 89.28C70.384 89.2053 70.4267 89.1147 70.4694 89.008C70.5334 88.8587 70.608 88.6667 70.6934 88.432C70.704 88.4107 70.7147 88.3787 70.7254 88.336C70.7467 88.2933 70.7627 88.2613 70.7734 88.24C70.7734 88.2293 70.7734 88.224 70.7734 88.224C70.7734 88.224 70.7734 88.2187 70.7734 88.208C70.816 88.0907 70.848 87.9893 70.8694 87.904C70.9334 87.68 70.9867 87.456 71.0294 87.232C71.072 87.008 71.104 86.784 71.1254 86.56C71.1254 86.56 71.1254 86.544 71.1254 86.512C71.136 86.48 71.1414 86.4587 71.1414 86.448C71.1414 86.4373 71.1414 86.4213 71.1414 86.4ZM69.5254 82.24L69.4614 82.208C69.4614 82.208 69.4667 82.2133 69.4774 82.224C69.4987 82.224 69.5147 82.224 69.5254 82.224V82.24ZM70.1014 89.584H70.0854C70.096 89.5733 70.112 89.5627 70.1334 89.552C70.112 89.5627 70.1014 89.5733 70.1014 89.584ZM68.7734 90.08C68.7627 90.0587 68.7467 90.0427 68.7254 90.032C68.736 90.032 68.752 90.048 68.7734 90.08ZM68.6454 82.224C68.6454 82.2347 68.6187 82.2453 68.5654 82.256C68.5974 82.256 68.624 82.2453 68.6454 82.224ZM69.9094 89.696C69.952 89.664 69.984 89.648 70.0054 89.648C69.9627 89.6693 69.9307 89.6853 69.9094 89.696ZM79.6913 88.72C79.6913 88.7093 79.6913 88.688 79.6913 88.656C79.6913 88.624 79.6913 88.5867 79.6913 88.544C79.7019 88.4907 79.7073 88.464 79.7073 88.464C79.7073 88.3147 79.7446 88.1813 79.8193 88.064C79.8939 87.936 79.9899 87.84 80.1073 87.776C80.2353 87.7013 80.3739 87.6587 80.5233 87.648C80.7366 87.6373 80.9233 87.7173 81.0833 87.888C81.2539 88.0587 81.3393 88.2507 81.3393 88.464C81.3286 89.1467 81.1259 89.7867 80.7313 90.384C80.3473 90.9707 79.8299 91.4133 79.1793 91.712C78.5393 92.0107 77.8779 92.08 77.1953 91.92C76.7259 91.8133 76.3099 91.584 75.9473 91.232C75.5846 90.88 75.3073 90.496 75.1153 90.08C74.9233 89.664 74.7739 89.2 74.6673 88.688C74.5606 88.1973 74.4699 87.552 74.3953 86.752C74.3206 85.9413 74.2993 85.248 74.3313 84.672C74.4059 83.7227 74.6139 82.944 74.9553 82.336C75.1793 81.9413 75.4673 81.6 75.8193 81.312C76.1819 81.024 76.5766 80.816 77.0033 80.688C77.3979 80.56 77.8086 80.528 78.2352 80.592C78.6619 80.656 79.0406 80.8107 79.3713 81.056C80.0859 81.5787 80.5499 82.3093 80.7633 83.248C80.7953 83.3867 80.7899 83.5253 80.7473 83.664C80.7153 83.8027 80.6513 83.9253 80.5553 84.032C80.4593 84.128 80.3419 84.1973 80.2033 84.24C80.0006 84.304 79.7926 84.2773 79.5793 84.16C79.3766 84.0427 79.2486 83.8827 79.1953 83.68C79.1739 83.552 79.1473 83.44 79.1153 83.344C79.1046 83.3227 79.0939 83.296 79.0833 83.264C79.0726 83.232 79.0619 83.2053 79.0513 83.184L79.0193 83.136C79.0299 83.1467 79.0459 83.1787 79.0673 83.232C79.0566 83.2107 79.0406 83.184 79.0193 83.152C79.0086 83.12 78.9979 83.0933 78.9873 83.072C78.9766 83.04 78.9606 83.0133 78.9393 82.992C78.9286 82.96 78.9179 82.9333 78.9073 82.912C78.8966 82.88 78.8806 82.8533 78.8593 82.832C78.8486 82.8 78.8326 82.7733 78.8113 82.752C78.7686 82.688 78.7473 82.656 78.7473 82.656C78.7473 82.6453 78.7579 82.656 78.7793 82.688V82.704L78.7473 82.656C78.6939 82.592 78.6353 82.5333 78.5713 82.48C78.5713 82.48 78.5553 82.4693 78.5233 82.448C78.4913 82.4267 78.4699 82.4053 78.4593 82.384C78.4699 82.4053 78.4913 82.4213 78.5233 82.432C78.4166 82.368 78.3419 82.3253 78.2993 82.304C78.2886 82.2933 78.2726 82.288 78.2513 82.288C78.2406 82.2773 78.2299 82.2667 78.2193 82.256C78.2086 82.2453 78.1979 82.24 78.1873 82.24L78.1713 82.224C78.2353 82.2453 78.2673 82.2613 78.2673 82.272C78.2673 82.272 78.2513 82.2667 78.2193 82.256C78.0913 82.2133 78.0219 82.192 78.0113 82.192C77.9473 82.1813 77.9153 82.1813 77.9153 82.192C77.9153 82.2027 77.9579 82.2027 78.0433 82.192C78.0326 82.192 78.0113 82.192 77.9793 82.192C77.9686 82.192 77.9579 82.192 77.9473 82.192C77.9046 82.1813 77.8193 82.1813 77.6913 82.192C77.6486 82.192 77.6273 82.192 77.6273 82.192L77.7393 82.176C77.7286 82.1867 77.7019 82.1973 77.6593 82.208C77.6273 82.208 77.6113 82.208 77.6113 82.208C77.5793 82.208 77.4886 82.2347 77.3393 82.288H77.3233C77.3126 82.288 77.2966 82.2933 77.2753 82.304C77.2539 82.3147 77.2379 82.3253 77.2273 82.336C77.1419 82.3787 77.0566 82.4267 76.9713 82.48C76.8753 82.544 76.8273 82.5813 76.8273 82.592C76.7419 82.6667 76.6886 82.7147 76.6673 82.736C76.6459 82.7467 76.6193 82.7733 76.5873 82.816C76.5553 82.848 76.5339 82.8747 76.5233 82.896L76.5393 82.864C76.5393 82.8747 76.5286 82.8907 76.5073 82.912C76.4966 82.9227 76.4913 82.9333 76.4913 82.944C76.4273 83.04 76.3473 83.184 76.2513 83.376C76.2299 83.408 76.2246 83.424 76.2353 83.424L76.2673 83.312C76.2673 83.3227 76.2619 83.3387 76.2513 83.36C76.2406 83.3813 76.2353 83.3973 76.2353 83.408C76.2033 83.4827 76.1766 83.5573 76.1553 83.632C76.1126 83.7813 76.0753 83.936 76.0433 84.096C76.0219 84.1707 76.0059 84.2507 75.9953 84.336C75.9953 84.336 75.9953 84.352 75.9953 84.384C75.9953 84.4053 75.9899 84.4213 75.9793 84.432L76.0113 84.32C76.0006 84.3307 75.9953 84.3573 75.9953 84.4C75.9526 84.688 75.9366 85.008 75.9473 85.36C75.9473 85.8293 75.9793 86.4053 76.0433 87.088C76.0646 87.2267 76.0806 87.3547 76.0913 87.472V87.456C76.0913 87.4667 76.0913 87.488 76.0913 87.52C76.1019 87.5733 76.1126 87.6267 76.1233 87.68C76.1766 87.9893 76.2353 88.272 76.2993 88.528C76.3419 88.688 76.3846 88.8373 76.4273 88.976C76.4486 89.0293 76.4699 89.088 76.4913 89.152C76.5126 89.2053 76.5339 89.2533 76.5553 89.296C76.5553 89.296 76.5393 89.264 76.5073 89.2C76.7099 89.584 76.8433 89.8187 76.9073 89.904L76.8593 89.856L76.8753 89.872C76.8859 89.8827 76.8966 89.8987 76.9073 89.92C76.9286 89.9307 76.9446 89.9413 76.9553 89.952C76.9873 89.9947 77.0246 90.032 77.0673 90.064C77.0779 90.0747 77.0886 90.0907 77.0993 90.112C77.1206 90.1227 77.1366 90.128 77.1473 90.128C77.0833 90.0747 77.0993 90.0853 77.1953 90.16L77.0993 90.096C77.1099 90.1067 77.1313 90.1227 77.1633 90.144C77.1953 90.1653 77.2166 90.1813 77.2273 90.192C77.2486 90.2027 77.2699 90.2133 77.2913 90.224C77.3126 90.2347 77.3339 90.2507 77.3553 90.272C77.3873 90.2827 77.4139 90.2933 77.4353 90.304C77.4459 90.3147 77.4513 90.32 77.4513 90.32L77.3393 90.272C77.3393 90.272 77.3499 90.272 77.3713 90.272C77.3819 90.2827 77.3979 90.2933 77.4193 90.304C77.4406 90.304 77.4566 90.304 77.4673 90.304C77.5206 90.3253 77.5846 90.3467 77.6593 90.368C77.7446 90.3787 77.7873 90.384 77.7873 90.384C77.7873 90.384 77.7553 90.3787 77.6913 90.368C77.6913 90.368 77.7073 90.3733 77.7393 90.384C77.8673 90.384 77.9579 90.384 78.0113 90.384C78.0219 90.384 78.0486 90.3787 78.0913 90.368L78.0593 90.384C78.0806 90.3733 78.0966 90.368 78.1073 90.368C78.1713 90.3573 78.2406 90.3413 78.3153 90.32C78.3473 90.3093 78.3793 90.2987 78.4113 90.288C78.4433 90.2773 78.4753 90.2667 78.5073 90.256C78.5073 90.256 78.5019 90.2613 78.4913 90.272C78.4806 90.272 78.4699 90.272 78.4593 90.272C78.4913 90.2613 78.5179 90.2507 78.5393 90.24C78.5819 90.2187 78.6193 90.1973 78.6513 90.176C78.7153 90.1333 78.7739 90.096 78.8273 90.064C78.8379 90.0533 78.8593 90.0373 78.8913 90.016V90.032C78.8379 90.0533 78.8326 90.048 78.8753 90.016C78.9073 90.0053 78.9233 89.9947 78.9233 89.984C78.9766 89.9413 79.0299 89.8933 79.0833 89.84C79.1579 89.776 79.2273 89.7013 79.2913 89.616L79.2753 89.632C79.2859 89.632 79.3073 89.6053 79.3393 89.552C79.4246 89.4347 79.5046 89.2907 79.5793 89.12C79.5793 89.1093 79.5846 89.0987 79.5953 89.088C79.6059 89.056 79.6113 89.0347 79.6113 89.024C79.6433 88.9387 79.6699 88.8533 79.6913 88.768C79.6913 88.7573 79.6913 88.736 79.6913 88.704C79.7019 88.6827 79.7073 88.6667 79.7073 88.656C79.7073 88.6347 79.7073 88.6187 79.7073 88.608L79.6913 88.72ZM89.4891 86.544C89.7771 88.112 89.8891 89.6587 89.8251 91.184C89.8251 91.3333 89.7878 91.472 89.7131 91.6C89.6385 91.7173 89.5425 91.8133 89.4251 91.888C89.3078 91.952 89.1745 91.9893 89.0251 92C88.8118 92.0107 88.6198 91.9307 88.4491 91.76C88.2785 91.5893 88.1985 91.3973 88.2091 91.184C88.2411 90.384 88.2251 89.5893 88.1611 88.8C88.1505 88.6507 88.1345 88.4853 88.1131 88.304C86.8651 88.2933 85.6491 88.2933 84.4651 88.304C84.4438 89.2107 84.4598 90.1173 84.5131 91.024C84.5238 91.1733 84.4865 91.312 84.4011 91.44C84.3265 91.5573 84.2251 91.6533 84.0971 91.728C83.9798 91.792 83.8518 91.8293 83.7131 91.84C83.4891 91.8507 83.2971 91.776 83.1371 91.616C82.9878 91.4453 82.9078 91.248 82.8971 91.024C82.7798 89.2427 82.8171 87.4773 83.0091 85.728C83.1265 84.7467 83.2438 83.9627 83.3611 83.376C83.5211 82.5973 83.7985 81.9787 84.1931 81.52C84.4385 81.2213 84.7478 81.0133 85.1211 80.896C85.5051 80.7787 85.8945 80.768 86.2891 80.864C86.9931 81.0347 87.5905 81.5093 88.0811 82.288C88.3585 82.7467 88.6465 83.4453 88.9451 84.384C89.1691 85.088 89.3505 85.808 89.4891 86.544ZM86.5451 82.912C86.5345 82.8907 86.5185 82.8693 86.4971 82.848C86.5185 82.88 86.5345 82.9013 86.5451 82.912ZM86.3051 82.64C86.2838 82.6187 86.2625 82.608 86.2411 82.608C86.2518 82.608 86.2731 82.6187 86.3051 82.64ZM85.5531 82.464C85.5531 82.464 85.5478 82.464 85.5371 82.464C85.5478 82.464 85.5531 82.464 85.5531 82.464ZM84.5451 86.672C85.6225 86.672 86.7265 86.6773 87.8571 86.688C87.8571 86.6773 87.8571 86.6667 87.8571 86.656C87.7185 85.9733 87.5425 85.3067 87.3291 84.656C87.2225 84.3147 87.1105 84.0053 86.9931 83.728V83.712H86.9771C86.9771 83.6907 86.9718 83.6693 86.9611 83.648C86.9505 83.616 86.9398 83.5947 86.9291 83.584C86.8971 83.5093 86.8651 83.4453 86.8331 83.392C86.7585 83.2427 86.6838 83.1147 86.6091 83.008C86.5985 82.9867 86.5718 82.9493 86.5291 82.896C86.5078 82.864 86.4971 82.848 86.4971 82.848C86.4865 82.8373 86.4705 82.8213 86.4491 82.8C86.4278 82.7787 86.4118 82.7627 86.4011 82.752C86.3905 82.7413 86.3798 82.7307 86.3691 82.72C86.3691 82.7093 86.3585 82.6987 86.3371 82.688C86.3265 82.6773 86.3211 82.6667 86.3211 82.656C86.3105 82.6453 86.2945 82.6347 86.2731 82.624C86.2198 82.592 86.1931 82.576 86.1931 82.576C86.1718 82.5653 86.1131 82.5333 86.0171 82.48C86.0065 82.4693 85.9905 82.464 85.9691 82.464L85.9371 82.448C85.9371 82.448 85.9265 82.448 85.9051 82.448C85.8945 82.4373 85.8785 82.432 85.8571 82.432C85.8358 82.432 85.8198 82.4267 85.8091 82.416C85.7985 82.416 85.7771 82.416 85.7451 82.416C85.7238 82.416 85.7078 82.416 85.6971 82.416C85.6545 82.4267 85.6278 82.432 85.6171 82.432L85.6011 82.448H85.5851C85.5211 82.4907 85.4838 82.5173 85.4731 82.528C85.4518 82.5387 85.4411 82.5493 85.4411 82.56C85.4305 82.5707 85.4145 82.5867 85.3931 82.608C85.3825 82.6187 85.3611 82.64 85.3291 82.672C85.3078 82.704 85.2971 82.7253 85.2971 82.736C85.2651 82.7893 85.2385 82.8427 85.2171 82.896C85.2065 82.896 85.1851 82.9333 85.1531 83.008C85.1531 83.008 85.1478 83.0187 85.1371 83.04C85.1371 83.0613 85.1318 83.0827 85.1211 83.104C85.1211 83.1147 85.1158 83.1253 85.1051 83.136C85.0838 83.1893 85.0678 83.248 85.0571 83.312C85.0145 83.44 84.9771 83.568 84.9451 83.696C84.9025 83.92 84.8491 84.24 84.7851 84.656C84.7638 84.7627 84.7478 84.8587 84.7371 84.944C84.7371 84.976 84.7318 85.0293 84.7211 85.104C84.7211 85.104 84.7158 85.1147 84.7051 85.136C84.7051 85.1467 84.7051 85.1573 84.7051 85.168C84.7051 85.1787 84.6998 85.2053 84.6891 85.248C84.6891 85.28 84.6891 85.3067 84.6891 85.328C84.6785 85.4027 84.6678 85.488 84.6571 85.584C84.6145 85.936 84.5825 86.2933 84.5611 86.656C84.5505 86.656 84.5451 86.6613 84.5451 86.672ZM102.075 85.536C102.491 86.24 102.694 87.056 102.683 87.984C102.672 88.9013 102.443 89.7013 101.995 90.384C101.504 91.1307 100.854 91.6267 100.043 91.872C99.7123 91.9787 99.339 92.0213 98.923 92C98.507 91.968 98.1443 91.856 97.835 91.664C97.835 91.664 97.803 91.6427 97.739 91.6C97.675 91.5573 97.627 91.5253 97.595 91.504C97.435 91.3973 97.2803 91.1893 97.131 90.88C96.939 90.432 96.7683 90.0053 96.619 89.6C96.3417 88.8213 96.123 88.0213 95.963 87.2C95.6323 85.4187 95.579 83.68 95.803 81.984C95.835 81.7387 95.9203 81.5467 96.059 81.408C96.1977 81.2587 96.3843 81.1787 96.619 81.168C96.8217 81.1573 97.0083 81.232 97.179 81.392C97.4243 81.2 97.6857 81.0453 97.963 80.928C98.315 80.7787 98.6723 80.6773 99.035 80.624C99.5683 80.5493 99.9843 80.6133 100.283 80.816C100.699 81.0827 100.912 81.4933 100.923 82.048C100.934 82.4107 100.811 82.8267 100.555 83.296C100.384 83.5947 100.192 83.904 99.979 84.224C100.416 84.2453 100.816 84.3733 101.179 84.608C101.552 84.8427 101.851 85.152 102.075 85.536ZM100.011 85.84C99.9577 85.8293 99.931 85.8293 99.931 85.84C99.931 85.84 99.9577 85.84 100.011 85.84ZM99.307 82.064C99.2963 82.0533 99.2857 82.0427 99.275 82.032C99.2857 82.0427 99.2963 82.0587 99.307 82.08V82.064ZM97.579 83.28C97.5043 83.3973 97.4137 83.488 97.307 83.552C97.2963 83.7013 97.291 83.84 97.291 83.968C97.291 84.32 97.3017 84.6667 97.323 85.008C97.6003 84.6773 97.8403 84.384 98.043 84.128L98.059 84.112C98.059 84.1013 98.0643 84.0853 98.075 84.064C98.0963 84.0427 98.1123 84.032 98.123 84.032C98.1657 83.9787 98.203 83.9253 98.235 83.872C98.331 83.744 98.4217 83.6213 98.507 83.504C98.6883 83.2373 98.8537 82.9813 99.003 82.736C99.099 82.576 99.1683 82.448 99.211 82.352C99.2217 82.3413 99.2323 82.3253 99.243 82.304C99.2537 82.2827 99.259 82.2667 99.259 82.256L99.275 82.224C99.275 82.224 99.2803 82.224 99.291 82.224C99.2697 82.224 99.2537 82.224 99.243 82.224C99.1577 82.2453 99.099 82.256 99.067 82.256C98.971 82.2773 98.843 82.3147 98.683 82.368C98.683 82.368 98.683 82.3733 98.683 82.384H98.667C98.5817 82.4267 98.5337 82.4533 98.523 82.464C98.427 82.5067 98.3097 82.576 98.171 82.672C98.1603 82.6827 98.1497 82.688 98.139 82.688C98.0857 82.7413 98.043 82.7787 98.011 82.8C97.9043 82.896 97.8083 82.9973 97.723 83.104C97.7123 83.1147 97.7017 83.1307 97.691 83.152C97.6803 83.1627 97.6697 83.168 97.659 83.168L97.675 83.152L97.691 83.136C97.691 83.136 97.6537 83.184 97.579 83.28ZM99.243 82.304C99.2537 82.2933 99.2643 82.272 99.275 82.24C99.2643 82.272 99.2537 82.2933 99.243 82.304ZM98.427 89.792C98.4377 89.8133 98.443 89.8347 98.443 89.856C98.443 89.8347 98.4377 89.8133 98.427 89.792ZM100.123 90.048C100.134 90.048 100.15 90.0373 100.171 90.016C100.15 90.0373 100.134 90.048 100.123 90.048ZM101.051 88.24C101.051 88.1547 101.051 88.064 101.051 87.968C101.051 87.8613 101.051 87.7493 101.051 87.632C101.04 87.6107 101.035 87.5787 101.035 87.536C101.035 87.4933 101.035 87.4667 101.035 87.456C101.024 87.4347 101.024 87.4133 101.035 87.392C101.024 87.3387 100.982 87.1787 100.907 86.912C100.854 86.7307 100.816 86.6187 100.795 86.576C100.742 86.48 100.71 86.4267 100.699 86.416C100.688 86.384 100.662 86.3413 100.619 86.288C100.587 86.2347 100.566 86.1973 100.555 86.176L100.523 86.144L100.475 86.08C100.454 86.0587 100.427 86.0373 100.395 86.016C100.395 86.016 100.384 86.0107 100.363 86C100.342 85.9787 100.326 85.968 100.315 85.968C100.294 85.9573 100.262 85.936 100.219 85.904C100.208 85.904 100.198 85.904 100.187 85.904C100.187 85.904 100.176 85.8987 100.155 85.888C100.091 85.8667 100.043 85.856 100.011 85.856C100.011 85.856 100 85.856 99.979 85.856C99.9577 85.856 99.9257 85.856 99.883 85.856C99.851 85.8453 99.8243 85.84 99.803 85.84C99.7817 85.84 99.7283 85.8453 99.643 85.856C99.4937 85.888 99.4083 85.9093 99.387 85.92C99.3763 85.92 99.355 85.9253 99.323 85.936C99.291 85.9467 99.259 85.9573 99.227 85.968C99.2057 85.968 99.195 85.968 99.195 85.968C99.1417 86 99.0617 86.0427 98.955 86.096C98.763 86.2027 98.555 86.336 98.331 86.496C98.3203 86.5067 98.299 86.5227 98.267 86.544C98.2457 86.5547 98.2297 86.5653 98.219 86.576C98.2083 86.5867 98.203 86.592 98.203 86.592C98.1923 86.6027 98.1817 86.608 98.171 86.608C98.171 86.608 98.171 86.6133 98.171 86.624C98.0857 86.688 97.995 86.7573 97.899 86.832C97.803 86.9067 97.6963 86.9653 97.579 87.008C97.6003 87.104 97.6217 87.1893 97.643 87.264C97.7603 87.84 97.915 88.4 98.107 88.944C98.203 89.2107 98.299 89.472 98.395 89.728C98.4057 89.7387 98.4163 89.76 98.427 89.792C98.427 89.792 98.427 89.7973 98.427 89.808C98.491 89.9467 98.523 90.0213 98.523 90.032C98.555 90.0853 98.587 90.1547 98.619 90.24C98.6617 90.2613 98.683 90.272 98.683 90.272C98.6937 90.2827 98.7043 90.288 98.715 90.288C98.843 90.3307 98.9177 90.352 98.939 90.352C98.9497 90.352 98.9603 90.3573 98.971 90.368C98.9817 90.368 98.987 90.368 98.987 90.368C98.9977 90.368 99.0137 90.368 99.035 90.368C99.0563 90.368 99.0723 90.368 99.083 90.368C99.0937 90.368 99.1417 90.368 99.227 90.368C99.3123 90.3573 99.3657 90.352 99.387 90.352C99.4297 90.352 99.4723 90.3467 99.515 90.336C99.5683 90.3147 99.6537 90.2827 99.771 90.24C99.7817 90.24 99.7977 90.2347 99.819 90.224C99.851 90.2027 99.8883 90.1813 99.931 90.16C99.9523 90.1493 100.027 90.1013 100.155 90.016C100.176 90.0053 100.192 90 100.203 90C100.203 89.9893 100.208 89.9787 100.219 89.968C100.23 89.9573 100.24 89.952 100.251 89.952C100.315 89.888 100.379 89.824 100.443 89.76C100.454 89.7493 100.464 89.7387 100.475 89.728C100.496 89.7067 100.507 89.6907 100.507 89.68C100.518 89.68 100.523 89.6747 100.523 89.664C100.608 89.5467 100.662 89.4667 100.683 89.424C100.715 89.36 100.763 89.2693 100.827 89.152C100.827 89.152 100.827 89.1467 100.827 89.136C100.838 89.1253 100.843 89.1093 100.843 89.088C100.854 89.056 100.864 89.0347 100.875 89.024C100.928 88.8533 100.982 88.64 101.035 88.384C101.035 88.3733 101.035 88.3627 101.035 88.352C101.035 88.3413 101.035 88.3253 101.035 88.304C101.035 88.272 101.04 88.2507 101.051 88.24ZM113.513 81.024C113.727 81.0133 113.913 81.0987 114.073 81.28C114.244 81.4613 114.319 81.648 114.297 81.84C114.287 81.9893 114.244 82.1227 114.169 82.24C114.095 82.3467 113.993 82.432 113.865 82.496C113.748 82.5493 113.615 82.5813 113.465 82.592C112.239 82.6773 111.017 82.656 109.801 82.528C110.121 84.6613 110.409 86.784 110.665 88.896C110.751 89.6 110.836 90.3147 110.921 91.04C110.953 91.296 110.921 91.4987 110.825 91.648C110.697 91.84 110.527 91.952 110.313 91.984C110.111 92.0267 109.903 91.9947 109.689 91.888C109.487 91.7707 109.369 91.6107 109.337 91.408C109.06 88.9013 108.74 86.416 108.377 83.952C108.271 83.248 108.164 82.5333 108.057 81.808C108.015 81.5413 108.073 81.3173 108.233 81.136C108.425 80.912 108.639 80.816 108.873 80.848C110.42 81.072 111.967 81.1307 113.513 81.024ZM121.578 83.744C121.845 84.7147 121.941 85.7013 121.866 86.704C121.792 87.5253 121.557 88.4427 121.162 89.456C121.034 89.7867 120.896 90.064 120.746 90.288C120.778 90.32 120.81 90.352 120.842 90.384C120.97 90.5547 121.008 90.7573 120.954 90.992C120.912 91.2267 120.8 91.4027 120.618 91.52C120.149 91.8187 119.621 91.9787 119.034 92C118.458 92.0213 117.925 91.9093 117.434 91.664C116.933 91.4293 116.496 91.088 116.122 90.64C115.76 90.1813 115.488 89.6747 115.306 89.12C115.21 88.8427 115.136 88.5653 115.082 88.288C115.029 88 115.002 87.6853 115.002 87.344C115.013 86.992 115.018 86.7147 115.018 86.512C115.018 86.3093 115.05 85.9893 115.114 85.552C115.189 85.1147 115.232 84.8373 115.242 84.72C115.264 84.6027 115.328 84.288 115.434 83.776C115.541 83.264 115.6 82.9867 115.61 82.944C115.738 82.3147 115.93 81.8187 116.186 81.456C116.464 81.0827 116.842 80.816 117.322 80.656C117.813 80.5067 118.304 80.4853 118.794 80.592C119.285 80.6987 119.722 80.912 120.106 81.232C120.789 81.7973 121.28 82.6347 121.578 83.744ZM117.322 82.736C117.322 82.7467 117.317 82.768 117.306 82.8L117.322 82.768V82.736ZM117.002 89.008C117.002 89.0187 117.013 89.0453 117.034 89.088C117.034 89.0773 117.024 89.0507 117.002 89.008ZM118.394 90.304C118.384 90.304 118.373 90.2987 118.362 90.288H118.346L118.394 90.304ZM118.858 90.384H118.778H118.794C118.816 90.384 118.837 90.384 118.858 90.384ZM119.258 90.352C119.258 90.352 119.269 90.352 119.29 90.352C119.28 90.352 119.258 90.3573 119.226 90.368C119.226 90.368 119.232 90.368 119.242 90.368C119.253 90.368 119.258 90.3627 119.258 90.352ZM120.266 86.4C120.266 86.24 120.266 86.128 120.266 86.064C120.277 85.6587 120.25 85.2587 120.186 84.864C120.176 84.8533 120.165 84.7893 120.154 84.672C120.144 84.6613 120.138 84.6453 120.138 84.624C120.138 84.592 120.128 84.5493 120.106 84.496C120.096 84.432 120.085 84.3947 120.074 84.384C120.032 84.192 119.984 84.016 119.93 83.856C119.824 83.568 119.76 83.4027 119.738 83.36C119.728 83.3493 119.717 83.3333 119.706 83.312C119.706 83.3013 119.696 83.2853 119.674 83.264C119.653 83.232 119.637 83.2053 119.626 83.184C119.584 83.0987 119.536 83.024 119.482 82.96C119.461 82.9173 119.424 82.864 119.37 82.8C119.328 82.736 119.301 82.6987 119.29 82.688C119.28 82.6773 119.264 82.6667 119.242 82.656C119.232 82.6347 119.221 82.6187 119.21 82.608C119.136 82.5333 119.061 82.4693 118.986 82.416C118.976 82.4053 118.97 82.4 118.97 82.4C118.949 82.3893 118.933 82.3787 118.922 82.368C118.922 82.368 118.917 82.3627 118.906 82.352C118.821 82.3093 118.736 82.272 118.65 82.24C118.661 82.24 118.666 82.24 118.666 82.24C118.666 82.24 118.661 82.2347 118.65 82.224C118.64 82.224 118.634 82.224 118.634 82.224C118.634 82.224 118.629 82.224 118.618 82.224C118.608 82.2133 118.597 82.208 118.586 82.208C118.576 82.208 118.57 82.208 118.57 82.208C118.485 82.1867 118.4 82.1707 118.314 82.16L118.266 82.144C118.256 82.144 118.245 82.144 118.234 82.144C118.181 82.144 118.096 82.1493 117.978 82.16C117.968 82.1707 117.946 82.176 117.914 82.176C117.893 82.1867 117.882 82.192 117.882 82.192C117.861 82.2027 117.824 82.2133 117.77 82.224L117.706 82.256H117.69C117.68 82.2667 117.669 82.272 117.658 82.272C117.669 82.272 117.68 82.2667 117.69 82.256C117.68 82.2667 117.664 82.2827 117.642 82.304C117.621 82.3147 117.605 82.32 117.594 82.32C117.594 82.3307 117.584 82.3413 117.562 82.352L117.53 82.384C117.52 82.4053 117.504 82.4267 117.482 82.448C117.461 82.4693 117.45 82.4853 117.45 82.496C117.45 82.496 117.445 82.496 117.434 82.496C117.434 82.5067 117.418 82.5387 117.386 82.592C117.365 82.6453 117.349 82.6827 117.338 82.704C117.328 82.7253 117.317 82.7573 117.306 82.8C117.306 82.8107 117.301 82.8213 117.29 82.832C117.29 82.8427 117.29 82.848 117.29 82.848C117.258 82.976 117.173 83.3973 117.034 84.112C116.906 84.784 116.826 85.2267 116.794 85.44C116.752 85.696 116.714 85.9253 116.682 86.128C116.672 86.256 116.661 86.3733 116.65 86.48C116.65 86.4907 116.645 86.5173 116.634 86.56C116.634 86.56 116.634 86.5653 116.634 86.576C116.634 86.6187 116.634 86.6453 116.634 86.656C116.613 87.136 116.629 87.5733 116.682 87.968C116.693 87.9787 116.698 88 116.698 88.032C116.698 88.0533 116.698 88.0693 116.698 88.08C116.709 88.0907 116.714 88.1067 116.714 88.128C116.757 88.2773 116.784 88.3787 116.794 88.432C116.848 88.624 116.912 88.8053 116.986 88.976C116.997 89.008 117.013 89.0347 117.034 89.056C117.045 89.0773 117.05 89.088 117.05 89.088C117.05 89.1093 117.056 89.12 117.066 89.12C117.109 89.216 117.162 89.3067 117.226 89.392C117.28 89.4667 117.333 89.5413 117.386 89.616C117.397 89.6267 117.408 89.6373 117.418 89.648C117.429 89.6693 117.44 89.6853 117.45 89.696C117.45 89.696 117.461 89.7013 117.482 89.712C117.525 89.7547 117.589 89.8133 117.674 89.888C117.77 89.9627 117.829 90.0107 117.85 90.032L117.898 90.08C117.898 90.08 117.898 90.0853 117.898 90.096C117.909 90.096 117.92 90.096 117.93 90.096C117.92 90.096 117.909 90.0907 117.898 90.08C117.909 90.08 117.914 90.08 117.914 90.08C117.957 90.112 118 90.1333 118.042 90.144C118.106 90.1867 118.176 90.2187 118.25 90.24C118.25 90.2507 118.272 90.2613 118.314 90.272C118.357 90.2827 118.384 90.288 118.394 90.288C118.48 90.0213 118.65 89.84 118.906 89.744C118.928 89.744 118.97 89.728 119.034 89.696C119.034 89.7067 119.029 89.712 119.018 89.712C119.029 89.712 119.034 89.7067 119.034 89.696C119.056 89.696 119.066 89.6907 119.066 89.68L119.13 89.648C119.173 89.6267 119.2 89.6053 119.21 89.584V89.6C119.21 89.6 119.216 89.5947 119.226 89.584C119.237 89.5733 119.248 89.5627 119.258 89.552C119.269 89.5413 119.28 89.5307 119.29 89.52C119.312 89.488 119.354 89.4347 119.418 89.36C119.418 89.3493 119.424 89.3387 119.434 89.328C119.445 89.3067 119.456 89.2907 119.466 89.28C119.509 89.2053 119.552 89.1147 119.594 89.008C119.658 88.8587 119.733 88.6667 119.818 88.432C119.829 88.4107 119.84 88.3787 119.85 88.336C119.872 88.2933 119.888 88.2613 119.898 88.24C119.898 88.2293 119.898 88.224 119.898 88.224C119.898 88.224 119.898 88.2187 119.898 88.208C119.941 88.0907 119.973 87.9893 119.994 87.904C120.058 87.68 120.112 87.456 120.154 87.232C120.197 87.008 120.229 86.784 120.25 86.56C120.25 86.56 120.25 86.544 120.25 86.512C120.261 86.48 120.266 86.4587 120.266 86.448C120.266 86.4373 120.266 86.4213 120.266 86.4ZM118.65 82.24L118.586 82.208C118.586 82.208 118.592 82.2133 118.602 82.224C118.624 82.224 118.64 82.224 118.65 82.224V82.24ZM119.226 89.584H119.21C119.221 89.5733 119.237 89.5627 119.258 89.552C119.237 89.5627 119.226 89.5733 119.226 89.584ZM117.898 90.08C117.888 90.0587 117.872 90.0427 117.85 90.032C117.861 90.032 117.877 90.048 117.898 90.08ZM117.77 82.224C117.77 82.2347 117.744 82.2453 117.69 82.256C117.722 82.256 117.749 82.2453 117.77 82.224ZM119.034 89.696C119.077 89.664 119.109 89.648 119.13 89.648C119.088 89.6693 119.056 89.6853 119.034 89.696ZM124.386 91.888C124.173 91.9947 123.959 92.0267 123.746 91.984C123.543 91.9307 123.383 91.8027 123.266 91.6C123.181 91.4507 123.154 91.2427 123.186 90.976C123.293 90.24 123.405 89.5147 123.522 88.8C123.959 86.272 124.557 83.7867 125.314 81.344C125.421 81.0027 125.645 80.8053 125.986 80.752C126.146 80.7307 126.301 80.7573 126.45 80.832C126.61 80.9067 126.727 81.0133 126.802 81.152C127.133 81.824 127.437 82.4533 127.714 83.04C128.919 85.6427 129.751 88.0427 130.21 90.24C130.253 90.464 130.221 90.672 130.114 90.864C130.018 91.0453 129.858 91.1733 129.634 91.248C129.431 91.312 129.223 91.2853 129.01 91.168C128.807 91.0507 128.685 90.8853 128.642 90.672C128.493 89.9893 128.322 89.3067 128.13 88.624C127.81 87.5253 127.394 86.368 126.882 85.152V85.136V85.152C126.882 85.1413 126.882 85.136 126.882 85.136L126.866 85.12C126.866 85.1093 126.861 85.0933 126.85 85.072C126.839 85.0507 126.834 85.0347 126.834 85.024C126.802 84.96 126.775 84.896 126.754 84.832C126.69 84.6933 126.626 84.5547 126.562 84.416C126.487 84.2347 126.397 84.032 126.29 83.808L126.274 83.84V83.872C125.613 86.3253 125.106 88.8373 124.754 91.408C124.722 91.6213 124.599 91.7813 124.386 91.888ZM138.063 83.744C138.329 84.7147 138.425 85.7013 138.351 86.704C138.276 87.5253 138.041 88.4427 137.647 89.456C137.519 89.7867 137.38 90.064 137.231 90.288C137.263 90.32 137.295 90.352 137.327 90.384C137.455 90.5547 137.492 90.7573 137.439 90.992C137.396 91.2267 137.284 91.4027 137.103 91.52C136.633 91.8187 136.105 91.9787 135.519 92C134.943 92.0213 134.409 91.9093 133.919 91.664C133.417 91.4293 132.98 91.088 132.607 90.64C132.244 90.1813 131.972 89.6747 131.791 89.12C131.695 88.8427 131.62 88.5653 131.567 88.288C131.513 88 131.487 87.6853 131.487 87.344C131.497 86.992 131.503 86.7147 131.503 86.512C131.503 86.3093 131.535 85.9893 131.599 85.552C131.673 85.1147 131.716 84.8373 131.727 84.72C131.748 84.6027 131.812 84.288 131.919 83.776C132.025 83.264 132.084 82.9867 132.095 82.944C132.223 82.3147 132.415 81.8187 132.671 81.456C132.948 81.0827 133.327 80.816 133.807 80.656C134.297 80.5067 134.788 80.4853 135.279 80.592C135.769 80.6987 136.207 80.912 136.591 81.232C137.273 81.7973 137.764 82.6347 138.063 83.744ZM133.807 82.736C133.807 82.7467 133.801 82.768 133.791 82.8L133.807 82.768V82.736ZM133.487 89.008C133.487 89.0187 133.497 89.0453 133.519 89.088C133.519 89.0773 133.508 89.0507 133.487 89.008ZM134.879 90.304C134.868 90.304 134.857 90.2987 134.847 90.288H134.831L134.879 90.304ZM135.343 90.384H135.263H135.279C135.3 90.384 135.321 90.384 135.343 90.384ZM135.743 90.352C135.743 90.352 135.753 90.352 135.775 90.352C135.764 90.352 135.743 90.3573 135.711 90.368C135.711 90.368 135.716 90.368 135.727 90.368C135.737 90.368 135.743 90.3627 135.743 90.352ZM136.751 86.4C136.751 86.24 136.751 86.128 136.751 86.064C136.761 85.6587 136.735 85.2587 136.671 84.864C136.66 84.8533 136.649 84.7893 136.639 84.672C136.628 84.6613 136.623 84.6453 136.623 84.624C136.623 84.592 136.612 84.5493 136.591 84.496C136.58 84.432 136.569 84.3947 136.559 84.384C136.516 84.192 136.468 84.016 136.415 83.856C136.308 83.568 136.244 83.4027 136.223 83.36C136.212 83.3493 136.201 83.3333 136.191 83.312C136.191 83.3013 136.18 83.2853 136.159 83.264C136.137 83.232 136.121 83.2053 136.111 83.184C136.068 83.0987 136.02 83.024 135.967 82.96C135.945 82.9173 135.908 82.864 135.855 82.8C135.812 82.736 135.785 82.6987 135.775 82.688C135.764 82.6773 135.748 82.6667 135.727 82.656C135.716 82.6347 135.705 82.6187 135.695 82.608C135.62 82.5333 135.545 82.4693 135.471 82.416C135.46 82.4053 135.455 82.4 135.455 82.4C135.433 82.3893 135.417 82.3787 135.407 82.368C135.407 82.368 135.401 82.3627 135.391 82.352C135.305 82.3093 135.22 82.272 135.135 82.24C135.145 82.24 135.151 82.24 135.151 82.24C135.151 82.24 135.145 82.2347 135.135 82.224C135.124 82.224 135.119 82.224 135.119 82.224C135.119 82.224 135.113 82.224 135.103 82.224C135.092 82.2133 135.081 82.208 135.071 82.208C135.06 82.208 135.055 82.208 135.055 82.208C134.969 82.1867 134.884 82.1707 134.799 82.16L134.751 82.144C134.74 82.144 134.729 82.144 134.719 82.144C134.665 82.144 134.58 82.1493 134.463 82.16C134.452 82.1707 134.431 82.176 134.399 82.176C134.377 82.1867 134.367 82.192 134.367 82.192C134.345 82.2027 134.308 82.2133 134.255 82.224L134.191 82.256H134.175C134.164 82.2667 134.153 82.272 134.143 82.272C134.153 82.272 134.164 82.2667 134.175 82.256C134.164 82.2667 134.148 82.2827 134.127 82.304C134.105 82.3147 134.089 82.32 134.079 82.32C134.079 82.3307 134.068 82.3413 134.047 82.352L134.015 82.384C134.004 82.4053 133.988 82.4267 133.967 82.448C133.945 82.4693 133.935 82.4853 133.935 82.496C133.935 82.496 133.929 82.496 133.919 82.496C133.919 82.5067 133.903 82.5387 133.871 82.592C133.849 82.6453 133.833 82.6827 133.823 82.704C133.812 82.7253 133.801 82.7573 133.791 82.8C133.791 82.8107 133.785 82.8213 133.775 82.832C133.775 82.8427 133.775 82.848 133.775 82.848C133.743 82.976 133.657 83.3973 133.519 84.112C133.391 84.784 133.311 85.2267 133.279 85.44C133.236 85.696 133.199 85.9253 133.167 86.128C133.156 86.256 133.145 86.3733 133.135 86.48C133.135 86.4907 133.129 86.5173 133.119 86.56C133.119 86.56 133.119 86.5653 133.119 86.576C133.119 86.6187 133.119 86.6453 133.119 86.656C133.097 87.136 133.113 87.5733 133.167 87.968C133.177 87.9787 133.183 88 133.183 88.032C133.183 88.0533 133.183 88.0693 133.183 88.08C133.193 88.0907 133.199 88.1067 133.199 88.128C133.241 88.2773 133.268 88.3787 133.279 88.432C133.332 88.624 133.396 88.8053 133.471 88.976C133.481 89.008 133.497 89.0347 133.519 89.056C133.529 89.0773 133.535 89.088 133.535 89.088C133.535 89.1093 133.54 89.12 133.551 89.12C133.593 89.216 133.647 89.3067 133.711 89.392C133.764 89.4667 133.817 89.5413 133.871 89.616C133.881 89.6267 133.892 89.6373 133.903 89.648C133.913 89.6693 133.924 89.6853 133.935 89.696C133.935 89.696 133.945 89.7013 133.967 89.712C134.009 89.7547 134.073 89.8133 134.159 89.888C134.255 89.9627 134.313 90.0107 134.335 90.032L134.383 90.08C134.383 90.08 134.383 90.0853 134.383 90.096C134.393 90.096 134.404 90.096 134.415 90.096C134.404 90.096 134.393 90.0907 134.383 90.08C134.393 90.08 134.399 90.08 134.399 90.08C134.441 90.112 134.484 90.1333 134.527 90.144C134.591 90.1867 134.66 90.2187 134.735 90.24C134.735 90.2507 134.756 90.2613 134.799 90.272C134.841 90.2827 134.868 90.288 134.879 90.288C134.964 90.0213 135.135 89.84 135.391 89.744C135.412 89.744 135.455 89.728 135.519 89.696C135.519 89.7067 135.513 89.712 135.503 89.712C135.513 89.712 135.519 89.7067 135.519 89.696C135.54 89.696 135.551 89.6907 135.551 89.68L135.615 89.648C135.657 89.6267 135.684 89.6053 135.695 89.584V89.6C135.695 89.6 135.7 89.5947 135.711 89.584C135.721 89.5733 135.732 89.5627 135.743 89.552C135.753 89.5413 135.764 89.5307 135.775 89.52C135.796 89.488 135.839 89.4347 135.903 89.36C135.903 89.3493 135.908 89.3387 135.919 89.328C135.929 89.3067 135.94 89.2907 135.951 89.28C135.993 89.2053 136.036 89.1147 136.079 89.008C136.143 88.8587 136.217 88.6667 136.303 88.432C136.313 88.4107 136.324 88.3787 136.335 88.336C136.356 88.2933 136.372 88.2613 136.383 88.24C136.383 88.2293 136.383 88.224 136.383 88.224C136.383 88.224 136.383 88.2187 136.383 88.208C136.425 88.0907 136.457 87.9893 136.479 87.904C136.543 87.68 136.596 87.456 136.639 87.232C136.681 87.008 136.713 86.784 136.735 86.56C136.735 86.56 136.735 86.544 136.735 86.512C136.745 86.48 136.751 86.4587 136.751 86.448C136.751 86.4373 136.751 86.4213 136.751 86.4ZM135.135 82.24L135.071 82.208C135.071 82.208 135.076 82.2133 135.087 82.224C135.108 82.224 135.124 82.224 135.135 82.224V82.24ZM135.711 89.584H135.695C135.705 89.5733 135.721 89.5627 135.743 89.552C135.721 89.5627 135.711 89.5733 135.711 89.584ZM134.383 90.08C134.372 90.0587 134.356 90.0427 134.335 90.032C134.345 90.032 134.361 90.048 134.383 90.08ZM134.255 82.224C134.255 82.2347 134.228 82.2453 134.175 82.256C134.207 82.256 134.233 82.2453 134.255 82.224ZM135.519 89.696C135.561 89.664 135.593 89.648 135.615 89.648C135.572 89.6693 135.54 89.6853 135.519 89.696ZM146.341 85.536C146.757 86.24 146.959 87.056 146.949 87.984C146.938 88.9013 146.709 89.7013 146.261 90.384C145.77 91.1307 145.119 91.6267 144.309 91.872C143.978 91.9787 143.605 92.0213 143.189 92C142.773 91.968 142.41 91.856 142.101 91.664C142.101 91.664 142.069 91.6427 142.005 91.6C141.941 91.5573 141.893 91.5253 141.861 91.504C141.701 91.3973 141.546 91.1893 141.397 90.88C141.205 90.432 141.034 90.0053 140.885 89.6C140.607 88.8213 140.389 88.0213 140.229 87.2C139.898 85.4187 139.845 83.68 140.069 81.984C140.101 81.7387 140.186 81.5467 140.325 81.408C140.463 81.2587 140.65 81.1787 140.885 81.168C141.087 81.1573 141.274 81.232 141.445 81.392C141.69 81.2 141.951 81.0453 142.229 80.928C142.581 80.7787 142.938 80.6773 143.301 80.624C143.834 80.5493 144.25 80.6133 144.549 80.816C144.965 81.0827 145.178 81.4933 145.189 82.048C145.199 82.4107 145.077 82.8267 144.821 83.296C144.65 83.5947 144.458 83.904 144.245 84.224C144.682 84.2453 145.082 84.3733 145.445 84.608C145.818 84.8427 146.117 85.152 146.341 85.536ZM144.277 85.84C144.223 85.8293 144.197 85.8293 144.197 85.84C144.197 85.84 144.223 85.84 144.277 85.84ZM143.573 82.064C143.562 82.0533 143.551 82.0427 143.541 82.032C143.551 82.0427 143.562 82.0587 143.573 82.08V82.064ZM141.845 83.28C141.77 83.3973 141.679 83.488 141.573 83.552C141.562 83.7013 141.557 83.84 141.557 83.968C141.557 84.32 141.567 84.6667 141.589 85.008C141.866 84.6773 142.106 84.384 142.309 84.128L142.325 84.112C142.325 84.1013 142.33 84.0853 142.341 84.064C142.362 84.0427 142.378 84.032 142.389 84.032C142.431 83.9787 142.469 83.9253 142.501 83.872C142.597 83.744 142.687 83.6213 142.773 83.504C142.954 83.2373 143.119 82.9813 143.269 82.736C143.365 82.576 143.434 82.448 143.477 82.352C143.487 82.3413 143.498 82.3253 143.509 82.304C143.519 82.2827 143.525 82.2667 143.525 82.256L143.541 82.224C143.541 82.224 143.546 82.224 143.557 82.224C143.535 82.224 143.519 82.224 143.509 82.224C143.423 82.2453 143.365 82.256 143.333 82.256C143.237 82.2773 143.109 82.3147 142.949 82.368C142.949 82.368 142.949 82.3733 142.949 82.384H142.933C142.847 82.4267 142.799 82.4533 142.789 82.464C142.693 82.5067 142.575 82.576 142.437 82.672C142.426 82.6827 142.415 82.688 142.405 82.688C142.351 82.7413 142.309 82.7787 142.277 82.8C142.17 82.896 142.074 82.9973 141.989 83.104C141.978 83.1147 141.967 83.1307 141.957 83.152C141.946 83.1627 141.935 83.168 141.925 83.168L141.941 83.152L141.957 83.136C141.957 83.136 141.919 83.184 141.845 83.28ZM143.509 82.304C143.519 82.2933 143.53 82.272 143.541 82.24C143.53 82.272 143.519 82.2933 143.509 82.304ZM142.693 89.792C142.703 89.8133 142.709 89.8347 142.709 89.856C142.709 89.8347 142.703 89.8133 142.693 89.792ZM144.389 90.048C144.399 90.048 144.415 90.0373 144.437 90.016C144.415 90.0373 144.399 90.048 144.389 90.048ZM145.317 88.24C145.317 88.1547 145.317 88.064 145.317 87.968C145.317 87.8613 145.317 87.7493 145.317 87.632C145.306 87.6107 145.301 87.5787 145.301 87.536C145.301 87.4933 145.301 87.4667 145.301 87.456C145.29 87.4347 145.29 87.4133 145.301 87.392C145.29 87.3387 145.247 87.1787 145.173 86.912C145.119 86.7307 145.082 86.6187 145.061 86.576C145.007 86.48 144.975 86.4267 144.965 86.416C144.954 86.384 144.927 86.3413 144.885 86.288C144.853 86.2347 144.831 86.1973 144.821 86.176L144.789 86.144L144.741 86.08C144.719 86.0587 144.693 86.0373 144.661 86.016C144.661 86.016 144.65 86.0107 144.629 86C144.607 85.9787 144.591 85.968 144.581 85.968C144.559 85.9573 144.527 85.936 144.485 85.904C144.474 85.904 144.463 85.904 144.453 85.904C144.453 85.904 144.442 85.8987 144.421 85.888C144.357 85.8667 144.309 85.856 144.277 85.856C144.277 85.856 144.266 85.856 144.245 85.856C144.223 85.856 144.191 85.856 144.149 85.856C144.117 85.8453 144.09 85.84 144.069 85.84C144.047 85.84 143.994 85.8453 143.909 85.856C143.759 85.888 143.674 85.9093 143.653 85.92C143.642 85.92 143.621 85.9253 143.589 85.936C143.557 85.9467 143.525 85.9573 143.493 85.968C143.471 85.968 143.461 85.968 143.461 85.968C143.407 86 143.327 86.0427 143.221 86.096C143.029 86.2027 142.821 86.336 142.597 86.496C142.586 86.5067 142.565 86.5227 142.533 86.544C142.511 86.5547 142.495 86.5653 142.485 86.576C142.474 86.5867 142.469 86.592 142.469 86.592C142.458 86.6027 142.447 86.608 142.437 86.608C142.437 86.608 142.437 86.6133 142.437 86.624C142.351 86.688 142.261 86.7573 142.165 86.832C142.069 86.9067 141.962 86.9653 141.845 87.008C141.866 87.104 141.887 87.1893 141.909 87.264C142.026 87.84 142.181 88.4 142.373 88.944C142.469 89.2107 142.565 89.472 142.661 89.728C142.671 89.7387 142.682 89.76 142.693 89.792C142.693 89.792 142.693 89.7973 142.693 89.808C142.757 89.9467 142.789 90.0213 142.789 90.032C142.821 90.0853 142.853 90.1547 142.885 90.24C142.927 90.2613 142.949 90.272 142.949 90.272C142.959 90.2827 142.97 90.288 142.981 90.288C143.109 90.3307 143.183 90.352 143.205 90.352C143.215 90.352 143.226 90.3573 143.237 90.368C143.247 90.368 143.253 90.368 143.253 90.368C143.263 90.368 143.279 90.368 143.301 90.368C143.322 90.368 143.338 90.368 143.349 90.368C143.359 90.368 143.407 90.368 143.493 90.368C143.578 90.3573 143.631 90.352 143.653 90.352C143.695 90.352 143.738 90.3467 143.781 90.336C143.834 90.3147 143.919 90.2827 144.037 90.24C144.047 90.24 144.063 90.2347 144.085 90.224C144.117 90.2027 144.154 90.1813 144.197 90.16C144.218 90.1493 144.293 90.1013 144.421 90.016C144.442 90.0053 144.458 90 144.469 90C144.469 89.9893 144.474 89.9787 144.485 89.968C144.495 89.9573 144.506 89.952 144.517 89.952C144.581 89.888 144.645 89.824 144.709 89.76C144.719 89.7493 144.73 89.7387 144.741 89.728C144.762 89.7067 144.773 89.6907 144.773 89.68C144.783 89.68 144.789 89.6747 144.789 89.664C144.874 89.5467 144.927 89.4667 144.949 89.424C144.981 89.36 145.029 89.2693 145.093 89.152C145.093 89.152 145.093 89.1467 145.093 89.136C145.103 89.1253 145.109 89.1093 145.109 89.088C145.119 89.056 145.13 89.0347 145.141 89.024C145.194 88.8533 145.247 88.64 145.301 88.384C145.301 88.3733 145.301 88.3627 145.301 88.352C145.301 88.3413 145.301 88.3253 145.301 88.304C145.301 88.272 145.306 88.2507 145.317 88.24ZM154.906 89.136C155.066 89.296 155.141 89.488 155.13 89.712C155.13 89.936 155.055 90.128 154.906 90.288C154.586 90.6187 154.021 90.9493 153.21 91.28C152.666 91.504 152.095 91.6907 151.498 91.84C151.157 91.9253 150.879 91.9787 150.666 92C150.101 92.0427 149.669 91.84 149.37 91.392C149.242 91.2107 149.119 90.848 149.002 90.304C148.917 89.9733 148.847 89.6053 148.794 89.2C148.751 88.848 148.714 88.4533 148.682 88.016C148.65 87.5787 148.629 87.2427 148.618 87.008C148.607 86.7733 148.597 86.3573 148.586 85.76C148.575 85.1627 148.57 84.8053 148.57 84.688C148.559 84.5067 148.549 84.3147 148.538 84.112C148.527 83.8987 148.511 83.6747 148.49 83.44C148.479 83.1947 148.469 83.0027 148.458 82.864C148.437 82.512 148.501 82.208 148.65 81.952C148.853 81.6107 149.178 81.408 149.626 81.344C149.754 81.3227 149.962 81.2907 150.25 81.248C150.549 81.1947 150.762 81.1573 150.89 81.136C151.029 81.1147 151.242 81.0827 151.53 81.04C151.818 80.9973 152.026 80.9707 152.154 80.96C152.293 80.9493 152.506 80.9333 152.794 80.912C153.093 80.88 153.311 80.8693 153.45 80.88C153.589 80.8907 153.802 80.896 154.09 80.896C154.314 80.9067 154.501 80.9867 154.65 81.136C154.81 81.2853 154.895 81.4773 154.906 81.712C154.917 81.9253 154.837 82.1173 154.666 82.288C154.495 82.4587 154.303 82.5333 154.09 82.512C153.482 82.48 152.741 82.5173 151.866 82.624C151.802 82.6347 151.765 82.64 151.754 82.64C151.754 82.64 151.749 82.64 151.738 82.64C151.706 82.6507 151.658 82.6613 151.594 82.672C151.53 82.672 151.477 82.6773 151.434 82.688C151.285 82.7093 151.109 82.736 150.906 82.768C150.799 82.7893 150.623 82.816 150.378 82.848C150.25 82.8693 150.154 82.8853 150.09 82.896C150.09 82.9493 150.095 83.024 150.106 83.12C150.117 83.2053 150.122 83.264 150.122 83.296C150.165 83.7653 150.191 84.4053 150.202 85.216C150.202 85.28 150.207 85.4507 150.218 85.728C150.399 85.696 150.607 85.664 150.842 85.632C151.077 85.6 151.285 85.5733 151.466 85.552C151.658 85.52 151.866 85.488 152.09 85.456C152.325 85.424 152.538 85.392 152.73 85.36C153.242 85.296 153.573 85.488 153.722 85.936C153.786 86.128 153.759 86.336 153.642 86.56C153.525 86.784 153.365 86.9067 153.162 86.928C152.671 87.0027 151.738 87.136 150.362 87.328C150.33 87.3387 150.293 87.344 150.25 87.344C150.271 87.6533 150.293 87.9413 150.314 88.208C150.325 88.3893 150.341 88.56 150.362 88.72C150.362 88.7413 150.362 88.768 150.362 88.8C150.373 88.832 150.378 88.8533 150.378 88.864C150.378 88.8747 150.378 88.8853 150.378 88.896C150.389 88.9173 150.394 88.9333 150.394 88.944C150.394 88.9867 150.399 89.0187 150.41 89.04C150.463 89.392 150.527 89.7227 150.602 90.032C150.634 90.16 150.661 90.272 150.682 90.368C150.767 90.3467 150.831 90.3307 150.874 90.32C151.077 90.2773 151.285 90.224 151.498 90.16C151.754 90.0853 151.999 90.0053 152.234 89.92C152.362 89.8773 152.485 89.8347 152.602 89.792C152.602 89.7813 152.613 89.776 152.634 89.776C152.719 89.7333 152.767 89.712 152.778 89.712C152.789 89.712 152.794 89.712 152.794 89.712C153.029 89.6053 153.237 89.4987 153.418 89.392C153.45 89.3707 153.493 89.344 153.546 89.312C153.61 89.2693 153.647 89.2427 153.658 89.232C153.658 89.232 153.658 89.2267 153.658 89.216C153.69 89.1947 153.722 89.168 153.754 89.136C153.914 88.976 154.101 88.9013 154.314 88.912C154.538 88.912 154.735 88.9867 154.906 89.136ZM152.762 89.712C152.741 89.7227 152.709 89.7387 152.666 89.76L152.714 89.744C152.735 89.7333 152.751 89.7227 152.762 89.712ZM153.674 89.216C153.685 89.2053 153.69 89.2 153.69 89.2C153.69 89.2107 153.685 89.216 153.674 89.216Z" fill="#2B2C33"/>
</svg>
