<svg width="54" height="54" viewBox="0 0 54 54" fill="none" xmlns="http://www.w3.org/2000/svg">
<path d="M3.7781 29.88C3.7781 22.2118 3.79044 16.6632 3.79044 9.00129C3.79044 7.52149 4.95252 5.43274 5.99842 4.44494C6.59513 3.88138 6.74722 3.44232 7.5 3.33478C8.29709 3.22091 8.73964 2.92213 9.5 2.66868C10.9796 2.17549 12.8289 2.6674 14.5 2.6674C16.3535 2.6674 17.1765 2.26344 19 2.66865C21.2598 3.17083 22.6761 2.66868 25 2.66868H31.3964H34.1965C36.4514 2.66868 38.6804 3.33478 40.9808 3.33478C42.0042 3.33478 42.8128 3.91135 43.8549 3.98854C44.8526 4.06245 46.4345 3.67784 47.2964 4.19824C48.8603 5.14244 49.6957 5.78844 50.3555 7.50405C50.8843 8.87894 50.8489 10.3056 50.8489 11.772V22.2569C50.8489 23.2543 51.1899 24.0174 51.2807 24.9706C51.3606 25.8097 51.1634 26.7087 51.3423 27.5363C51.7275 29.3178 51.515 31.3135 51.515 33.1364C51.515 34.7347 50.9063 36.3151 50.8489 37.9225C50.7889 39.6036 50.6269 41.274 50.6269 42.9799C50.6269 44.3623 50.5617 46.4763 49.6278 47.6179C48.712 48.7372 48.6665 50.6276 46.8524 50.6276C45.5235 50.6276 44.1466 51.0717 42.7448 51.0717C41.5441 51.0717 39.9919 51.0469 38.8469 51.4048C38.0022 51.6687 35.7512 51.9353 34.949 51.6268C33.8593 51.2077 32.5375 51.2937 31.3841 51.2937C30.347 51.2937 29.4485 50.9886 28.436 50.862C24.5141 50.3718 20.4708 51.8277 16.656 50.9607C14.9728 50.5781 12.9625 50.4056 11.2285 50.4056C9.73763 50.4056 7.05651 50.1041 6.31914 48.6293C5.92138 47.8338 5.16256 47.4246 4.9006 46.5077C4.5615 45.3209 4.66623 44.0065 4.66623 42.7332C4.66623 40.8194 3.98749 39.079 3.79044 37.207C3.53986 34.8266 3.7781 32.2745 3.7781 29.88Z" fill="white" stroke="black" stroke-width="2.86" stroke-linecap="round"/>
<path d="M27.0906 10.4922C23.9719 10.7329 20.8963 10.7534 17.7767 10.8268C16.4292 10.8585 15.097 11.0264 13.7433 11.0397C13.1548 11.0455 12.5777 11.1492 11.9852 11.1492C11.4245 11.1492 11.7948 11.5241 11.8453 11.9279C12.201 14.7742 12.1981 17.5882 12.1981 20.4509C12.1981 22.8676 12.0886 25.2676 12.0886 27.6782C12.0886 29.2094 12.1981 30.744 12.1981 32.2834" stroke="black" stroke-width="3" stroke-linecap="round"/>
<path d="M20.7389 21.662C19.9708 21.4425 19.1207 21.662 18.3298 21.662C17.5906 21.662 16.7812 21.5577 16.0667 21.7776C15.0166 22.1007 13.8395 21.9905 12.7451 21.9905" stroke="black" stroke-width="3" stroke-linecap="round"/>
<path d="M30.7041 43.5622C31.8194 40.5913 33.1608 37.8458 34.5732 35.0209C35.1239 33.9197 35.5185 32.7427 35.8264 31.5533C36.1739 30.2114 36.8649 29.1145 37.5542 27.9275C37.7654 27.5638 38.2243 26.3254 38.7587 26.9176C39.3233 27.5433 39.6793 28.6244 40.0606 29.3754C40.6347 30.5063 41.2901 31.5567 41.6605 32.7761C42.2096 34.5835 42.9755 36.3007 43.4674 38.1235C43.8074 39.3838 44.0729 40.6793 44.4468 41.9257C44.7579 42.9628 45.0491 44.122 45.0491 45.2047" stroke="black" stroke-width="3" stroke-linecap="round"/>
<path d="M41.2165 37.2115C39.8841 36.9234 38.506 37.1965 37.1649 37.2115C36.1066 37.2234 35.0476 37.2115 33.9893 37.2115" stroke="black" stroke-width="3" stroke-linecap="round"/>
</svg>
