<svg width="48" height="48" viewBox="0 0 48 48" fill="none" xmlns="http://www.w3.org/2000/svg">
<path d="M18.4209 38V6.5L40.9209 6L39.9209 38H18.4209Z" fill="white"/>
<path d="M42.377 6.88867C42.377 16.6465 42.884 26.2943 42.884 36.0442" stroke="#2B2C33" stroke-width="3" stroke-linecap="round"/>
<path d="M41.6164 6.63477C38.0971 9.43324 34.0981 10.7553 30.2077 12.9166C28.9317 13.6254 28.7586 13.2377 28.4328 14.5C27.2501 19.0829 27.9209 23.7741 27.9209 28.5C27.9209 29.7301 28.433 35.3349 28.433 36.565C28.433 38.0298 28.433 39.4946 28.433 40.9594C28.433 41.7396 28.559 41.4334 29.2077 40.9594C31.9209 40.5 34.4209 39.5 37.4209 39C41.6164 38.3008 41.6547 38.1492 42.4209 37" stroke="#2B2C33" stroke-width="3" stroke-linecap="round"/>
<path d="M41.4139 6.19336C34.9311 6.19336 28.5234 6.46156 22.0439 6.46156C21.0009 6.46156 19.9579 6.46156 18.9149 6.46156C18.1383 6.46156 18.3487 7.20248 18.3487 7.80256C18.3487 8.57736 18.3487 9.35216 18.3487 10.127C18.3487 13.2322 18.4828 16.3467 18.4828 19.4395C18.4828 21.0967 18.6169 22.7325 18.6169 24.4011C18.6169 26.949 18.6169 29.4969 18.6169 32.0448C18.6169 32.9686 18.6169 33.8924 18.6169 34.8162C18.6169 35.472 18.5801 37.41 18.9149 37.975C19.3497 37.975 29.064 38.1947 29.4209 37.975C29.9705 37.6368 29.4509 37.7244 29.9209 37.975" stroke="#2B2C33" stroke-width="3" stroke-linecap="round"/>
<path d="M29.9209 14L42.4209 7V37L28.9209 41L29.9209 14Z" fill="#2B2C33" stroke="#2B2C33"/>
<path d="M24.2493 22.4181C21.0236 22.4181 17.8597 22.1499 14.6388 22.1499C12.0095 22.1499 9.44317 22.4523 6.84608 22.5522C6.63826 22.5602 6.42826 22.5522 6.22028 22.5522C5.77457 22.5522 6.11632 22.4344 6.27988 22.2095C6.94387 21.2965 7.79754 20.4495 8.36588 19.4679C8.67126 18.9404 9.08642 18.5941 9.56533 18.328C10.1348 18.0117 10.7687 17.5246 11.3757 17.3223" stroke="#2B2C33" stroke-width="3" stroke-linecap="round"/>
<path d="M6.9502 23.4922C7.46635 24.4306 8.49282 24.9706 9.03619 25.8762C9.47943 26.6149 9.93037 27.1615 10.7422 27.5524C11.3694 27.8544 11.8273 28.4116 12.4483 28.7221" stroke="#2B2C33" stroke-width="3" stroke-linecap="round"/>
</svg>
