<svg width="1280" height="720" viewBox="0 0 1280 720" fill="none" xmlns="http://www.w3.org/2000/svg">
<path opacity="0.04" d="M79.7903 -199.139C65.5662 -132.844 47.7836 -65.5587 43.8981 2.4662C42.4139 28.4498 44.644 55.4379 56.4235 79.1329C73.7608 114.008 111.233 116.849 145.68 109.842C193.61 100.092 229.378 73.8995 247.568 28.0218C249.449 23.2784 256.653 -1.70151 242.095 2.36104C227.793 6.35191 213.444 16.4462 201.466 24.4461C179.767 38.9383 160.64 55.328 143.575 75.1366C97.5636 128.548 54.5524 192.983 54.1079 266.12C53.8686 305.478 90.6651 351.726 133.05 351.726C146.396 351.726 159.545 351.406 172.626 348.255C196.805 342.431 208.203 331.737 211.992 307.135C214.656 289.831 214.855 271.94 202.413 258.127C194.654 249.513 175.409 263.106 169.468 267.803C111.538 313.599 80.0058 388.847 102.315 460.784C103.293 463.937 106.026 472.319 107.367 469.303C109.826 463.775 100.348 446.377 99.3679 444.483C85.0414 416.809 66.0136 391.389 44.6349 368.763C31.6024 354.97 12.303 335.306 -7.57201 330.692C-20.0363 327.799 -14.8536 360.704 -14.5189 365.818C-11.9428 405.184 -0.381657 447.946 19.1629 482.343C40.0121 519.036 70.9551 557.809 113.893 568.16C148.323 576.459 186.721 573.508 221.044 566.477C230.8 564.478 249.175 555.258 230.306 565.636C136.329 617.319 43.0738 670.904 -46.5166 729.906C-83.9277 754.545 -121.512 779.849 -156.298 808.151C-167.455 817.228 -182.051 828.586 -188.612 842.225C-191.666 848.575 -189.701 852.507 -182.507 852.005C-172.885 851.335 -155.812 846.199 -148.404 844.118C-121.307 836.503 -101.136 830.532 -74.0937 820.245C39.6009 776.994 140.604 706.164 249.463 652.609C299.943 627.774 352.175 600.954 406.294 584.566C429.783 577.453 456.633 572.593 479.973 582.988C504.658 593.983 515.065 620.159 523.338 644.09C537.473 684.98 548.342 730.173 548.599 773.656C548.754 799.791 542.555 831.418 526.706 853.162C508.277 878.447 477.581 883.651 448.396 884.607C405.502 886.012 364.211 876.465 323.773 863.048C276.622 847.403 227.068 829.433 183.678 805.101C147.856 785.013 105.722 756.142 94.9471 713.08C88.0964 685.7 110.219 675.267 132.313 671.959C196.085 662.414 271.723 687.718 305.248 745.471C311.067 755.496 311.892 764.784 315.774 775.128C320.505 787.733 316.259 748.176 315.353 734.744C307.97 625.332 282.852 518.064 259.357 411.25C255.717 394.702 247.075 344.721 248.41 361.612C251.346 398.775 267.094 438.101 279.355 472.668C291.984 508.273 306.025 543.753 324.72 576.678C334.848 594.514 347.474 614.677 365.033 626.422C377.825 634.978 393.645 635.663 408.399 636.413C430.856 637.554 453.296 637.101 475.762 637.57C496.595 638.004 517.614 638.189 536.6 648.087C558.688 659.601 577.52 679.97 589.018 701.932C613.441 748.581 590.111 803.364 550.284 832.97C524.446 852.176 492.763 863.346 462.079 871.777C440.141 877.805 407.563 888.456 385.979 875.037C383.279 873.358 359.924 849.797 367.033 849.797C378.261 849.797 391.254 855.901 400.82 860.314C434.088 875.661 466.284 894.291 496.814 914.475C508.811 922.406 520.998 930.145 532.18 939.189C544.043 948.784 570.334 971.24 556.599 977.89C546.329 982.862 533.785 979.891 522.391 979.257C486.615 977.267 451.306 969.785 415.556 967.373C354.942 963.285 281.298 964.981 225.991 993.876C212.185 1001.09 199.594 1010.55 187.572 1020.38C184.057 1023.25 177.472 1033.4 176.941 1028.9C176.136 1022.06 181.231 1007.96 182.73 1002.5C194.93 958.064 209.531 914.113 225.57 870.935C261.087 775.318 309.265 676.199 394.926 615.064C418.935 597.929 445.069 590.201 474.289 587.931C503.97 585.625 543.383 585.39 570.282 600.761C588.83 611.36 601.765 631.771 611.437 649.874C633.259 690.72 648.337 734.909 663.539 778.494C674.776 810.71 684.227 843.917 698.168 875.142C703.21 886.435 711.549 906.86 726.061 910.373C747.469 915.556 779.017 900.596 796.477 892.389C837.944 872.899 872.284 845.806 907.311 816.774C957.962 774.793 1013.63 726.513 1079.51 710.766C1086.95 708.989 1098.2 706.825 1105.82 709.504C1115.52 712.913 1116.78 729.766 1118.66 737.268C1130.86 785.696 1144.31 833.491 1159.71 881.031C1172.84 921.539 1185.85 963.743 1206.66 1001.24C1221.94 1028.78 1241.53 1057.61 1270.02 1072.75C1272.22 1073.92 1274.38 1074.85 1276.86 1074.85C1286.23 1074.85 1258.13 1074.85 1248.76 1075.06C1196.14 1076.27 1146.09 1083.31 1093.61 1072.75C1039.38 1061.84 989.142 1040.86 940.993 1013.86C897.399 989.41 852.32 960.769 818.265 923.624C784.933 887.268 744.646 810.829 776.584 762.403C791.048 740.472 817.598 724.519 840.368 712.869C875.001 695.151 914.542 686.44 951.729 675.851C987.052 665.792 1022.59 656.779 1058.35 648.402C1087.91 641.479 1118.47 636.175 1147.29 626.422C1169.13 619.035 1189.14 608.238 1198.66 586.459C1205.19 571.504 1208.67 553.931 1210.87 537.871C1216.59 496.198 1217.04 456.21 1172.66 436.596C1139.95 422.137 1103.84 424.663 1069.62 432.073C1007.2 445.589 945.681 471.152 888.786 499.486C817.212 535.129 753.916 579.809 693.221 631.68C640.87 676.42 592.646 725.697 541.126 771.342C538.663 773.525 477.098 830.435 472.605 812.778C458.158 756.004 446.232 698.581 431.766 641.776C414.928 575.658 397.687 509.568 383.558 442.8C375.187 403.241 367.804 363.428 366.823 322.91C366.618 314.47 364.064 287.479 373.243 279.581C382.514 271.605 407.557 277.886 415.767 280.002C464.236 292.493 506.523 321.088 546.705 349.833C616.361 399.664 680.571 456.564 749.638 507.163C800.294 544.273 853.325 577.746 911.732 601.392C946.592 615.506 986.535 627.958 1023.51 614.012C1081.15 592.278 1111.25 539.572 1147.72 494.122C1166.01 471.318 1185.43 449.586 1204.97 427.867C1207.68 424.864 1216.73 416.687 1218.03 411.25C1218.87 407.737 1212.14 403.769 1210.66 402.732C1192.46 390.007 1169.53 382.864 1148.14 378.228C1096.99 367.145 1044.52 362.845 993.41 376.966C929.96 394.496 873.267 432.12 815.107 461.52C770.771 483.932 702.96 520.759 650.908 496.436C635.26 489.124 628.233 473.666 622.91 458.365C613.001 429.882 607.467 399.699 599.543 370.656C581.56 304.743 554.002 238.454 546.284 170.208C545.686 164.917 546.141 160.718 545.652 170.733C543.984 204.908 529.008 233.442 508.287 260.441C428.527 364.362 305.054 429.558 172.415 415.142C125.145 410.004 75.9636 394.516 41.2667 360.139C8.90714 328.079 -5.73945 283.796 -11.1507 239.828C-16.7275 194.515 -14.3023 145.988 -4.20383 101.428C2.62222 71.3087 14.4646 39.6143 39.1616 19.5032C64.0271 -0.745113 98.7347 -10.8683 129.682 -16.569C168.466 -23.7135 207.444 -21.4793 245.884 -13.5192C282.009 -6.0385 318.091 5.83422 345.666 31.5975C372.495 56.6632 389.864 91.4626 403.452 124.881C411.541 144.776 421.644 169.985 423.345 192.082C423.807 198.085 411.426 188.317 407.136 184.09C376.752 154.153 348.154 122.122 319.352 90.7013C277.742 45.3067 235.573 -0.039745 200.098 -50.538C181.746 -76.6612 156.499 -111.765 158.311 -146.345C159.748 -173.766 184.181 -194.325 208.202 -202.715C239.657 -213.7 275.44 -213.105 308.09 -210.812C335.301 -208.902 377.017 -207.182 391.558 -177.685C409.273 -141.748 394.877 -91.3462 380.611 -57.7945C359.715 -8.64849 326.053 35.1286 285.039 69.2472C262.228 88.2232 234.327 104.764 204.834 110.368C201.593 110.983 188.066 114.054 187.783 106.056C187.261 91.331 194.889 71.7436 199.992 59.046C215.941 19.3648 240.426 -14.942 270.724 -45.1744C370.358 -144.593 505.072 -193.693 642.909 -211.969C700.845 -219.651 750.125 -213.019 803.318 -189.674C838.661 -174.163 876.717 -153.948 899.733 -121.526C921.323 -91.111 930.555 -49.4162 938.467 -14.045C953.79 54.4553 963.666 123.998 975.517 193.134C978.6 211.119 981.621 256.134 994.358 274.849C1000.71 284.186 1001.8 253.209 1002.36 241.931C1008.54 116.851 990.122 -8.44351 982.674 -133.094C978.974 -195.02 979.345 -257.139 975.306 -319.029C972.993 -354.49 968.14 -388.235 956.676 -421.883C956.56 -422.223 940.959 -469.824 934.257 -467.946C931.05 -467.047 931.742 -461.687 931.415 -458.376C929.877 -442.838 930.467 -381.104 930.467 -375.925C930.467 -214.171 929.383 -50.7726 981.832 104.373C1000.78 160.415 1026.79 211.425 1056.77 262.124C1063.71 273.853 1078.47 291.783 1080.77 306.714C1082.22 316.14 1061.32 309.771 1052.14 307.135C987.886 288.667 927.686 257.509 869.945 224.474C804.759 187.179 739.08 145.703 686.485 91.3323C655.746 59.5565 625.725 19.5138 611.648 -22.9842C604.664 -44.0671 603.48 -69.4592 609.648 -91.0273C617.796 -119.523 647.15 -127.474 673.433 -130.991C713.05 -136.291 754.318 -132.875 793.53 -126.574C853.738 -116.899 913.855 -100.76 970.465 -77.9866C1021.67 -57.386 1066.39 -27.9164 1112.45 1.83518C1142.11 20.9903 1172.83 42.813 1206.87 53.8929C1316.34 89.5305 1303.26 -59.7112 1280.34 -121.315C1274.35 -137.407 1250.29 -196.484 1228.55 -164.013C1207.2 -132.117 1192.2 -93.7083 1179.71 -57.8997C1153.18 18.175 1133.54 97.6736 1121.61 177.359C1106.93 275.42 1106.64 384.336 1173.4 464.465C1197.37 493.233 1226.82 519.258 1256.76 541.658C1273.5 554.183 1292.69 567.476 1313.91 570.789C1331.82 573.584 1319.97 568.976 1308.34 565.951C1174.36 531.099 1042.06 490.32 911.837 443.326C794.065 400.824 676.812 355.384 564.598 299.563C494.193 264.539 412.069 224.941 356.823 166.737C306.185 113.386 285.721 9.71988 339.14 -48.7501C362.237 -74.03 394.105 -85.4926 426.503 -93.5513C470.865 -104.586 517.143 -109.957 562.809 -109.957C629.742 -109.957 700.136 -102.237 764.795 -84.7173C856.979 -59.7393 937.196 -14.565 1011.2 45.2692C1220.77 214.716 1329.21 467.067 1416.01 715.078C1450.58 813.856 1478.59 914.92 1516.32 1012.6C1527.88 1042.52 1545.05 1071.15 1555.69 1101.36C1557.49 1106.49 1551 1105.13 1548.53 1103.67C1533.05 1094.5 1519.5 1079.04 1506.95 1066.86C1467.68 1028.72 1428.24 990.921 1387.49 954.333C1356.12 926.167 1323.15 899.488 1293.39 869.568C1285.64 861.778 1276.92 852.744 1270.86 843.276C1269.47 841.095 1269.68 838.514 1268.86 836.125C1264.23 822.566 1255.36 809.994 1248.34 797.634C1233.79 771.995 1220.34 745.051 1203.4 720.862C1195.15 709.096 1207.61 749.374 1211.71 763.139C1215.77 776.776 1220.75 788.975 1235.5 793.217C1241.2 794.856 1252.22 793.704 1254.44 800.368" stroke="#2B2C33" stroke-width="3" stroke-linecap="round"/>
</svg>
