<svg width="24" height="24" viewBox="0 0 24 24" fill="none" xmlns="http://www.w3.org/2000/svg">
<g opacity="0.6">
<path d="M11.3944 6.28539C10.2859 6.33694 7.17291 7.0232 8.20756 8.88557C8.42604 9.27883 8.84983 10.2374 9.3491 10.2808C10.3689 10.3695 11.4372 10.2309 12.4249 9.9954C13.3471 9.77554 16.3925 8.92441 14.9934 7.45864C13.9637 6.37988 13.0019 6 11.5371 6" stroke="#2B2C33" stroke-width="1.21596" stroke-linecap="round"/>
<path d="M11.5379 11.707C12.1322 12.5243 12.0028 14.2054 11.9659 15.1634C11.9535 15.4864 11.7446 15.3768 11.5062 15.4805C10.7795 15.7964 10.0239 16.3648 9.34198 16.7806C8.72529 17.1566 7.92819 17.753 9.11208 17.4148" stroke="#2B2C33" stroke-width="1.21596" stroke-linecap="round"/>
<path d="M12.9629 15.5605C13.8341 15.6912 14.5683 17.0399 15.1826 17.6375C15.5839 18.028 15.8514 18.449 16.2448 18.8425" stroke="#2B2C33" stroke-width="1.21596" stroke-linecap="round"/>
<path d="M15.5331 12.1362C15.2325 12.2865 13.5607 11.4942 13.25 11.2008C12.7521 10.7306 11.903 10.852 11.284 10.852C10.4586 10.852 10.4425 11.6866 9.82537 12.1838C9.34157 12.5735 8.84215 12.834 8.39844 13.2778" stroke="#2B2C33" stroke-width="1.21596" stroke-linecap="round"/>
</g>
</svg>
