<svg width="54" height="54" viewBox="0 0 54 54" fill="none" xmlns="http://www.w3.org/2000/svg">
<g clip-path="url(#clip0_542_1906)">
<path d="M23.0285 3.07865C23.7903 2.92072 24.5866 2.90543 25.3826 2.93866C27.0669 2.65707 28.2521 2.77076 29.8797 3.14068C30.5506 3.29315 31.1223 3.20536 31.8096 3.45085C32.8601 3.82602 33.8988 4.2818 34.9389 4.69151L34.9538 4.69739C35.7981 5.02999 36.8266 5.43512 37.3306 6.20787C38.0342 7.28678 38.2569 8.37253 38.6953 9.55075C38.9877 10.3367 39.4225 11.0302 39.6809 11.846C40.0122 12.8916 40.271 13.9333 40.508 15.0028C41.0474 17.4361 41.5798 19.866 42.1347 22.2951C43.0799 26.433 43.1018 30.7663 42.8929 34.998C42.8005 36.8688 42.3993 38.7598 42.0106 40.5879C41.6652 42.2125 41.3693 43.9057 40.3978 45.3024C38.5082 48.0187 34.3914 48.2386 31.4374 48.2386C28.3997 48.2386 25.3102 48.6793 22.3117 47.9905C21.438 47.7897 20.5954 47.5688 19.6994 47.4873L19.6958 47.487C18.6897 47.3955 17.6186 47.2981 16.7219 46.8049C14.652 45.6665 12.2787 45.0745 11.0769 42.8211C8.17391 37.378 8.03995 30.7874 9.21589 24.8039C9.80043 21.8297 10.2505 18.7739 11.0769 15.8574C11.2834 15.1286 11.4492 14.3323 11.5042 13.576C11.5331 13.1788 11.464 12.7578 11.5731 12.3698C11.8156 11.5078 12.18 10.6322 12.5794 9.83334C13.1669 8.65841 13.4871 7.6884 14.468 6.73859C15.6338 5.60985 17.1893 4.66949 18.7414 4.19524C20.1833 3.75466 21.5562 3.38389 23.0285 3.07865Z" fill="white"/>
<path d="M27.5225 3.07865C26.0597 2.99506 24.4813 2.77746 23.0285 3.07865C21.5562 3.38389 20.1833 3.75466 18.7414 4.19524C17.1893 4.66949 15.6338 5.60985 14.468 6.73859C13.4871 7.6884 13.1669 8.65841 12.5794 9.83334C12.18 10.6322 11.8156 11.5078 11.5731 12.3698C11.464 12.7578 11.5331 13.1788 11.5042 13.576C11.4492 14.3323 11.2834 15.1286 11.0769 15.8574C10.2505 18.7739 9.80043 21.8297 9.21589 24.8039C8.03995 30.7874 8.17391 37.378 11.0769 42.8211C12.2787 45.0745 14.652 45.6665 16.7219 46.8049C17.6196 47.2987 18.6922 47.3957 19.6994 47.4873C20.5954 47.5688 21.438 47.7897 22.3117 47.9905C25.3102 48.6793 28.3997 48.2386 31.4374 48.2386C34.3914 48.2386 38.5082 48.0187 40.3978 45.3024C41.3693 43.9057 41.6652 42.2125 42.0106 40.5879C42.3993 38.7598 42.8005 36.8688 42.8929 34.998C43.1018 30.7663 43.0799 26.433 42.1347 22.2951C41.5798 19.866 41.0474 17.4361 40.508 15.0028C40.271 13.9333 40.0122 12.8916 39.6809 11.846C39.4225 11.0302 38.9877 10.3367 38.6953 9.55075C38.2569 8.37253 38.0342 7.28678 37.3306 6.20787C36.8236 5.43056 35.786 5.02521 34.9389 4.69151C33.8988 4.2818 32.8601 3.82602 31.8096 3.45085C31.1223 3.20536 30.5506 3.29315 29.8797 3.14068C28.2222 2.76396 27.0235 2.65298 25.2893 2.95458" stroke="black" stroke-width="2.89635" stroke-linecap="round"/>
<path d="M41.8091 25.1973C36.9268 25.6182 32.0371 25.5614 27.1631 25.9079C23.7053 26.1538 20.252 26.1627 16.7898 26.1627C14.5096 26.1627 12.2294 26.1627 9.94922 26.1627" stroke="black" stroke-width="2.89635" stroke-linecap="round"/>
<path d="M25.4153 7.76367C23.316 8.8798 21.1606 10.0916 19.2852 11.4981" stroke="black" stroke-width="2.76119" stroke-linecap="round"/>
<path d="M31.6154 12.4119C31.152 11.844 30.5714 10.8447 29.8147 10.5838C29.4288 10.4508 29.0028 10.2905 28.6364 10.1141C28.4119 10.006 28.2489 9.79307 28.0062 9.67955C27.6712 9.52289 27.3482 9.26958 27.0354 9.06888C26.4998 8.7253 26.3129 7.90234 25.5557 7.90234" stroke="black" stroke-width="2.76119" stroke-linecap="round"/>
<path d="M25.5558 8.32617C25.7269 10.2936 25.4854 12.244 25.4854 14.2136C25.4854 15.8565 25.4854 17.4993 25.4854 19.1421C25.4854 20.1891 25.6263 21.1632 25.6263 22.2071" stroke="black" stroke-width="2.76119" stroke-linecap="round"/>
<path d="M25.9086 22.3482C25.3346 22.0983 24.8356 21.662 24.2566 21.4479C23.6699 21.2309 23.0991 21.0624 22.5264 20.7981C22.1515 20.625 21.7389 20.3981 21.4303 20.1248C21.0505 19.7883 20.5614 19.6786 20.2012 19.3184" stroke="black" stroke-width="2.76119" stroke-linecap="round"/>
<path d="M26.3311 22.5605C28.1034 21.5966 30.0189 20.9922 31.6 19.7185C31.8993 19.4775 32.1963 19.0642 32.5317 18.8965" stroke="black" stroke-width="2.76119" stroke-linecap="round"/>
<path d="M27.0215 48.6172C27.587 51.9476 28.1011 55.8547 29.9958 58.6968" stroke="black" stroke-width="2.76119" stroke-linecap="round"/>
</g>
<defs>
<clipPath id="clip0_542_1906">
<rect width="54" height="54" fill="white"/>
</clipPath>
</defs>
</svg>
