<svg width="54" height="54" viewBox="0 0 54 54" fill="none" xmlns="http://www.w3.org/2000/svg">
<path d="M3.7781 29.88C3.7781 22.2118 3.79044 16.6632 3.79044 9.00129C3.79044 7.52149 4.95252 5.43274 5.99842 4.44494C6.59513 3.88138 6.74722 3.44232 7.5 3.33478C8.29709 3.22091 8.73964 2.92213 9.5 2.66868C10.9796 2.17549 12.8289 2.6674 14.5 2.6674C16.3535 2.6674 17.1765 2.26344 19 2.66865C21.2598 3.17083 22.6761 2.66868 25 2.66868H31.3964H34.1965C36.4514 2.66868 38.6804 3.33478 40.9808 3.33478C42.0042 3.33478 42.8128 3.91135 43.8549 3.98854C44.8526 4.06245 46.4345 3.67784 47.2964 4.19824C48.8603 5.14244 49.6957 5.78844 50.3555 7.50405C50.8843 8.87894 50.8489 10.3056 50.8489 11.772V22.2569C50.8489 23.2543 51.1899 24.0174 51.2807 24.9706C51.3606 25.8097 51.1634 26.7087 51.3423 27.5363C51.7275 29.3178 51.515 31.3135 51.515 33.1364C51.515 34.7347 50.9063 36.3151 50.8489 37.9225C50.7889 39.6036 50.6269 41.274 50.6269 42.9799C50.6269 44.3623 50.5617 46.4763 49.6278 47.6179C48.712 48.7372 48.6665 50.6276 46.8524 50.6276C45.5235 50.6276 44.1466 51.0717 42.7448 51.0717C41.5441 51.0717 39.9919 51.0469 38.8469 51.4048C38.0022 51.6687 35.7512 51.9353 34.949 51.6268C33.8593 51.2077 32.5375 51.2937 31.3841 51.2937C30.347 51.2937 29.4485 50.9886 28.436 50.862C24.5141 50.3718 20.4708 51.8277 16.656 50.9607C14.9728 50.5781 12.9625 50.4056 11.2285 50.4056C9.73763 50.4056 7.05651 50.1041 6.31914 48.6293C5.92138 47.8338 5.16256 47.4246 4.9006 46.5077C4.5615 45.3209 4.66623 44.0065 4.66623 42.7332C4.66623 40.8194 3.98749 39.079 3.79044 37.207C3.53986 34.8266 3.7781 32.2745 3.7781 29.88Z" fill="white" stroke="black" stroke-width="2.86" stroke-linecap="round"/>
<path d="M21.2796 12.421C21.4558 11.5985 20.705 10.6586 20.0385 10.2397C19.4102 9.84477 18.6391 9.30829 17.876 9.26813C17.0233 9.22325 16.3025 9.23541 15.4754 9.06128C14.7974 8.91855 13.5678 9.87216 13.1562 10.34C12.4365 11.1578 11.7364 11.603 11.4638 12.7093C11.2352 13.637 11.4173 14.525 11.865 15.3607C13.072 17.6138 15.5851 18.3202 17.5626 19.7045C18.0468 20.0434 18.617 20.1734 19.1046 20.4942C19.444 20.7176 19.6173 21.0855 19.8693 21.3906C20.1735 21.7588 20.2951 22.2214 20.5462 22.6254C20.7778 22.998 21.0759 23.4454 21.1417 23.8915C21.2112 24.3627 21.1723 24.8711 21.1668 25.3457C21.1594 25.9822 20.9197 26.2039 20.5525 26.6871C19.9217 27.5171 18.7894 27.9016 17.8698 28.2917C17.1392 28.6017 16.3296 29.0063 15.513 29.0063C14.6229 29.0063 13.7328 29.0063 12.8428 29.0063C11.6566 29.0063 10.943 28.5086 9.99707 27.878" stroke="black" stroke-width="3" stroke-linecap="round"/>
<path d="M34.0289 32.166C34.0289 33.6109 34.0034 35.0587 34.0289 36.5035C34.0381 37.0219 34.2759 37.4417 34.3674 37.9452C34.6329 39.4053 34.4802 40.979 34.4802 42.4582C34.4802 43.6298 34.3674 44.7691 34.3674 45.9307" stroke="black" stroke-width="3" stroke-linecap="round"/>
<path d="M35.5 46.5C37.3732 45.9085 40.5297 45.4466 40.6784 43.2162C40.7695 41.8501 40.4774 40.9168 39.243 40.1386C38.6234 39.7479 37.8329 39.6591 37.1871 39.3362C36.8866 39.186 36.6057 39.1902 36.2845 39.1545C35.8906 39.1107 35.5478 38.8223 35.1562 38.8223" stroke="black" stroke-width="3" stroke-linecap="round"/>
<path d="M45.1982 32.2793C45.2892 34.9973 45.2268 37.7181 45.3173 40.4341C45.3566 41.6122 45.5183 42.7995 45.3675 43.9755C45.2575 44.8337 45.1982 45.6302 45.1982 46.4953" stroke="black" stroke-width="3" stroke-linecap="round"/>
</svg>
