<svg width="54" height="54" viewBox="0 0 54 54" fill="none" xmlns="http://www.w3.org/2000/svg">
<path d="M3.7781 29.88C3.7781 22.2118 3.79044 16.6632 3.79044 9.00129C3.79044 7.52149 4.95252 5.43274 5.99842 4.44494C6.59513 3.88138 6.74722 3.44232 7.5 3.33478C8.29709 3.22091 8.73964 2.92213 9.5 2.66868C10.9796 2.17549 12.8289 2.6674 14.5 2.6674C16.3535 2.6674 17.1765 2.26344 19 2.66865C21.2598 3.17083 22.6761 2.66868 25 2.66868H31.3964H34.1965C36.4514 2.66868 38.6804 3.33478 40.9808 3.33478C42.0042 3.33478 42.8128 3.91135 43.8549 3.98854C44.8526 4.06245 46.4345 3.67784 47.2964 4.19824C48.8603 5.14244 49.6957 5.78844 50.3555 7.50405C50.8843 8.87894 50.8489 10.3056 50.8489 11.772V22.2569C50.8489 23.2543 51.1899 24.0174 51.2807 24.9706C51.3606 25.8097 51.1634 26.7087 51.3423 27.5363C51.7275 29.3178 51.515 31.3135 51.515 33.1364C51.515 34.7347 50.9063 36.3151 50.8489 37.9225C50.7889 39.6036 50.6269 41.274 50.6269 42.9799C50.6269 44.3623 50.5617 46.4763 49.6278 47.6179C48.712 48.7372 48.6665 50.6276 46.8524 50.6276C45.5235 50.6276 44.1466 51.0717 42.7448 51.0717C41.5441 51.0717 39.9919 51.0469 38.8469 51.4048C38.0022 51.6687 35.7512 51.9353 34.949 51.6268C33.8593 51.2077 32.5375 51.2937 31.3841 51.2937C30.347 51.2937 29.4485 50.9886 28.436 50.862C24.5141 50.3718 20.4708 51.8277 16.656 50.9607C14.9728 50.5781 12.9625 50.4056 11.2285 50.4056C9.73763 50.4056 7.05651 50.1041 6.31914 48.6293C5.92138 47.8338 5.16256 47.4246 4.9006 46.5077C4.5615 45.3209 4.66623 44.0065 4.66623 42.7332C4.66623 40.8194 3.98749 39.079 3.79044 37.207C3.53986 34.8266 3.7781 32.2745 3.7781 29.88Z" fill="white" stroke="black" stroke-width="2.9" stroke-linecap="round"/>
<path d="M8.36035 9.88359C8.93616 11.8392 9.51997 13.7183 9.94631 15.7079C10.2559 17.1528 10.8159 18.5225 11.1385 19.9681C11.3611 20.9655 11.6241 22.1748 12.019 23.1126C12.4193 24.0634 13.1125 24.8743 13.6104 25.7705C13.7299 25.9856 13.7929 26.2518 13.9495 26.4431C13.9881 26.4904 14.0636 26.2154 14.1135 26.1478C14.4734 25.6609 14.7172 25.1202 15.0542 24.6166C15.5191 23.9219 16.1546 23.3637 16.6511 22.6915C16.7822 22.514 18.8351 19.2222 19.0519 19.3556C19.3569 19.5433 19.4892 20.0454 19.648 20.34C19.9741 20.9449 20.3058 21.5618 20.687 22.1337C20.9898 22.5879 21.2276 23.066 21.4964 23.5392C21.6701 23.8448 21.9399 24.03 22.1417 24.3103C22.7084 25.0974 23.0967 26.1512 23.7824 26.8369C24.253 27.3075 24.3349 26.6549 24.4605 26.2025C24.7381 25.2034 25.179 24.259 25.423 23.2494C25.716 22.0371 25.8166 20.7945 26.1777 19.5962C26.7827 17.5888 27.916 15.7811 28.8684 13.9305C29.5692 12.5688 30.2244 11.142 30.9028 9.78516" stroke="black" stroke-width="2.89" stroke-linecap="round"/>
<path d="M31.1421 29C30.9674 31.7574 30.8595 34.5608 31.37 37.2839C31.4803 37.8719 31.939 38.3807 31.9626 38.9703C31.9716 39.1952 32.1946 39.3125 32.3272 39.4717C32.8316 40.077 33.397 40.1879 34.1731 40.2807C35.8628 40.4826 37.4996 40.6126 39.1981 40.5883C39.8531 40.579 40.3491 40.4315 40.8162 39.9502C41.4973 39.2484 42.3343 38.1871 42.5197 37.1984C42.6975 36.2502 42.6279 35.2573 42.6279 34.2985C42.6279 32.7716 42.6279 31.2447 42.6279 29.7179" stroke="black" stroke-width="2.86" stroke-linecap="round"/>
<path d="M45.2939 44.5886C45.1685 43.6954 45.0888 42.8575 45.0888 41.9622C45.0888 41.7928 45.242 40.6927 45.1685 40.6119C44.9645 40.3874 43.6145 40.5891 43.2941 40.5891C42.7966 40.5891 42.299 40.5891 41.8014 40.5891C41.1026 40.5891 40.4037 40.5891 39.7048 40.5891C39.0724 40.5891 38.4602 40.8968 37.8076 40.8968" stroke="black" stroke-width="2.86" stroke-linecap="round"/>
</svg>
