<svg width="41" height="33" viewBox="0 0 41 33" fill="none" xmlns="http://www.w3.org/2000/svg">
<path d="M7.18833 23.9221C7.80811 23.9784 8.05696 24.4618 8.10391 24.6965L9.86464 23.9221L11.2732 27.583L13.3157 29.1319C14.2547 29.6247 16.161 30.6807 16.2737 30.9623C16.4146 31.3143 23.4575 31.7367 23.6688 31.7367C23.8378 31.7367 26.0399 31.2204 27.1198 30.9623C27.6833 30.5868 28.8665 29.7936 29.0919 29.6247C29.3736 29.4135 29.7962 27.8646 29.937 27.583C30.0779 27.3014 30.0779 26.3158 30.1483 26.1046C30.2046 25.9356 30.97 25.471 31.3456 25.2598C31.7917 24.9547 32.7119 24.3023 32.8246 24.1334C32.9655 23.9222 33.6698 23.6406 33.9515 23.4293C34.1769 23.2604 34.7966 23.3589 35.0784 23.4293C35.407 23.0773 36.1066 22.317 36.2757 22.0917C36.4447 21.8664 37.473 21.4816 37.966 21.3173H39.7267C39.9615 21.0592 40.431 20.4866 40.431 20.2613C40.431 20.036 40.2432 19.4165 40.1493 19.1349L39.3041 17.1636L38.3885 15.4036C38.3181 15.2628 38.2195 14.9812 38.3885 14.9812C38.5576 14.9812 39.0694 14.4649 39.3041 14.2068L38.5998 13.6436L36.2757 11.3203L34.6558 10.2643L33.3881 9.27868C32.9185 8.71547 31.9513 7.58905 31.8386 7.58905C31.6977 7.58905 31.416 6.18102 31.3456 6.18102C31.2893 6.18102 30.8056 5.24234 30.5709 4.773H28.8101L26.5564 4.20979L25.993 3.08336L28.3171 1.32333L27.472 0.478516H24.0914L20.3586 2.09775L14.9356 1.32333H13.034L14.1608 3.08336L13.5974 3.64658L11.2732 4.773L7.18833 6.18102L8.10391 7.58905L6.62489 8.15226L5.35716 9.27868L4.51201 10.4755L5.35716 11.0387V11.6019L4.51201 13.01V13.8548L2.89214 16.178L0.21582 19.8389L2.3287 19.2757L3.45557 20.3317L1.20183 25.2598L2.89214 24.6965C4.06596 24.4149 6.56855 23.8657 7.18833 23.9221Z" fill="white"/>
<path d="M24.0554 0.0374457C23.8729 0.0592849 23.7781 0.102963 23.7781 0.175761C23.7781 0.248559 23.6759 0.277678 23.3548 0.277678C23.0265 0.277678 22.9097 0.306797 22.8075 0.423273C22.72 0.525189 22.5959 0.568868 22.3916 0.568868C22.1872 0.568868 22.0997 0.597987 22.0997 0.670784C22.0997 0.736302 21.9902 0.79454 21.8078 0.823659C21.6253 0.852778 21.5159 0.911016 21.5159 0.976534C21.5159 1.04205 21.4356 1.07845 21.2605 1.07845C21.0999 1.07845 20.9832 1.12213 20.9394 1.20221C20.8737 1.3114 20.8518 1.31868 20.7934 1.23133C20.757 1.18037 20.5599 1.11485 20.3556 1.09301C20.0126 1.06389 19.9834 1.07117 19.9834 1.21677C19.9834 1.35508 19.9396 1.36964 19.5821 1.36964C19.2829 1.36964 19.1734 1.34052 19.115 1.23861C19.0567 1.13669 18.918 1.10757 18.2758 1.09301C17.7139 1.07117 17.5023 1.04205 17.5023 0.976534C17.5023 0.881897 16.4588 0.78726 15.4809 0.78726C15.189 0.78726 15.0942 0.758141 15.0942 0.678064C15.0942 0.583427 14.9263 0.568868 13.9996 0.568868C13.102 0.568868 12.9049 0.590707 12.9049 0.670784C12.9049 0.729022 12.8101 0.79454 12.6933 0.823659C12.5182 0.860058 12.4671 0.918296 12.4087 1.17309C12.3211 1.52252 12.3722 1.87194 12.5109 1.93018C12.5693 1.95202 12.613 2.01026 12.613 2.0685C12.613 2.12673 12.6787 2.17041 12.759 2.17041C12.8466 2.17041 12.9049 2.22137 12.9049 2.28689C12.9049 2.35241 12.9706 2.41793 13.0509 2.43976C13.1604 2.46888 13.1968 2.54168 13.1968 2.72367C13.1968 2.89111 13.1604 2.97119 13.0947 2.97119C13.029 2.97119 12.9706 3.08038 12.9414 3.26238C12.9122 3.44437 12.8539 3.55357 12.7882 3.55357C12.7298 3.55357 12.686 3.60452 12.686 3.66276C12.686 3.721 12.6203 3.77196 12.5474 3.77196C12.3284 3.77196 12.1752 3.85204 12.1752 3.96123C12.1752 4.03403 12.0876 4.06315 11.8833 4.06315C11.679 4.06315 11.5914 4.09227 11.5914 4.17235C11.5914 4.23058 11.4892 4.2961 11.336 4.32522C11.19 4.34706 11.0806 4.41258 11.0806 4.47082C11.0806 4.54361 10.9857 4.57273 10.7887 4.57273C10.5479 4.57273 10.4968 4.59457 10.4968 4.71833C10.4968 4.84936 10.4457 4.86392 10.0954 4.86392C9.80354 4.86392 9.69408 4.89304 9.69408 4.96584C9.69408 5.08231 9.47516 5.15511 9.13218 5.15511C8.96434 5.15511 8.89136 5.19151 8.89136 5.26431C8.89136 5.32983 8.82569 5.37351 8.71623 5.37351C8.38784 5.37351 8.08865 5.46814 8.08865 5.56278C8.08865 5.6283 8.00108 5.6647 7.84054 5.6647C7.6581 5.6647 7.58513 5.70109 7.55594 5.81029C7.52675 5.91949 7.45377 5.95589 7.25674 5.95589C7.08161 5.95589 6.99404 5.99228 6.99404 6.0578C6.99404 6.12332 6.88458 6.18156 6.70214 6.21068C6.51971 6.2398 6.41025 6.29803 6.41025 6.36355C6.41025 6.42907 6.32268 6.46547 6.15484 6.46547C5.95051 6.46547 5.89943 6.49459 5.89943 6.61106C5.89943 6.72754 5.84834 6.75666 5.64402 6.75666C5.47618 6.75666 5.38861 6.79306 5.38861 6.85857C5.38861 6.90953 5.32293 6.97505 5.24266 6.99689C5.16239 7.01873 5.09671 7.08425 5.09671 7.14977C5.09671 7.21528 5.04563 7.26624 4.98725 7.26624C4.90698 7.26624 4.87779 7.34632 4.87779 7.55743C4.87779 7.76854 4.90698 7.84862 4.98725 7.84862C5.04563 7.84862 5.09671 7.8923 5.09671 7.95054C5.09671 8.02334 5.19158 8.06701 5.36672 8.08157C5.56375 8.09613 5.65131 8.13981 5.66591 8.22717C5.6805 8.32181 5.64402 8.3582 5.54185 8.3582C5.43969 8.3582 5.38861 8.40188 5.38861 8.5038C5.38861 8.59844 5.33753 8.64939 5.24266 8.64939C5.16239 8.64939 5.09671 8.69307 5.09671 8.75131C5.09671 8.80227 5.03103 8.86779 4.95076 8.88963C4.87049 8.91147 4.80481 8.97698 4.80481 9.0425C4.80481 9.10802 4.75373 9.15898 4.69535 9.15898C4.63697 9.15898 4.58589 9.22449 4.58589 9.30457C4.58589 9.39921 4.53481 9.45017 4.43994 9.45017C4.34508 9.45017 4.294 9.50113 4.294 9.59576C4.294 9.67584 4.25021 9.74136 4.19183 9.74136C4.11886 9.74136 4.07507 9.88695 4.03859 10.2291C3.9948 10.6295 4.0094 10.7314 4.10426 10.8042C4.16994 10.8479 4.22102 10.9207 4.22102 10.9716C4.22102 11.0153 4.30129 11.0517 4.39616 11.0517C4.52751 11.0517 4.5786 11.1027 4.60778 11.2628C4.65887 11.5031 4.52022 11.8525 4.38886 11.8525C4.33778 11.8525 4.294 11.8962 4.294 11.9544C4.294 12.0054 4.22832 12.0709 4.14805 12.0927C4.06048 12.1146 4.0021 12.1946 4.0021 12.282C4.0021 12.3693 3.95832 12.4349 3.89264 12.4349C3.83426 12.4349 3.78318 12.4858 3.78318 12.5441C3.78318 12.595 3.7248 12.6751 3.65912 12.7188C3.46939 12.8207 3.41831 13.9418 3.59344 14.0073C3.73939 14.0655 3.74669 14.2257 3.60074 14.2839C3.54236 14.3058 3.49128 14.3713 3.49128 14.4368C3.49128 14.495 3.4402 14.546 3.38182 14.546C3.32344 14.546 3.27236 14.597 3.27236 14.6625C3.27236 14.728 3.20668 14.7935 3.12641 14.8153C3.04614 14.8372 2.98046 14.9027 2.98046 14.9609C2.98046 15.0192 2.91479 15.0847 2.83451 15.1065C2.75424 15.1284 2.68857 15.1939 2.68857 15.2449C2.68857 15.3031 2.63748 15.3468 2.5791 15.3468C2.52073 15.3468 2.46964 15.4123 2.46964 15.4924C2.46964 15.587 2.41856 15.638 2.33099 15.638C2.23613 15.638 2.17775 15.7108 2.14856 15.8855C2.11937 16.0456 2.05369 16.1475 1.95882 16.1694C1.87855 16.1912 1.81288 16.2567 1.81288 16.3223C1.81288 16.3878 1.76179 16.4387 1.70342 16.4387C1.64504 16.4387 1.59395 16.4897 1.59395 16.5479C1.59395 16.6134 1.54287 16.679 1.48449 16.7008C1.42611 16.7299 1.37503 16.7954 1.37503 16.8537C1.37503 16.9119 1.30936 16.9774 1.22908 16.9993C1.13422 17.0211 1.06854 17.123 1.03935 17.2832C1.01746 17.4215 0.951782 17.5307 0.893403 17.5307C0.835024 17.5307 0.791239 17.5962 0.791239 17.6763C0.791239 17.7564 0.740157 17.8219 0.681778 17.8219C0.623399 17.8219 0.557722 17.9238 0.528532 18.0767C0.50664 18.215 0.440963 18.3315 0.389882 18.3315C0.3388 18.3315 0.28042 18.4771 0.258528 18.71C0.229339 18.9211 0.178257 19.1031 0.134472 19.1177C0.0323084 19.1541 -0.0333683 19.6054 0.0177136 19.8966C0.0542007 20.0859 0.11258 20.1587 0.243933 20.1951C0.346097 20.2169 0.426369 20.2824 0.426369 20.3407C0.426369 20.4135 0.53583 20.4426 0.864213 20.4426C1.20719 20.4426 1.30206 20.4208 1.30206 20.3334C1.30206 20.246 1.42611 20.2242 1.95882 20.2242C2.49154 20.2242 2.61559 20.246 2.61559 20.3334C2.61559 20.3916 2.5864 20.4426 2.54992 20.4426C2.51343 20.4426 2.46235 20.5736 2.43316 20.7338C2.40397 20.9085 2.34559 21.025 2.28721 21.025C2.22883 21.025 2.16315 21.1342 2.13396 21.2798C2.11207 21.4254 2.04639 21.5346 1.98801 21.5346C1.92964 21.5346 1.88585 21.6001 1.88585 21.6802C1.88585 21.7602 1.84207 21.8257 1.78369 21.8257C1.72531 21.8257 1.65963 21.9349 1.63774 22.0878C1.60855 22.2261 1.54287 22.3572 1.48449 22.379C1.42611 22.4008 1.36044 22.5319 1.33125 22.6702C1.30936 22.8085 1.24368 22.9177 1.1926 22.9177C1.14151 22.9177 1.08314 23.0633 1.06124 23.2963C1.03205 23.5001 0.980972 23.6894 0.937187 23.7185C0.813131 23.7913 0.718265 24.643 0.769347 25.1526C0.805834 25.5384 0.835024 25.6112 0.944485 25.6112C1.02476 25.6112 1.08314 25.6622 1.08314 25.7204C1.08314 25.8078 1.20719 25.8296 1.7399 25.8296C2.27261 25.8296 2.39667 25.8078 2.39667 25.7204C2.39667 25.6331 2.49883 25.6112 2.89289 25.6112C3.47669 25.6112 3.7102 25.553 3.7102 25.4219C3.7102 25.3491 3.79777 25.32 3.9948 25.32C4.21372 25.32 4.2867 25.2909 4.31589 25.1744C4.34508 25.0507 4.41805 25.0288 4.72454 25.0288C5.00914 25.0288 5.09671 24.9997 5.09671 24.9196C5.09671 24.8541 5.16239 24.8104 5.27915 24.8104C5.39591 24.8104 5.46158 24.8541 5.46158 24.9196C5.46158 24.9779 5.51266 25.0288 5.57104 25.0288C5.62942 25.0288 5.6805 24.9779 5.6805 24.9196C5.6805 24.8396 5.76078 24.8104 5.94321 24.8104C6.14024 24.8104 6.21322 24.774 6.2424 24.6649C6.27159 24.5557 6.34457 24.5193 6.527 24.5193C6.68755 24.5193 6.77512 24.5557 6.77512 24.6212C6.77512 24.7376 6.99404 24.8104 7.34431 24.8104C7.50486 24.8104 7.57783 24.8468 7.57783 24.9196C7.57783 24.9997 7.6654 25.0288 7.9427 25.0288C8.20541 25.0288 8.30757 24.9997 8.30757 24.9269C8.30757 24.8687 8.42433 24.8104 8.59947 24.7813C8.7892 24.7522 8.89136 24.7013 8.89136 24.6285C8.89136 24.5702 8.95704 24.5193 9.03731 24.5193C9.11758 24.5193 9.20515 24.4683 9.22705 24.4101C9.27083 24.3081 9.28543 24.3154 9.37299 24.4246C9.42408 24.4974 9.47516 24.6066 9.47516 24.6794C9.47516 24.7449 9.51164 24.8104 9.55543 24.825C9.59921 24.8396 9.6503 25.007 9.67219 25.2036C9.69408 25.4001 9.75976 25.5675 9.81084 25.5894C9.86922 25.6112 9.93489 25.7568 9.95679 25.917C9.98598 26.0771 10.0517 26.2446 10.1027 26.2955C10.1538 26.3465 10.2195 26.5139 10.2414 26.6595C10.2706 26.8124 10.3363 26.9216 10.3946 26.9216C10.453 26.9216 10.4968 26.9871 10.4968 27.0672C10.4968 27.1472 10.5406 27.2128 10.599 27.2128C10.6573 27.2128 10.723 27.322 10.7449 27.4676C10.7741 27.6204 10.8398 27.7223 10.8982 27.7223C10.9565 27.7223 11.0076 27.7879 11.0076 27.8679C11.0076 27.948 11.0514 28.0135 11.1025 28.0135C11.1536 28.0135 11.2411 28.13 11.2995 28.2683C11.3579 28.4066 11.4455 28.5231 11.4965 28.5231C11.5476 28.5231 11.5914 28.5886 11.5914 28.6687C11.5914 28.7488 11.6352 28.8143 11.6936 28.8143C11.7447 28.8143 11.8103 28.8798 11.8322 28.9599C11.8541 29.0473 11.9344 29.1055 12.022 29.1055C12.1095 29.1055 12.1752 29.1492 12.1752 29.2074C12.1752 29.2657 12.2774 29.3312 12.3941 29.3603C12.5182 29.3894 12.613 29.4549 12.613 29.5132C12.613 29.5787 12.7006 29.6151 12.8758 29.6151C13.0728 29.6151 13.1458 29.6515 13.1749 29.7607C13.2041 29.8772 13.2771 29.9063 13.496 29.9063C13.6931 29.9063 13.7806 29.9354 13.7806 30.0155C13.7806 30.0737 13.8828 30.1392 14.036 30.1683C14.182 30.1902 14.2914 30.2557 14.2914 30.3139C14.2914 30.3795 14.379 30.4159 14.5542 30.4159C14.7512 30.4159 14.8242 30.4523 14.8533 30.5615C14.8825 30.6852 14.9555 30.707 15.2474 30.707C15.5028 30.707 15.605 30.7362 15.605 30.809C15.605 30.9182 15.9115 30.9982 16.342 30.9982C16.5463 30.9982 16.6266 31.0274 16.6266 31.1074C16.6266 31.1802 16.6996 31.2166 16.8382 31.2166C17.1958 31.2166 17.5023 31.304 17.5023 31.4059C17.5023 31.4787 17.6191 31.5078 17.9402 31.5078C18.2612 31.5078 18.378 31.5369 18.378 31.6097C18.378 31.7481 18.6115 31.799 19.3486 31.799C19.8667 31.799 19.9834 31.8209 19.9834 31.9082C19.9834 31.9956 20.1002 32.0174 20.5891 32.0174C21.961 32.0174 23.1943 32.112 23.1943 32.214C23.1943 32.2868 23.3767 32.3086 24.0335 32.3086C24.734 32.3086 24.8727 32.2868 24.8727 32.1994C24.8727 32.1266 24.9457 32.0902 25.1135 32.0902C25.6316 32.0902 26.1133 31.9956 26.1133 31.9009C26.1133 31.8281 26.2081 31.799 26.3979 31.799C26.7554 31.799 26.916 31.7408 26.916 31.6097C26.916 31.5369 27.0181 31.5078 27.31 31.5078C27.6384 31.5078 27.7041 31.486 27.7406 31.3622C27.7625 31.2749 27.8427 31.2166 27.9303 31.2166C28.0179 31.2166 28.0836 31.173 28.0836 31.1147C28.0836 31.0638 28.1857 30.9982 28.3025 30.9691C28.4338 30.9473 28.5214 30.8818 28.5214 30.8162C28.5214 30.758 28.5871 30.707 28.6673 30.707C28.7622 30.707 28.8133 30.6561 28.8133 30.5615C28.8133 30.4668 28.8644 30.4159 28.9592 30.4159C29.0468 30.4159 29.1052 30.3649 29.1052 30.2994C29.1052 30.2339 29.1709 30.1683 29.2511 30.1465C29.3314 30.1247 29.3971 30.0591 29.3971 30.0082C29.3971 29.95 29.4628 29.9063 29.543 29.9063C29.6379 29.9063 29.689 29.8553 29.689 29.7607C29.689 29.666 29.7401 29.6151 29.8349 29.6151C29.9152 29.6151 29.9809 29.5714 29.9809 29.5132C29.9809 29.4549 30.032 29.3967 30.0903 29.3676C30.1487 29.3457 30.1998 29.2657 30.1998 29.1856C30.1998 29.1055 30.2509 28.989 30.3166 28.9308C30.3749 28.8653 30.4479 28.6323 30.4698 28.4139C30.499 28.1664 30.5501 28.0135 30.6012 28.0135C30.6668 28.0135 30.7033 27.7951 30.7252 27.2419C30.7471 26.6085 30.7763 26.463 30.8785 26.4047C30.9514 26.361 31.0025 26.2446 31.0025 26.1281C31.0025 25.9024 31.1339 25.8296 31.5352 25.8296C31.6593 25.8296 31.7323 25.7932 31.7323 25.7204C31.7323 25.6549 31.7979 25.6112 31.9147 25.6112C32.046 25.6112 32.0971 25.5748 32.0971 25.4656C32.0971 25.3491 32.1482 25.32 32.3525 25.32C32.5569 25.32 32.6079 25.2909 32.6079 25.1744C32.6079 25.0798 32.659 25.0288 32.7539 25.0288C32.8342 25.0288 32.8998 24.9779 32.8998 24.9196C32.8998 24.8614 32.9509 24.8104 33.0166 24.8104C33.0823 24.8104 33.148 24.7449 33.1698 24.6649C33.1917 24.5848 33.2574 24.5193 33.3085 24.5193C33.3669 24.5193 33.4107 24.4537 33.4107 24.3737C33.4107 24.279 33.4617 24.2281 33.5566 24.2281C33.6734 24.2281 33.7026 24.1771 33.7026 23.9733C33.7026 23.8058 33.739 23.7185 33.8047 23.7185C33.8704 23.7185 33.9288 23.6093 33.958 23.4273C33.9872 23.2671 34.0455 23.1361 34.0966 23.1361C34.3009 23.1361 34.3228 19.256 34.1258 19.125C34.0893 19.1031 34.0309 18.8774 33.9945 18.6227C33.9507 18.3315 33.885 18.1349 33.8193 18.0985C33.7536 18.0621 33.7026 17.9893 33.7026 17.9384C33.7026 17.8801 33.6369 17.8219 33.5566 17.8C33.4763 17.7782 33.4107 17.7127 33.4107 17.6472C33.4107 17.5817 33.3596 17.5307 33.3012 17.5307C33.2428 17.5307 33.1917 17.4652 33.1917 17.3851C33.1917 17.2905 33.1407 17.2395 33.0458 17.2395C32.9655 17.2395 32.8998 17.1958 32.8998 17.1376C32.8998 16.992 32.6663 16.9483 31.9001 16.9483C31.2725 16.9483 31.2214 16.941 31.2214 16.8027C31.2214 16.7226 31.1923 16.6571 31.1485 16.6571C31.112 16.6571 31.0755 16.6062 31.0755 16.5479C31.0755 16.4897 31.112 16.4387 31.1485 16.4387C31.1923 16.4387 31.2214 15.9801 31.2214 15.2012C31.2214 14.4222 31.1923 13.9636 31.1485 13.9636C31.112 13.9636 31.0755 13.9127 31.0755 13.8544C31.0755 13.7962 31.112 13.7452 31.1485 13.7452C31.1923 13.7452 31.2214 13.6142 31.2214 13.454C31.2214 13.2939 31.1923 13.1628 31.1485 13.1628C31.112 13.1628 31.0755 13.1119 31.0755 13.0536C31.0755 12.9954 31.112 12.9444 31.1485 12.9444C31.1923 12.9444 31.2214 12.828 31.2214 12.6897C31.2214 12.5149 31.185 12.4349 31.112 12.4349C31.0536 12.4349 31.0025 12.3693 31.0025 12.2893C31.0025 12.1582 30.9514 12.1437 30.6012 12.1437C30.2509 12.1437 30.1998 12.1291 30.1998 11.9981C30.1998 11.918 30.156 11.8525 30.0976 11.8525C30.0466 11.8525 29.9809 11.787 29.959 11.7069C29.9371 11.6268 29.8714 11.5613 29.8057 11.5613C29.7401 11.5613 29.689 11.5103 29.689 11.4521C29.689 11.3647 29.5941 11.3429 29.2511 11.3429H28.8133V11.0517C28.8133 10.8552 28.7841 10.7605 28.7111 10.7605C28.6528 10.7605 28.5871 10.6513 28.5652 10.5057C28.536 10.3529 28.4703 10.2509 28.4119 10.2509C28.3536 10.2509 28.3025 10.1854 28.3025 10.1053C28.3025 10.0107 28.2514 9.95975 28.1565 9.95975C28.0617 9.95975 28.0106 9.90879 28.0106 9.81415C28.0106 9.71952 27.9595 9.66856 27.8646 9.66856C27.7844 9.66856 27.7187 9.6176 27.7187 9.55936C27.7187 9.47201 27.6165 9.45017 27.2079 9.45017C26.8211 9.45017 26.697 9.47201 26.697 9.55208C26.697 9.61032 26.5876 9.67584 26.4416 9.69768C26.2884 9.7268 26.1862 9.79232 26.1862 9.85783C26.1862 9.91607 26.1351 9.98159 26.0768 10.0034C26.0184 10.0325 25.9673 10.0908 25.9673 10.149C25.9673 10.2073 25.9381 10.2509 25.8943 10.2509C25.8578 10.2509 25.8214 10.3165 25.8214 10.3965C25.8214 10.4766 25.7703 10.5421 25.7119 10.5421C25.6389 10.5421 25.6024 10.6222 25.6024 10.7969C25.6024 11.0008 25.5732 11.0517 25.4565 11.0517C25.3762 11.0517 25.3105 11.008 25.3105 10.9498C25.3105 10.8916 25.2668 10.8333 25.2084 10.8115C25.1573 10.7896 25.0916 10.6513 25.0624 10.513C25.0332 10.3674 24.9822 10.2509 24.9457 10.2509C24.9092 10.2509 24.8581 10.1345 24.8289 9.98887C24.7997 9.85055 24.734 9.71224 24.683 9.6904C24.6319 9.66856 24.5662 9.5448 24.537 9.40649C24.5151 9.26817 24.4494 9.15898 24.3984 9.15898C24.3473 9.15898 24.2816 9.0425 24.2597 8.90419C24.2305 8.75131 24.1648 8.64939 24.1065 8.64939C24.0481 8.64939 23.997 8.58388 23.997 8.5038C23.997 8.3946 23.9459 8.3582 23.8146 8.3582C23.7051 8.3582 23.6321 8.31453 23.6321 8.25629C23.6321 8.12525 23.4059 8.06701 22.844 8.06701C22.4354 8.06701 22.3697 8.08885 22.3405 8.21261C22.3186 8.29269 22.2529 8.3582 22.2018 8.3582C22.1435 8.3582 22.0997 8.42372 22.0997 8.5038C22.0997 8.58388 22.0559 8.64939 21.9975 8.64939C21.8808 8.64939 21.8078 8.86779 21.8078 9.20994C21.8078 9.36281 21.7713 9.45017 21.7056 9.45017C21.6326 9.45017 21.5962 9.5812 21.5743 9.92335C21.5305 10.6659 21.3991 10.6804 21.297 9.95247C21.2605 9.70496 21.1948 9.47929 21.151 9.45017C21.1072 9.42105 21.0489 9.21722 21.027 8.99154C21.0051 8.75859 20.9613 8.5766 20.9321 8.5766C20.8956 8.5766 20.8372 8.41644 20.7861 8.21989C20.7424 8.02334 20.6548 7.84134 20.5964 7.8195C20.538 7.79766 20.4942 7.73215 20.4942 7.66663C20.4942 7.60839 20.4505 7.55743 20.3921 7.55743C20.341 7.55743 20.2753 7.49191 20.2534 7.41184C20.2169 7.2808 20.1513 7.26624 19.6623 7.26624C19.2318 7.26624 19.1077 7.28808 19.1077 7.36816C19.1077 7.4264 19.0421 7.49919 18.9618 7.52103C18.8815 7.54287 18.8158 7.61567 18.8158 7.67391C18.8158 7.73215 18.7648 7.77582 18.7064 7.77582C18.648 7.77582 18.5969 7.84134 18.5969 7.92142C18.5969 8.0015 18.5531 8.08885 18.4948 8.11069C18.4364 8.13253 18.3488 8.31453 18.305 8.51108C18.2539 8.70763 18.1883 8.86779 18.1591 8.86779C18.1226 8.86779 18.0715 9.0425 18.0496 9.26089C18.0204 9.49385 17.9547 9.67584 17.8964 9.69768C17.838 9.71952 17.7942 9.78504 17.7942 9.85055C17.7942 9.90879 17.7504 9.95975 17.692 9.95975C17.5753 9.95975 17.5023 9.45745 17.5023 8.66395C17.5023 8.26357 17.4731 8.12525 17.3928 8.09613C17.3345 8.06701 17.2834 7.9651 17.2834 7.8559C17.2834 7.54287 17.2031 7.34632 17.0572 7.30264C16.9842 7.27352 16.9185 7.21528 16.9185 7.15704C16.9185 7.10609 16.8164 7.04057 16.6996 7.01145C16.4004 6.94593 15.8969 7.03329 15.8969 7.15704C15.8969 7.208 15.8312 7.26624 15.7509 7.28808C15.6707 7.30992 15.605 7.37544 15.605 7.44096C15.605 7.50647 15.5612 7.55743 15.5028 7.55743C15.4444 7.55743 15.3788 7.66663 15.3569 7.81222C15.3277 7.95054 15.262 8.06701 15.2109 8.06701C15.1525 8.06701 15.0869 8.17621 15.065 8.31453C15.0358 8.45284 14.9701 8.58388 14.9117 8.60572C14.8461 8.62756 14.8023 8.74403 14.8023 8.90419C14.8023 9.07162 14.7658 9.15898 14.7001 9.15898C14.6052 9.15898 14.5104 9.45745 14.5104 9.78504C14.5104 9.89423 14.4666 9.95975 14.4009 9.95975C14.3279 9.95975 14.2914 10.0398 14.2914 10.2145C14.2914 10.3601 14.2477 10.4839 14.1747 10.5276C14.109 10.564 14.0433 10.7314 14.0214 10.9134C13.9996 11.0881 13.9412 11.2701 13.8901 11.3065C13.839 11.3502 13.7733 11.4885 13.7514 11.6195C13.6858 11.8816 13.4158 11.9617 13.4158 11.7142C13.4158 11.6341 13.3866 11.5613 13.3428 11.5467C13.3063 11.5322 13.2552 10.9061 13.226 10.0835C13.1822 8.95514 13.1531 8.64939 13.0728 8.64939C13.0217 8.64939 12.9779 8.58388 12.9779 8.5038C12.9779 8.3946 12.9268 8.3582 12.7955 8.3582C12.6787 8.3582 12.613 8.31453 12.613 8.24901C12.613 8.19077 12.5839 8.13981 12.5401 8.13981C12.5036 8.13981 12.4671 8.19077 12.4671 8.24901C12.4671 8.31453 12.4014 8.3582 12.2847 8.3582C12.1679 8.3582 12.1022 8.40188 12.1022 8.4674C12.1022 8.52564 12.0657 8.5766 12.0293 8.5766C11.9855 8.5766 11.9198 8.65667 11.8833 8.75859C11.8468 8.86051 11.7811 8.94058 11.7447 8.94058C11.7009 8.94058 11.6498 9.05706 11.6206 9.19538C11.5987 9.34097 11.533 9.45017 11.4746 9.45017C11.4163 9.45017 11.3579 9.56664 11.3287 9.74864C11.2995 9.90879 11.2338 10.0835 11.1828 10.1345C11.1317 10.1854 11.066 10.3529 11.0441 10.4985C11.0149 10.644 10.9492 10.7605 10.8982 10.7605C10.8398 10.7605 10.7814 10.8843 10.7522 11.0517C10.723 11.2337 10.6646 11.3429 10.599 11.3429C10.5333 11.3429 10.4968 11.4303 10.4968 11.5977C10.4968 11.7651 10.4603 11.8525 10.3946 11.8525C10.3363 11.8525 10.2706 11.9617 10.2487 12.1C10.2195 12.2383 10.1538 12.3621 10.1027 12.3839C10.0444 12.4057 9.97868 12.5222 9.94949 12.646C9.9203 12.7697 9.87652 12.8717 9.84003 12.8717C9.80354 12.8717 9.75976 12.7697 9.73057 12.646C9.70138 12.5222 9.6357 12.4057 9.57732 12.3839C9.52624 12.3621 9.46056 12.1946 9.43137 11.9981C9.40218 11.8015 9.33651 11.6268 9.28543 11.605C9.22705 11.5831 9.18326 11.5176 9.18326 11.4521C9.18326 11.3939 9.11758 11.3429 9.03731 11.3429C8.94245 11.3429 8.89136 11.2919 8.89136 11.1973C8.89136 11.0808 8.84028 11.0517 8.63596 11.0517C8.43163 11.0517 8.38055 11.0808 8.38055 11.1973C8.38055 11.2774 8.33676 11.3429 8.27838 11.3429C8.2273 11.3429 8.16162 11.4157 8.13243 11.5031C8.06676 11.7651 8.08135 11.8525 8.19811 11.8525C8.33676 11.8525 8.32946 11.7287 8.33676 14.7061L8.34406 17.2395H8.07405C7.87702 17.2395 7.79675 17.2104 7.79675 17.1303C7.79675 17.0138 7.76027 17.0066 7.03053 16.9847C6.47592 16.9702 6.2643 17.0138 6.2643 17.1376C6.2643 17.1958 6.19132 17.2395 6.08186 17.2395C5.95051 17.2395 5.89943 17.2759 5.89943 17.3851C5.89943 17.4652 5.84834 17.5307 5.78997 17.5307C5.73159 17.5307 5.6805 17.5817 5.6805 17.6472C5.6805 17.7127 5.62212 17.7782 5.54185 17.8C5.43969 17.8219 5.39591 17.9238 5.36672 18.164C5.34482 18.346 5.29374 18.5207 5.24266 18.5499C5.19888 18.579 5.1332 18.892 5.09671 19.2487C5.06752 19.6054 5.00184 19.9039 4.95806 19.9185C4.8486 19.9549 4.8486 21.2943 4.95806 21.3307C5.00914 21.3453 5.06752 21.6219 5.09671 21.9641C5.1259 22.2989 5.18428 22.5901 5.23536 22.6192C5.27915 22.6484 5.33753 22.8449 5.36672 23.0487C5.4032 23.3545 5.43239 23.4273 5.54185 23.4273C5.76807 23.4273 5.6878 23.9005 5.45428 23.9587C5.38131 23.9806 5.31563 24.0461 5.31563 24.1116C5.31563 24.1917 5.24996 24.2281 5.09671 24.2281C4.95076 24.2281 4.87779 24.1917 4.87779 24.1189C4.87779 24.0534 4.81211 24.0097 4.69535 24.0097C4.59319 24.0097 4.51292 24.0534 4.51292 24.1116C4.51292 24.1698 4.38886 24.2208 4.14805 24.2499C3.94372 24.2717 3.7321 24.3445 3.66642 24.4101C3.58615 24.4901 3.40371 24.5193 3.00965 24.5193C2.601 24.5193 2.46964 24.5411 2.46964 24.6212C2.46964 24.6794 2.36748 24.7376 2.23613 24.7595C1.79098 24.825 1.7472 24.7449 1.89315 24.0825C1.93693 23.8859 1.99531 23.7185 2.0318 23.7185C2.06829 23.7185 2.11207 23.5874 2.14126 23.4273C2.17045 23.2599 2.22883 23.1361 2.28721 23.1361C2.33829 23.1361 2.40397 23.0196 2.42586 22.8813C2.45505 22.743 2.52073 22.6265 2.57181 22.6265C2.63019 22.6265 2.69586 22.5173 2.71776 22.379C2.74695 22.2407 2.81262 22.1097 2.871 22.0878C2.92938 22.066 2.98046 22.0005 2.98046 21.9422C2.98046 21.8913 3.03154 21.8257 3.08263 21.8039C3.14101 21.7821 3.21398 21.6438 3.24317 21.5054C3.26506 21.3598 3.33074 21.2434 3.38182 21.2434C3.4329 21.2434 3.49128 21.1051 3.51317 20.9012C3.53507 20.7119 3.58615 20.5445 3.62993 20.53C3.7248 20.5008 3.73939 19.933 3.63723 19.933C3.60074 19.933 3.54966 19.8238 3.52777 19.6855C3.48398 19.4744 3.4402 19.4307 3.22857 19.387C3.08263 19.3652 2.98046 19.2997 2.98046 19.2414C2.98046 19.1541 2.82722 19.1322 2.13396 19.1322H1.28746L1.33125 18.9066C1.35314 18.7828 1.37503 18.6518 1.37503 18.6154C1.37503 18.579 1.42611 18.5499 1.48449 18.5499C1.54287 18.5499 1.60855 18.4479 1.63774 18.2951C1.65963 18.1495 1.72531 18.0403 1.78369 18.0403C1.84207 18.0403 1.88585 17.9893 1.88585 17.9311C1.88585 17.8656 1.93693 17.8 1.99531 17.7782C2.05369 17.7564 2.11937 17.6253 2.14856 17.487C2.17775 17.3123 2.23613 17.2395 2.33099 17.2395C2.41126 17.2395 2.46964 17.1958 2.46964 17.1376C2.46964 17.0793 2.52073 17.0211 2.5791 16.992C2.63748 16.9702 2.68857 16.9046 2.68857 16.8464C2.68857 16.7954 2.75424 16.7299 2.83451 16.7081C2.91479 16.6862 2.98046 16.6207 2.98046 16.5552C2.98046 16.4897 3.03154 16.4387 3.08992 16.4387C3.1483 16.4387 3.19938 16.3878 3.19938 16.3223C3.19938 16.2567 3.26506 16.1912 3.34533 16.1694C3.4256 16.1475 3.49128 16.082 3.49128 16.0311C3.49128 15.9728 3.54236 15.9073 3.60074 15.8855C3.65912 15.8564 3.7102 15.7981 3.7102 15.7399C3.7102 15.6816 3.77588 15.638 3.85615 15.638C3.95102 15.638 4.0021 15.587 4.0021 15.4924C4.0021 15.3977 4.05318 15.3468 4.14805 15.3468C4.24291 15.3468 4.294 15.2958 4.294 15.2012C4.294 15.1211 4.34508 15.0556 4.40346 15.0556C4.46184 15.0556 4.51292 15.0119 4.51292 14.9537C4.51292 14.8954 4.59319 14.7789 4.69535 14.6843C4.79022 14.5897 4.87779 14.4732 4.87779 14.4295C4.87779 14.3786 4.92887 14.3276 4.97995 14.3058C5.21347 14.2184 5.21347 13.2356 4.98725 13.2356C4.92887 13.2356 4.87049 13.2065 4.8486 13.1701C4.77563 13.0536 4.89238 12.6533 4.99455 12.6533C5.05293 12.6533 5.09671 12.6096 5.09671 12.5513C5.09671 12.5004 5.16239 12.4349 5.24266 12.413C5.32293 12.3912 5.38861 12.3257 5.38861 12.2602C5.38861 12.1946 5.43239 12.1437 5.49077 12.1437C5.54185 12.1437 5.60753 12.0782 5.62942 11.9981C5.65131 11.918 5.71699 11.8525 5.77537 11.8525C5.83375 11.8525 5.89943 11.787 5.92132 11.7069C5.94321 11.6268 6.00889 11.5613 6.07456 11.5613C6.14024 11.5613 6.19132 11.5103 6.19132 11.4521C6.19132 11.4011 6.2424 11.3211 6.30808 11.2847C6.48322 11.19 6.5416 10.5567 6.38106 10.4985C6.31538 10.4766 6.2643 10.4111 6.2643 10.3529C6.2643 10.2728 6.14754 10.2509 5.78997 10.2509C5.46158 10.2509 5.31563 10.2218 5.31563 10.1563C5.31563 9.93791 5.4105 9.74864 5.54185 9.71952C5.61483 9.69768 5.6805 9.63216 5.6805 9.56664C5.6805 9.50113 5.73888 9.45017 5.82645 9.45017C5.90672 9.45017 5.9724 9.39921 5.9724 9.34097C5.9724 9.27545 6.05997 9.20994 6.18403 9.1881C6.30808 9.15898 6.41025 9.08618 6.43214 9.0061C6.45403 8.92602 6.5343 8.86779 6.62187 8.86779C6.70944 8.86779 6.77512 8.82411 6.77512 8.75859C6.77512 8.68579 6.84809 8.64939 7.00134 8.64939C7.16188 8.64939 7.23485 8.613 7.26404 8.5038C7.28593 8.42372 7.36621 8.3582 7.43918 8.3582C7.51945 8.3582 7.57783 8.31453 7.57783 8.25629C7.57783 8.19805 7.6727 8.13253 7.79675 8.10341C7.92081 8.07429 8.01568 8.00878 8.01568 7.95054C8.01568 7.8923 8.08135 7.84862 8.16162 7.84862C8.25649 7.84862 8.35136 7.7467 8.45352 7.52831C8.63596 7.12065 8.63596 7.07697 8.44622 7.02601C8.32946 6.99689 8.30027 6.93865 8.32217 6.7421C8.34406 6.51643 8.35865 6.50187 8.65785 6.48003C8.85488 6.46547 8.96434 6.42179 8.96434 6.36355C8.96434 6.29803 9.10299 6.24708 9.3657 6.21068C9.643 6.18156 9.76705 6.1306 9.76705 6.0578C9.76705 5.985 9.86192 5.95589 10.1392 5.95589C10.4457 5.95589 10.5187 5.93405 10.5479 5.81029C10.5771 5.69381 10.65 5.6647 10.9346 5.6647C11.2192 5.6647 11.2922 5.63558 11.3214 5.5191C11.3506 5.4099 11.4236 5.37351 11.5841 5.37351C11.7301 5.37351 11.8103 5.33711 11.8103 5.27159C11.8103 5.21335 11.9271 5.15511 12.1022 5.12599C12.292 5.09687 12.3941 5.04592 12.3941 4.97312C12.3941 4.89304 12.4744 4.86392 12.686 4.86392C12.9268 4.86392 12.9779 4.84208 12.9779 4.71833C12.9779 4.58729 13.029 4.57273 13.3793 4.57273C13.7295 4.57273 13.7806 4.55089 13.7806 4.43442C13.7806 4.35434 13.8244 4.28154 13.8755 4.2597C13.9412 4.23786 13.9412 4.19419 13.8682 4.06315C13.7806 3.92483 13.7806 3.88844 13.8682 3.83748C13.9193 3.80108 13.985 3.77196 14.0214 3.77196C14.0506 3.77196 14.0725 3.721 14.0725 3.66276C14.0725 3.58269 14.1601 3.55357 14.4447 3.55357C14.7512 3.55357 14.8242 3.53173 14.8533 3.40797C14.8752 3.32789 14.9409 3.26238 14.992 3.26238C15.065 3.26238 15.0942 3.16774 15.0942 2.97119C15.0942 2.76007 15.065 2.68 14.9847 2.68C14.9263 2.68 14.8752 2.62904 14.8752 2.56352C14.8752 2.498 14.8096 2.43248 14.7293 2.41065C14.649 2.38881 14.5833 2.32329 14.5833 2.27233C14.5833 2.21409 14.5177 2.17041 14.4374 2.17041C14.3498 2.17041 14.2914 2.11946 14.2914 2.05394C14.2914 1.98842 14.2258 1.9229 14.1455 1.90106C14.0652 1.87922 13.9996 1.81371 13.9996 1.76275C13.9996 1.68267 14.1528 1.66083 14.6928 1.66083C15.262 1.66083 15.3861 1.68267 15.3861 1.77003C15.3861 1.86466 15.5466 1.87922 16.3639 1.87922C17.4585 1.87922 17.7942 1.9229 17.7942 2.0685C17.7942 2.14857 17.9329 2.17041 18.378 2.17041C18.8231 2.17041 18.9618 2.19225 18.9618 2.27233C18.9618 2.39609 19.188 2.4616 19.604 2.4616C19.8667 2.4616 19.9323 2.43248 19.9615 2.31601C20.0053 2.14857 20.2024 2.11946 20.2024 2.27961C20.2024 2.35969 20.2899 2.38881 20.5672 2.38881C20.8445 2.38881 20.9321 2.35969 20.9321 2.27961C20.9321 2.19953 21.0197 2.17041 21.2605 2.17041C21.494 2.17041 21.5889 2.14129 21.5889 2.0685C21.5889 1.9593 21.8078 1.87922 22.1216 1.87922C22.2383 1.87922 22.3186 1.84282 22.3186 1.77731C22.3186 1.71179 22.4281 1.65355 22.6105 1.62443C22.7929 1.59531 22.9024 1.53707 22.9024 1.47156C22.9024 1.39876 23.0046 1.36964 23.2965 1.36964C23.6248 1.36964 23.6905 1.3478 23.727 1.22405C23.7635 1.08573 23.8292 1.07845 25.5222 1.07845C27.2298 1.07845 27.2808 1.08573 27.2808 1.22405C27.2808 1.31868 27.2298 1.36964 27.1422 1.36964C27.0692 1.36964 26.9889 1.43516 26.9671 1.51524C26.9452 1.59531 26.8795 1.66083 26.8138 1.66083C26.7481 1.66083 26.697 1.71179 26.697 1.77003C26.697 1.82827 26.646 1.87922 26.5876 1.87922C26.5292 1.87922 26.4781 1.94474 26.4781 2.02482C26.4781 2.11946 26.427 2.17041 26.3322 2.17041C26.2519 2.17041 26.1862 2.22137 26.1862 2.27961C26.1862 2.34513 26.1351 2.41065 26.0768 2.43248C26.0184 2.45432 25.9527 2.58536 25.9235 2.72367C25.8943 2.89111 25.836 2.97119 25.7484 2.97119C25.6462 2.97119 25.617 3.04398 25.5878 3.31333C25.5368 3.89572 25.5951 4.2597 25.7557 4.30338C25.8287 4.32522 25.8943 4.39074 25.8943 4.45626C25.8943 4.54361 25.9746 4.57273 26.2446 4.57273C26.6898 4.57273 26.916 4.63825 26.916 4.76201C26.916 4.84208 27.1057 4.86392 27.8646 4.86392C28.6236 4.86392 28.8133 4.88576 28.8133 4.96584C28.8133 5.06048 29.1125 5.15511 29.4409 5.15511C29.543 5.15511 29.616 5.19879 29.616 5.25703C29.616 5.31527 29.7255 5.38078 29.8714 5.40262C30.0247 5.43174 30.1268 5.49726 30.1268 5.5555C30.1268 5.62102 30.1998 5.6647 30.3093 5.6647C30.4187 5.6647 30.4917 5.70837 30.4917 5.76661C30.4917 5.82485 30.5866 5.89037 30.7033 5.91949C30.9441 5.97044 31.0025 6.14516 31.0025 6.83674C31.0025 7.15704 31.0317 7.26624 31.1047 7.26624C31.1631 7.26624 31.2287 7.37544 31.2506 7.52103C31.2798 7.67391 31.3455 7.77582 31.4039 7.77582C31.4623 7.77582 31.5133 7.84134 31.5133 7.92142C31.5133 8.01606 31.5644 8.06701 31.6593 8.06701C31.7542 8.06701 31.8052 8.11797 31.8052 8.21261C31.8052 8.29269 31.849 8.3582 31.9074 8.3582C31.9585 8.3582 32.0242 8.42372 32.046 8.5038C32.0679 8.58388 32.1263 8.64939 32.1847 8.64939C32.2431 8.64939 32.3306 8.76587 32.389 8.90419C32.4401 9.0425 32.5277 9.16626 32.5861 9.1881C32.6371 9.20994 32.6809 9.27545 32.6809 9.34097C32.6809 9.39921 32.732 9.45017 32.7904 9.45017C32.8488 9.45017 32.8998 9.50113 32.8998 9.55936C32.8998 9.6176 32.9509 9.66856 33.0166 9.66856C33.0823 9.66856 33.148 9.73408 33.1698 9.81415C33.1917 9.89423 33.2501 9.95975 33.3012 9.95975C33.3523 9.95975 33.4107 10.0253 33.4326 10.1053C33.4544 10.1854 33.5201 10.2509 33.5785 10.2509C33.6369 10.2509 33.7026 10.3165 33.7245 10.3965C33.7463 10.4766 33.812 10.5421 33.8777 10.5421C33.9434 10.5421 33.9945 10.5858 33.9945 10.644C33.9945 10.695 34.0601 10.7605 34.1404 10.7824C34.2207 10.8042 34.2864 10.8697 34.2864 10.9352C34.2864 11.0008 34.3447 11.0517 34.4323 11.0517C34.5126 11.0517 34.5782 11.0954 34.5782 11.1536C34.5782 11.2119 34.6439 11.2847 34.7242 11.3065C34.8045 11.3283 34.8701 11.3939 34.8701 11.4521C34.8701 11.5031 34.9723 11.5686 35.0891 11.5977C35.2131 11.6268 35.308 11.6923 35.308 11.7506C35.308 11.8088 35.3737 11.8525 35.4539 11.8525C35.5488 11.8525 35.5999 11.9034 35.5999 11.9981C35.5999 12.0927 35.651 12.1437 35.7458 12.1437C35.8261 12.1437 35.8918 12.1874 35.8918 12.2456C35.8918 12.2966 35.9575 12.3621 36.0377 12.3839C36.118 12.4057 36.1837 12.4713 36.1837 12.5295C36.1837 12.5877 36.2785 12.6533 36.4026 12.6751C36.534 12.7042 36.6215 12.7697 36.6215 12.8353C36.6215 12.8935 36.6799 12.9444 36.7602 12.9444C36.8331 12.9444 36.9134 13.01 36.9353 13.09C36.9572 13.1701 37.0229 13.2356 37.0886 13.2356C37.1542 13.2356 37.2053 13.2793 37.2053 13.3376C37.2053 13.3958 37.3148 13.4613 37.4607 13.4832C37.614 13.5123 37.7161 13.5778 37.7161 13.636C37.7161 13.6943 37.7745 13.7452 37.8548 13.7452C37.9278 13.7452 38.008 13.8107 38.0299 13.8908C38.0518 13.9709 38.1175 14.0364 38.1832 14.0364C38.2488 14.0364 38.2999 14.0874 38.2999 14.1456C38.2999 14.2038 38.351 14.2548 38.4094 14.2548C38.4678 14.2548 38.5189 14.3203 38.5189 14.4004C38.5189 14.5169 38.4678 14.546 38.2634 14.546C38.0883 14.546 38.008 14.5096 38.008 14.4368C38.008 14.3786 37.9059 14.313 37.7526 14.2839C37.6067 14.2621 37.4972 14.1966 37.4972 14.1383C37.4972 14.0801 37.4315 14.0364 37.3513 14.0364C37.271 14.0364 37.2053 14.0874 37.2053 14.1456C37.2053 14.2038 37.1396 14.2548 37.0594 14.2548C36.928 14.2548 36.9134 14.3058 36.9134 14.6625C36.9134 15.0046 36.9353 15.0774 37.0594 15.1065C37.1396 15.1284 37.2053 15.1939 37.2053 15.2449C37.2053 15.3031 37.2491 15.3468 37.3002 15.3468C37.3513 15.3468 37.4388 15.4632 37.4972 15.6016C37.5556 15.7399 37.6213 15.8564 37.6578 15.8564C37.6869 15.8564 37.7161 15.9219 37.7161 16.0019C37.7161 16.0966 37.7672 16.1475 37.8548 16.1475C37.957 16.1475 38.008 16.2203 38.0372 16.4023C38.0664 16.5406 38.1175 16.6571 38.1613 16.6571C38.1978 16.6571 38.2634 16.7372 38.2999 16.8391C38.3364 16.941 38.4021 17.0211 38.4386 17.0211C38.4824 17.0211 38.5334 17.1376 38.5626 17.2759C38.5845 17.4215 38.6502 17.5307 38.7086 17.5307C38.767 17.5307 38.8107 17.5962 38.8107 17.6763C38.8107 17.7564 38.8618 17.8219 38.9202 17.8219C38.9786 17.8219 39.0443 17.9238 39.0735 18.0767C39.0953 18.215 39.161 18.3315 39.2121 18.3315C39.2632 18.3315 39.3289 18.4479 39.3508 18.5863C39.3799 18.7246 39.4456 18.8629 39.4967 18.892C39.5478 18.9284 39.6135 19.0958 39.6354 19.2706C39.6572 19.4525 39.7229 19.62 39.7886 19.6564C39.8762 19.7073 39.9054 19.8457 39.9054 20.2242V20.7338L39.3435 20.7483C39.0297 20.7556 38.6867 20.7556 38.5772 20.7483C38.4459 20.7411 38.351 20.7847 38.2999 20.8794C38.2343 21.0031 38.1467 21.025 37.6432 21.025C37.198 21.025 37.0594 21.0468 37.0594 21.1269C37.0594 21.1851 36.9426 21.2434 36.7675 21.2725C36.5777 21.3016 36.4756 21.3526 36.4756 21.4254C36.4756 21.4909 36.4026 21.5346 36.2931 21.5346C36.1618 21.5346 36.1107 21.571 36.1107 21.6802C36.1107 21.7748 36.0596 21.8257 35.9648 21.8257C35.8845 21.8257 35.8188 21.8694 35.8188 21.9277C35.8188 21.9859 35.7239 22.0514 35.5999 22.0805C35.4831 22.1097 35.381 22.1752 35.381 22.2261C35.381 22.2844 35.3153 22.3499 35.235 22.3717C35.1547 22.3936 35.0891 22.4664 35.0891 22.5246C35.0891 22.5828 35.0234 22.6265 34.9431 22.6265C34.8483 22.6265 34.7972 22.6775 34.7972 22.7721C34.7972 22.8668 34.7461 22.9177 34.6512 22.9177C34.5564 22.9177 34.5053 22.9687 34.5053 23.0633C34.5053 23.1434 34.4615 23.2089 34.4031 23.2089C34.2791 23.2089 34.1988 23.5147 34.2572 23.7549C34.2864 23.8859 34.3666 23.9442 34.5418 23.9806C34.8556 24.0388 35.235 23.9514 35.235 23.8277C35.235 23.7694 35.3007 23.7112 35.3737 23.6821C35.4539 23.6602 35.5342 23.5947 35.5561 23.5365C35.578 23.4783 35.6437 23.4273 35.7093 23.4273C35.7677 23.4273 35.8188 23.3618 35.8188 23.2817C35.8188 23.1871 35.8699 23.1361 35.9648 23.1361C36.045 23.1361 36.1107 23.0851 36.1107 23.0269C36.1107 22.9687 36.1764 22.9177 36.2567 22.9177C36.3515 22.9177 36.4026 22.8668 36.4026 22.7721C36.4026 22.6775 36.4537 22.6265 36.5486 22.6265C36.6288 22.6265 36.6945 22.5756 36.6945 22.5173C36.6945 22.4591 36.7967 22.3936 36.9499 22.3645C37.0959 22.3426 37.2053 22.2771 37.2053 22.2189C37.2053 22.1606 37.2783 22.1169 37.3805 22.1169C37.7088 22.1169 38.008 22.0223 38.008 21.9277C38.008 21.8476 38.2415 21.8257 39.2486 21.8257C40.2702 21.8257 40.4892 21.8112 40.4892 21.7238C40.4892 21.6656 40.584 21.6001 40.7008 21.571C40.8905 21.5273 40.927 21.4836 40.9708 21.1997C41.0438 20.7119 40.9708 19.7146 40.854 19.6418C40.8029 19.6127 40.7446 19.4161 40.7227 19.2123C40.7008 18.9794 40.657 18.841 40.5986 18.841C40.4964 18.841 40.4162 18.6154 40.4162 18.3096C40.4162 18.2004 40.3797 18.1131 40.3432 18.1131C40.2994 18.1131 40.2337 18.033 40.1973 17.9311C40.1608 17.8292 40.0951 17.7491 40.0586 17.7491C40.0148 17.7491 39.9637 17.6326 39.9345 17.4943C39.9054 17.3123 39.8543 17.2395 39.7521 17.2395C39.6427 17.2395 39.6135 17.1885 39.6135 16.992C39.6135 16.81 39.577 16.7372 39.4675 16.7081C39.3872 16.6862 39.3216 16.6207 39.3216 16.5552C39.3216 16.4897 39.2705 16.4387 39.2121 16.4387C39.1391 16.4387 39.1026 16.3587 39.1026 16.1839C39.1026 15.9801 39.0735 15.9291 38.9567 15.9291C38.8326 15.9291 38.8107 15.8782 38.8107 15.638C38.8107 15.354 38.818 15.3468 39.0662 15.3468C39.2413 15.3468 39.3216 15.3104 39.3216 15.2376C39.3216 15.1793 39.3872 15.1284 39.4675 15.1284C39.5551 15.1284 39.6135 15.0774 39.6135 14.9973C39.6135 14.9245 39.6791 14.8153 39.7594 14.7425C39.9273 14.597 39.9491 14.3422 39.7959 14.2839C39.7375 14.2621 39.6718 14.131 39.6427 13.9927C39.6135 13.818 39.5551 13.7452 39.4602 13.7452C39.3726 13.7452 39.3216 13.6943 39.3216 13.5996C39.3216 13.505 39.2705 13.454 39.1756 13.454C39.0953 13.454 39.0297 13.4104 39.0297 13.3521C39.0297 13.2939 38.9348 13.2284 38.8107 13.1992C38.694 13.1701 38.5918 13.1046 38.5918 13.0464C38.5918 12.9881 38.5261 12.9444 38.4459 12.9444C38.351 12.9444 38.2999 12.8935 38.2999 12.7989C38.2999 12.7042 38.2488 12.6533 38.154 12.6533C38.0737 12.6533 38.008 12.6023 38.008 12.5441C38.008 12.4858 37.9424 12.4349 37.8621 12.4349C37.7672 12.4349 37.7161 12.3839 37.7161 12.2893C37.7161 12.1728 37.6651 12.1437 37.4899 12.1437C37.3294 12.1437 37.2564 12.1073 37.2272 11.9981C37.2053 11.918 37.125 11.8525 37.0521 11.8525C36.9718 11.8525 36.9134 11.8088 36.9134 11.7506C36.9134 11.6996 36.8477 11.6341 36.7675 11.6123C36.6872 11.5904 36.6215 11.5249 36.6215 11.4667C36.6215 11.4084 36.5267 11.3429 36.4026 11.3138C36.2712 11.2919 36.1837 11.2264 36.1837 11.1609C36.1837 11.1027 36.1253 11.0517 36.045 11.0517C35.9721 11.0517 35.8918 10.9862 35.8699 10.9061C35.848 10.826 35.7823 10.7605 35.7166 10.7605C35.651 10.7605 35.5999 10.7168 35.5999 10.6586C35.5999 10.6076 35.5342 10.5421 35.4539 10.5203C35.3737 10.4985 35.308 10.4329 35.308 10.3674C35.308 10.3019 35.2496 10.2509 35.162 10.2509C35.0672 10.2509 35.0161 10.2 35.0161 10.1053C35.0161 10.0107 34.965 9.95975 34.8701 9.95975C34.7899 9.95975 34.7242 9.91607 34.7242 9.85783C34.7242 9.80688 34.6585 9.74136 34.5782 9.71952C34.498 9.69768 34.4323 9.63216 34.4323 9.56664C34.4323 9.50113 34.3812 9.45017 34.3228 9.45017C34.2645 9.45017 34.2134 9.38465 34.2134 9.30457C34.2134 9.20994 34.1623 9.15898 34.0674 9.15898C33.9872 9.15898 33.9215 9.1153 33.9215 9.05706C33.9215 8.99882 33.8704 8.94058 33.812 8.91147C33.7536 8.88963 33.7026 8.82411 33.7026 8.75859C33.7026 8.70035 33.6369 8.64939 33.5566 8.64939C33.4617 8.64939 33.4107 8.59844 33.4107 8.5038C33.4107 8.40916 33.3596 8.3582 33.2647 8.3582C33.1698 8.3582 33.1188 8.30725 33.1188 8.21261C33.1188 8.13253 33.0677 8.06701 33.0093 8.06701C32.9509 8.06701 32.8998 8.01606 32.8998 7.95782C32.8998 7.8923 32.8488 7.82678 32.7904 7.80494C32.732 7.77582 32.6809 7.72487 32.6809 7.67391C32.6809 7.63023 32.5934 7.51375 32.4985 7.41912C32.3963 7.32448 32.3161 7.208 32.3161 7.14977C32.3161 7.09153 32.265 7.04785 32.2066 7.04785C32.119 7.04785 32.0971 6.93865 32.0971 6.51643C32.0971 5.89765 32.046 5.6647 31.9074 5.6647C31.849 5.6647 31.8052 5.59918 31.8052 5.5191C31.8052 5.42446 31.7542 5.37351 31.6593 5.37351C31.579 5.37351 31.5133 5.32255 31.5133 5.26431C31.5133 5.20607 31.4623 5.15511 31.3966 5.15511C31.3309 5.15511 31.2652 5.08959 31.2433 5.00952C31.2141 4.90032 31.1412 4.86392 30.9587 4.86392C30.7617 4.86392 30.7106 4.8348 30.7106 4.71833C30.7106 4.60185 30.6595 4.57273 30.4917 4.57273C30.353 4.57273 30.2728 4.53633 30.2728 4.47082C30.2728 4.4053 30.1633 4.34706 29.9809 4.31794C29.7984 4.28882 29.689 4.23058 29.689 4.16507C29.689 4.09227 29.5795 4.06315 29.2511 4.06315C28.9009 4.06315 28.7841 4.03403 28.6892 3.91755C28.5725 3.78652 28.4703 3.77196 27.6311 3.77196H26.697V3.51717C26.697 3.34973 26.7335 3.26238 26.7992 3.26238C26.8503 3.26238 26.916 3.19686 26.9379 3.11678C26.9598 3.0367 27.0254 2.97119 27.0911 2.97119C27.1568 2.97119 27.2079 2.91295 27.2079 2.82559C27.2079 2.73095 27.2589 2.68 27.3538 2.68C27.4341 2.68 27.4998 2.62904 27.4998 2.5708C27.4998 2.51256 27.5508 2.4616 27.6092 2.4616C27.6676 2.4616 27.7187 2.39609 27.7187 2.31601C27.7187 2.20681 27.7698 2.17041 27.9011 2.17041C28.0325 2.17041 28.0836 2.13401 28.0836 2.02482C28.0836 1.90834 28.1346 1.87922 28.3025 1.87922C28.4484 1.87922 28.5214 1.84282 28.5214 1.77003C28.5214 1.71179 28.5798 1.66083 28.6528 1.66083C28.8425 1.66083 28.9884 1.02749 28.8644 0.758141C28.8133 0.656225 28.7403 0.568868 28.7038 0.568868C28.6601 0.568868 28.5725 0.50335 28.4995 0.423273C28.4119 0.321356 28.2879 0.277678 28.0836 0.277678C27.8865 0.277678 27.7917 0.248559 27.7917 0.175761C27.7917 0.117523 27.6822 0.0592849 27.5217 0.0301659C27.2298 -0.0135126 24.5224 -0.00623286 24.0554 0.0374457ZM16.4369 8.58388C16.4588 8.70763 16.4807 8.95514 16.4807 9.12258C16.4807 9.31185 16.5172 9.45017 16.5755 9.46473C16.6412 9.49385 16.6704 9.85055 16.6996 10.7969C16.7288 11.7433 16.758 12.1 16.8309 12.1291C16.8747 12.1437 16.9185 12.2456 16.9185 12.3475C16.9185 12.6241 17.0645 13.1192 17.1666 13.1774C17.2615 13.2429 17.6264 13.2502 17.8453 13.192C17.9475 13.1628 18.0204 13.0682 18.0496 12.9299C18.0788 12.8134 18.1445 12.6969 18.1956 12.6824C18.2466 12.6605 18.305 12.4421 18.3342 12.1437C18.3634 11.8379 18.4218 11.6341 18.4802 11.6123C18.5458 11.5831 18.5896 11.4011 18.6115 11.0881C18.6261 10.8188 18.6772 10.5785 18.7283 10.5494C18.7794 10.5203 18.8377 10.3237 18.8669 10.1126C18.8888 9.89423 18.9545 9.71224 19.0056 9.6904C19.064 9.66856 19.1077 9.5812 19.1077 9.48657C19.1077 9.16626 19.2026 8.86779 19.2975 8.86779C19.3631 8.86779 19.3996 8.78043 19.3996 8.613C19.3996 8.40916 19.4288 8.3582 19.5456 8.3582C19.6259 8.3582 19.6915 8.40916 19.6915 8.4674C19.6915 8.51836 19.7426 8.59844 19.801 8.63483C19.8667 8.67123 19.9323 8.84595 19.9615 9.07162C19.9834 9.29729 20.0418 9.45017 20.0929 9.45017C20.1513 9.45017 20.1951 9.62488 20.2169 9.96703C20.2461 10.2873 20.2972 10.5057 20.3556 10.5421C20.414 10.5785 20.4651 10.7969 20.4797 11.0881C20.5015 11.4084 20.5453 11.5831 20.611 11.6123C20.6694 11.6341 20.7132 11.7287 20.7132 11.8306C20.7132 12.0927 20.8664 12.6533 20.9394 12.6533C20.9759 12.6533 21.0051 12.7188 21.0051 12.7989C21.0051 12.8935 21.0561 12.9444 21.151 12.9444C21.2313 12.9444 21.297 12.9954 21.297 13.0536C21.297 13.1264 21.3772 13.1628 21.5524 13.1628C21.7275 13.1628 21.8078 13.1264 21.8078 13.0536C21.8078 12.9954 21.8662 12.9444 21.9464 12.9444C22.0413 12.9444 22.0997 12.8717 22.1289 12.6969C22.1581 12.5586 22.2164 12.4349 22.2602 12.4203C22.3113 12.3985 22.3551 12.1364 22.377 11.7215C22.3989 11.2191 22.4354 11.0517 22.5083 11.0517C22.5813 11.0517 22.6105 10.9425 22.6105 10.6295C22.6105 9.94519 22.6908 9.45017 22.8002 9.45017C22.8586 9.45017 22.9024 9.38465 22.9024 9.30457C22.9024 9.20994 22.9535 9.15898 23.0483 9.15898C23.1432 9.15898 23.1943 9.20994 23.1943 9.30457C23.1943 9.38465 23.2381 9.45017 23.2965 9.45017C23.3475 9.45017 23.4132 9.51568 23.4351 9.59576C23.457 9.67584 23.5227 9.74136 23.5884 9.74136C23.6759 9.74136 23.7051 9.81415 23.7051 9.99615C23.7051 10.1709 23.7416 10.2509 23.8073 10.2509C23.8802 10.2509 23.9459 10.3893 23.997 10.6513C24.0408 10.8697 24.1065 11.0517 24.143 11.0517C24.1721 11.0517 24.2232 11.1827 24.2524 11.3429C24.2816 11.5031 24.34 11.6341 24.3984 11.6341C24.4494 11.6341 24.5005 11.7651 24.5297 11.9762C24.5516 12.1728 24.61 12.3402 24.683 12.3766C24.7486 12.413 24.7997 12.5077 24.7997 12.5877C24.7997 12.6605 24.8654 12.7843 24.9457 12.8498C25.0259 12.9226 25.0916 13.0172 25.0916 13.0609C25.0916 13.1701 25.3324 13.2356 25.763 13.2356H26.0987L26.1497 12.9444C26.1789 12.777 26.2373 12.6533 26.2957 12.6533C26.3614 12.6533 26.3979 12.4858 26.4124 12.0345C26.4343 11.6632 26.4781 11.3866 26.5292 11.3575C26.573 11.3283 26.6314 11.1827 26.6606 11.0299C26.6898 10.877 26.7554 10.7605 26.8138 10.7605C26.8722 10.7605 26.916 10.7096 26.916 10.6513C26.916 10.5785 26.9962 10.5421 27.1714 10.5421C27.3976 10.5421 27.4268 10.564 27.4706 10.7969C27.4998 10.9789 27.5508 11.0517 27.653 11.0517C27.7625 11.0517 27.7917 11.1027 27.7917 11.3065C27.7917 11.4667 27.8354 11.5831 27.9011 11.605C27.9741 11.6341 28.0106 11.7578 28.0106 12.0054C28.0106 12.2529 28.0471 12.3766 28.1273 12.4203C28.2003 12.4567 28.2587 12.6169 28.2806 12.8207C28.3098 13.0609 28.3536 13.1628 28.4557 13.1847C28.536 13.2065 28.5944 13.272 28.5944 13.3376C28.5944 13.4249 28.6673 13.454 28.8498 13.454C29.0249 13.454 29.1052 13.4176 29.1052 13.3448C29.1052 13.2866 29.1709 13.2356 29.2438 13.2356C29.3241 13.2356 29.4336 13.2138 29.492 13.192C29.5722 13.1628 29.616 13.2284 29.6525 13.4468C29.6817 13.6287 29.7401 13.7452 29.8057 13.7452C29.8641 13.7452 29.9079 13.8107 29.9079 13.8908C29.9079 13.9855 29.959 14.0364 30.0539 14.0364C30.1998 14.0364 30.1998 14.0874 30.1998 16.1839C30.1998 18.0476 30.2144 18.3315 30.3093 18.3315C30.3676 18.3315 30.4187 18.3824 30.4187 18.4407C30.4187 18.5207 30.499 18.5499 30.7106 18.5499C30.9222 18.5499 31.0025 18.5207 31.0025 18.4407C31.0025 18.3824 31.0682 18.3315 31.1485 18.3315C31.2433 18.3315 31.2944 18.2805 31.2944 18.1859C31.2944 18.0694 31.3455 18.0403 31.5498 18.0403C31.725 18.0403 31.8052 18.0039 31.8052 17.9311C31.8052 17.8728 31.8709 17.8219 31.9512 17.8219C32.0315 17.8219 32.0971 17.8728 32.0971 17.9311C32.0971 17.9893 32.1628 18.0403 32.2358 18.0403C32.4547 18.0403 32.6079 18.1204 32.6079 18.2296C32.6079 18.2878 32.659 18.3315 32.7174 18.3315C32.7758 18.3315 32.8415 18.4334 32.8707 18.5863C32.8925 18.7246 32.9728 18.8702 33.0312 18.9066C33.1407 18.9648 33.1553 19.205 33.1553 20.9231C33.1553 22.3863 33.1334 22.874 33.0677 22.8959C33.0166 22.9177 32.9582 23.0415 32.929 23.1798C32.9071 23.3181 32.8415 23.4273 32.7831 23.4273C32.732 23.4273 32.6663 23.5438 32.6371 23.6821C32.6079 23.835 32.5496 23.9369 32.4839 23.9369C32.4255 23.9369 32.3598 24.0024 32.3379 24.0752C32.3161 24.1553 32.2139 24.2281 32.0898 24.2572C31.9658 24.279 31.8782 24.3445 31.8782 24.4101C31.8782 24.4756 31.8125 24.5193 31.6958 24.5193C31.5863 24.5193 31.5133 24.5629 31.5133 24.6285C31.5133 24.7522 31.0974 24.8468 30.7982 24.7886C30.4114 24.7158 30.2071 24.8032 30.156 25.0725C30.1341 25.2108 30.0684 25.32 30.0101 25.32C29.9298 25.32 29.9079 25.4656 29.9079 25.9679C29.9079 26.4411 29.8787 26.6231 29.813 26.6522C29.7401 26.6813 29.6963 26.8997 29.6598 27.3365C29.6379 27.686 29.5795 27.9844 29.543 27.999C29.5066 28.0135 29.4409 28.2028 29.3898 28.4212C29.3387 28.6542 29.2584 28.8143 29.2001 28.8143C29.149 28.8143 29.1052 28.858 29.1052 28.9162C29.1052 28.9745 29.0395 29.0473 28.9592 29.0691C28.879 29.0909 28.8133 29.1565 28.8133 29.2147C28.8133 29.2657 28.7184 29.3312 28.5944 29.3603C28.4776 29.3894 28.3755 29.4549 28.3755 29.5132C28.3755 29.5714 28.3171 29.6151 28.2368 29.6151C28.1638 29.6151 28.0836 29.6806 28.0617 29.7607C28.0398 29.8408 27.9741 29.9063 27.9157 29.9063C27.8573 29.9063 27.7917 29.9718 27.7698 30.0519C27.7479 30.1319 27.6822 30.1975 27.6165 30.1975C27.5508 30.1975 27.4998 30.2484 27.4998 30.3067C27.4998 30.3867 27.4195 30.4159 27.2371 30.4159C27.04 30.4159 26.9671 30.4523 26.9379 30.5615C26.9014 30.6852 26.8357 30.707 26.5073 30.707C26.2227 30.707 26.1133 30.7362 26.1133 30.809C26.1133 30.9036 25.6827 30.9982 25.2303 30.9982C25.0916 30.9982 25.0186 31.0346 25.0186 31.1074C25.0186 31.2021 24.8508 31.2166 23.9605 31.2166C23.0702 31.2166 22.9024 31.2021 22.9024 31.1074C22.9024 31.0128 22.7273 30.9982 21.7567 30.9982C20.2826 30.9982 19.6186 30.94 19.6186 30.809C19.6186 30.7289 19.4726 30.707 19.0056 30.707C18.4583 30.707 18.3926 30.6925 18.3561 30.5615C18.3269 30.4377 18.2539 30.4159 17.911 30.4159C17.6118 30.4159 17.5023 30.3867 17.5023 30.3139C17.5023 30.2411 17.3637 30.1975 17.0645 30.1611C16.7653 30.1247 16.6266 30.081 16.6266 30.0082C16.6266 29.9281 16.5099 29.9063 16.1596 29.9063C15.7582 29.9063 15.6926 29.8844 15.6561 29.7607C15.6269 29.6515 15.5539 29.6151 15.3569 29.6151C15.1817 29.6151 15.0942 29.5787 15.0942 29.5132C15.0942 29.4477 14.9847 29.3894 14.8023 29.3603C14.6198 29.3312 14.5104 29.2729 14.5104 29.2074C14.5104 29.1419 14.4301 29.1055 14.2623 29.1055C14.0798 29.1055 14.0068 29.0691 13.9777 28.9599C13.9485 28.8434 13.8755 28.8143 13.6128 28.8143C13.3501 28.8143 13.2771 28.7852 13.2479 28.6687C13.2187 28.5595 13.1458 28.5231 12.9852 28.5231C12.8393 28.5231 12.759 28.4867 12.759 28.4212C12.759 28.363 12.6933 28.2974 12.6203 28.2683C12.5401 28.2465 12.4598 28.13 12.4306 27.999C12.4014 27.8679 12.3211 27.766 12.2409 27.7442C12.1679 27.7223 12.1022 27.6641 12.1022 27.6132C12.1022 27.5622 12.0584 27.504 12.0001 27.4821C11.9417 27.4603 11.876 27.3438 11.8468 27.22C11.8176 27.0963 11.7665 26.9944 11.7301 26.9944C11.6936 26.9944 11.6279 26.9143 11.5914 26.8124C11.5549 26.7105 11.4746 26.6304 11.409 26.6304C11.3287 26.6304 11.2995 26.5576 11.2995 26.3756C11.2995 26.2082 11.263 26.1208 11.1973 26.1208C11.139 26.1208 11.0733 26.0116 11.0514 25.866C11.0222 25.7277 10.9784 25.6112 10.9419 25.6112C10.9127 25.6112 10.8471 25.4365 10.796 25.2181C10.7449 24.9997 10.6719 24.8104 10.6354 24.7959C10.5917 24.7813 10.5406 24.5848 10.5187 24.3518C10.4895 24.0752 10.4457 23.9369 10.38 23.9369C10.3144 23.9369 10.2779 23.8568 10.2779 23.733C10.2779 23.3181 10.2049 23.2089 9.9057 23.1652C9.73786 23.1361 9.62111 23.0779 9.62111 23.0196C9.62111 22.9614 9.54813 22.9177 9.43867 22.9177C9.32191 22.9177 9.25624 22.9614 9.25624 23.0269C9.25624 23.0924 9.19056 23.1361 9.0738 23.1361C8.94245 23.1361 8.89136 23.1725 8.89136 23.2817C8.89136 23.3763 8.84028 23.4273 8.74542 23.4273C8.65055 23.4273 8.59947 23.4783 8.59947 23.5729C8.59947 23.6894 8.54839 23.7185 8.38055 23.7185C8.2346 23.7185 8.16162 23.7549 8.16162 23.8277C8.16162 23.9078 8.08135 23.9369 7.86973 23.9369C7.6581 23.9369 7.57783 23.9078 7.57783 23.8277C7.57783 23.7549 7.50486 23.7185 7.32972 23.7185C7.14728 23.7185 7.07431 23.6821 7.04512 23.5729C7.02323 23.4855 6.94296 23.4273 6.85539 23.4273C6.75322 23.4273 6.70214 23.3836 6.70214 23.2817C6.70214 23.2016 6.65836 23.1361 6.59998 23.1361C6.5416 23.1361 6.47592 23.0269 6.45403 22.8813C6.42484 22.743 6.35916 22.6265 6.30808 22.6265C6.23511 22.6265 6.19862 22.4809 6.17673 22.1388C6.16213 21.8549 6.11105 21.6438 6.05997 21.6219C5.99429 21.6001 5.9724 21.287 5.9724 20.5154C5.9724 19.6273 5.99429 19.4307 6.08186 19.3943C6.16213 19.3652 6.19132 19.2487 6.19132 18.9939C6.19132 18.7683 6.22781 18.6081 6.29349 18.5717C6.34457 18.5426 6.41754 18.4115 6.46133 18.2951C6.5343 18.0767 6.5343 18.0767 7.15458 18.0548C7.73108 18.033 7.78216 18.0476 7.81865 18.1859C7.84784 18.2951 7.91351 18.3315 8.11784 18.3315C8.30027 18.3315 8.38055 18.3606 8.38055 18.4407C8.38055 18.528 8.47541 18.5499 8.7819 18.5499C9.08839 18.5499 9.18326 18.528 9.18326 18.4407C9.18326 18.3824 9.23434 18.3315 9.29272 18.3315C9.38759 18.3315 9.40218 18.0621 9.40218 16.3368V14.3422L9.57002 14.2985C9.65759 14.2766 9.84003 14.2548 9.97138 14.2548C10.1392 14.2548 10.2049 14.2184 10.2049 14.1383C10.2049 14.0728 10.2706 14.0073 10.3435 13.9855C10.4311 13.9636 10.5114 13.8617 10.5333 13.7452C10.5552 13.6287 10.6281 13.5195 10.6865 13.4977C10.7449 13.4759 10.7887 13.3885 10.7887 13.3084C10.7887 13.2284 10.8398 13.1628 10.8982 13.1628C10.9565 13.1628 11.0222 13.0609 11.0514 12.9081C11.0733 12.7625 11.139 12.6533 11.1973 12.6533C11.263 12.6533 11.2995 12.5659 11.2995 12.3985C11.2995 12.2383 11.3433 12.1218 11.4017 12.1C11.4601 12.0782 11.5476 11.8962 11.5914 11.6996C11.6425 11.5031 11.7082 11.3429 11.7374 11.3429C11.7738 11.3429 11.8176 11.2119 11.8468 11.0517C11.8833 10.8333 11.9271 10.7605 12.0365 10.7605C12.1241 10.7605 12.1752 10.8115 12.1752 10.8988C12.1752 10.9789 12.219 11.0517 12.2628 11.0663C12.3284 11.0881 12.3649 11.4084 12.3941 12.1437C12.4233 12.8498 12.4671 13.1992 12.5255 13.2211C12.5693 13.2356 12.6276 13.3594 12.6568 13.4977L12.7006 13.7452H13.2406C13.7295 13.7452 13.7806 13.7307 13.7806 13.5996C13.7806 13.5195 13.8317 13.454 13.8901 13.454C13.9485 13.454 13.9996 13.4031 13.9996 13.3448C13.9996 13.2793 14.0506 13.2138 14.109 13.192C14.1674 13.1701 14.2331 13.0391 14.2623 12.9008C14.2842 12.7625 14.3498 12.6533 14.4082 12.6533C14.4593 12.6533 14.525 12.5368 14.5542 12.3985C14.576 12.2529 14.6417 12.1437 14.7001 12.1437C14.7585 12.1437 14.8023 12.0709 14.8023 11.969C14.8023 11.6414 14.8971 11.3429 14.992 11.3429C15.065 11.3429 15.0942 11.2483 15.0942 11.0517C15.0942 10.8552 15.1234 10.7605 15.1963 10.7605C15.2912 10.7605 15.3861 10.4621 15.3861 10.1345C15.3861 10.0253 15.4298 9.95975 15.4955 9.95975C15.5758 9.95975 15.605 9.87967 15.605 9.70496C15.605 9.5448 15.6488 9.42833 15.7071 9.40649C15.7655 9.38465 15.8531 9.20994 15.8969 9.01338C15.9407 8.81683 16.0282 8.64211 16.0866 8.62028C16.145 8.59844 16.1888 8.53292 16.1888 8.4674C16.1888 8.26357 16.3858 8.3582 16.4369 8.58388Z" fill="#2B2C33"/>
<path d="M15.3132 16.84C15.3132 16.9128 15.2403 16.9492 15.087 16.9492C14.9265 16.9492 14.8535 16.9856 14.8243 17.0948C14.8024 17.1749 14.7367 17.2404 14.6857 17.2404C14.6127 17.2404 14.5835 17.3496 14.5835 17.6408C14.5835 17.9466 14.6054 18.0412 14.693 18.0412C14.7513 18.0412 14.8024 18.1067 14.8024 18.1868C14.8024 18.3105 14.8535 18.3324 15.0943 18.3324C15.3059 18.3324 15.3862 18.3615 15.3862 18.4416C15.3862 18.4998 15.4373 18.5508 15.4957 18.5508C15.5541 18.5508 15.6051 18.4998 15.6051 18.4416C15.6051 18.3688 15.6781 18.3324 15.8532 18.3324C16.0941 18.3324 16.1087 18.3178 16.1524 18.0194C16.1816 17.8519 16.1889 17.5462 16.1743 17.3496C16.1524 17.0002 16.1451 16.9856 15.9189 16.9638C15.7657 16.9492 15.6781 16.8983 15.6781 16.8328C15.6781 16.7745 15.6051 16.7308 15.4957 16.7308C15.3789 16.7308 15.3132 16.7745 15.3132 16.84Z" fill="#2B2C33"/>
<path d="M25.0917 16.8324C25.0917 16.8834 25.026 16.9489 24.9458 16.9707C24.8144 17.0071 24.7998 17.0726 24.7998 17.524C24.7998 17.9899 24.8144 18.0408 24.9458 18.0408C25.026 18.0408 25.0917 18.0845 25.0917 18.1428C25.0917 18.252 25.3106 18.332 25.6463 18.332C25.8141 18.332 25.8871 18.2956 25.9163 18.1864C25.9382 18.1064 26.0039 18.0408 26.0696 18.0408C26.1352 18.0408 26.1863 17.9899 26.1863 17.9316C26.1863 17.8734 26.2374 17.8224 26.2958 17.8224C26.376 17.8224 26.4052 17.7424 26.4052 17.5313C26.4052 17.3347 26.376 17.2401 26.3031 17.2401C26.252 17.2401 26.1863 17.1746 26.1644 17.0945C26.1425 17.0144 26.0769 16.9489 26.0112 16.9489C25.9455 16.9489 25.8944 16.8979 25.8944 16.8397C25.8944 16.7523 25.7995 16.7305 25.4931 16.7305C25.2012 16.7305 25.0917 16.7596 25.0917 16.8324Z" fill="#2B2C33"/>
<path d="M20.3191 18.6018C20.1951 18.6309 20.1878 18.6964 20.2243 19.155C20.2389 19.4389 20.2972 19.6864 20.341 19.701C20.3848 19.7156 20.4213 19.7738 20.4213 19.832C20.4213 19.8903 20.487 19.934 20.5673 19.934C20.6475 19.934 20.7132 19.9849 20.7132 20.0431C20.7132 20.1014 20.7789 20.1523 20.8591 20.1523C20.9394 20.1523 21.0051 20.1014 21.0051 20.0431C21.0051 19.9849 21.0708 19.934 21.151 19.934C21.2824 19.934 21.297 19.883 21.297 19.388C21.297 18.973 21.2751 18.842 21.1948 18.842C21.1437 18.842 21.0781 18.7765 21.0562 18.6964C21.027 18.5799 20.9613 18.5508 20.7351 18.5581C20.5818 18.5654 20.3994 18.5799 20.3191 18.6018Z" fill="#2B2C33"/>
<path d="M17.7942 23.0251C17.7942 23.0979 17.7212 23.1343 17.5607 23.1343C17.2104 23.1343 16.9915 23.2071 16.9915 23.3236C16.9915 23.3891 16.9039 23.4255 16.7434 23.4255C16.5171 23.4255 16.4952 23.4473 16.4515 23.6803C16.4223 23.8186 16.3712 23.9351 16.3274 23.9351C16.1815 23.9351 16.1085 24.3354 16.1523 24.8232C16.1888 25.1726 16.2325 25.3182 16.3055 25.3182C16.3639 25.3182 16.4077 25.391 16.4077 25.4929C16.4077 25.8205 16.5025 26.119 16.5974 26.119C16.6631 26.119 16.6996 26.2063 16.6996 26.3665C16.6996 26.5485 16.7361 26.6213 16.8455 26.6504C16.9258 26.6722 16.9915 26.7378 16.9915 26.8033C16.9915 26.8688 17.0426 26.9198 17.1009 26.9198C17.1593 26.9198 17.2104 26.9853 17.2104 27.0654C17.2104 27.16 17.2615 27.2109 17.3563 27.2109C17.4366 27.2109 17.5023 27.2619 17.5023 27.3201C17.5023 27.3929 17.6045 27.4439 17.7942 27.473C17.9693 27.5021 18.0861 27.5604 18.0861 27.6186C18.0861 27.6914 18.1809 27.7205 18.3707 27.7205C18.8012 27.7205 19.1077 27.8006 19.1077 27.9098C19.1077 27.9899 19.2391 28.0117 19.655 28.0117C20.0856 28.0117 20.2023 27.9899 20.2023 27.9098C20.2023 27.7933 20.6548 27.6987 21.0415 27.7278C21.1656 27.7424 21.4502 27.7424 21.6837 27.7351C21.9975 27.7205 22.0997 27.6914 22.0997 27.6113C22.0997 27.5458 22.1653 27.5021 22.2529 27.5021C22.3405 27.5021 22.4207 27.4439 22.4426 27.3565C22.4718 27.2546 22.5448 27.2109 22.6907 27.2109C22.8513 27.2109 22.9024 27.1745 22.9024 27.0654C22.9024 26.9707 22.9535 26.9198 23.0483 26.9198C23.1432 26.9198 23.1943 26.8688 23.1943 26.7742C23.1943 26.6941 23.2454 26.6286 23.3037 26.6286C23.3621 26.6286 23.4132 26.5776 23.4132 26.5121C23.4132 26.4466 23.4789 26.3811 23.5591 26.3592C23.6613 26.3301 23.7051 26.2573 23.7051 26.1117C23.7051 25.9879 23.7489 25.8788 23.8073 25.8569C23.8656 25.8351 23.9532 25.6458 24.0043 25.442C24.0481 25.2309 24.121 25.0416 24.1575 25.0197C24.194 24.9979 24.2378 24.8086 24.267 24.6048C24.2962 24.3573 24.34 24.2262 24.4056 24.2262C24.4786 24.2262 24.5078 24.1171 24.5078 23.8259C24.5078 23.5347 24.4786 23.4255 24.4056 23.4255C24.3473 23.4255 24.2816 23.3163 24.2597 23.1707L24.2086 22.9159H23.4132C22.7491 22.9159 22.6105 22.9377 22.6105 23.0251C22.6105 23.1197 22.3843 23.1343 21.005 23.1343C19.6258 23.1343 19.3996 23.1197 19.3996 23.0251C19.3996 22.9377 19.261 22.9159 18.5969 22.9159C17.9328 22.9159 17.7942 22.9377 17.7942 23.0251ZM18.0715 24.3136C18.1153 24.4883 18.1299 24.714 18.108 24.8232C18.0715 25.0052 18.035 25.027 17.7869 25.027C17.5899 25.027 17.5023 24.9979 17.5023 24.9251C17.5023 24.8741 17.4366 24.8086 17.3563 24.7868C17.2761 24.7649 17.2104 24.6994 17.2104 24.6412C17.2104 24.5757 17.2761 24.5029 17.3563 24.481C17.4366 24.4592 17.5023 24.3864 17.5023 24.3282C17.5023 24.2699 17.568 24.2262 17.6482 24.2262C17.7285 24.2262 17.7942 24.1753 17.7942 24.1171C17.7942 23.8768 17.9985 24.0224 18.0715 24.3136ZM19.6915 24.1171C19.6915 24.1753 19.7353 24.2262 19.7937 24.2262C19.9615 24.2262 20.0053 24.3573 19.9469 24.7067L19.9031 25.027H19.5383H19.1807V24.6266C19.1807 24.4082 19.2172 24.2262 19.2537 24.2262C19.2975 24.2262 19.3266 24.1753 19.3266 24.1171C19.3266 24.0515 19.3923 24.0079 19.5091 24.0079C19.6258 24.0079 19.6915 24.0515 19.6915 24.1171ZM23.4132 24.1171C23.4132 24.1753 23.384 24.2262 23.3402 24.2262C23.3037 24.2262 23.2454 24.3573 23.2235 24.5174L23.1724 24.8086H22.7856H22.3916V24.5174C22.3916 24.3063 22.4207 24.2262 22.501 24.2262C22.5594 24.2262 22.6105 24.1753 22.6105 24.1171C22.6105 24.0297 22.7053 24.0079 23.0118 24.0079C23.3183 24.0079 23.4132 24.0297 23.4132 24.1171ZM21.2969 24.6266C21.2969 24.9688 21.275 25.027 21.1583 25.027C21.0707 25.027 21.0123 24.9615 20.9832 24.8232C20.9175 24.5102 21.005 24.2262 21.1583 24.2262C21.275 24.2262 21.2969 24.2845 21.2969 24.6266ZM18.0715 26.2427C18.0569 26.3155 17.9985 26.3738 17.9401 26.3738C17.8818 26.3738 17.8234 26.3155 17.8088 26.2427C17.7942 26.1554 17.8307 26.119 17.9401 26.119C18.0496 26.119 18.0861 26.1554 18.0715 26.2427ZM19.9469 26.1991C19.9761 26.2427 19.9761 26.4175 19.9469 26.5994C19.9031 26.9125 19.8958 26.9198 19.6112 26.9198C19.4069 26.9198 19.3266 26.8906 19.3266 26.8106C19.3266 26.7523 19.2975 26.7014 19.2537 26.7014C19.2172 26.7014 19.1807 26.5703 19.1807 26.4102V26.119H19.5383C19.7426 26.119 19.925 26.1554 19.9469 26.1991ZM21.2969 26.2282C21.2969 26.2864 21.3991 26.3519 21.5524 26.3811C22.0267 26.4684 21.8078 26.7014 21.2459 26.7014C21.0123 26.7014 21.005 26.6868 21.005 26.4102C21.005 26.1699 21.0269 26.119 21.151 26.119C21.2313 26.119 21.2969 26.1699 21.2969 26.2282Z" fill="#2B2C33"/>
</svg>
