<svg width="36" height="36" viewBox="0 0 36 36" fill="none" xmlns="http://www.w3.org/2000/svg">
<path d="M7.40413 24.5067C7.8845 24.5499 8.07737 24.92 8.11376 25.0997L9.47844 24.5067L10.5702 27.3098L12.1532 28.4957C12.881 28.8731 14.3585 29.6816 14.4459 29.8972C14.5551 30.1668 20.0138 30.4902 20.1775 30.4902C20.3085 30.4902 22.0153 30.0949 22.8523 29.8972C23.289 29.6098 24.2061 29.0024 24.3807 28.8731C24.5991 28.7113 24.9266 27.5255 25.0358 27.3098C25.145 27.0942 25.145 26.3396 25.1996 26.1778C25.2432 26.0485 25.8364 25.6927 26.1275 25.531C26.4733 25.2974 27.1865 24.7979 27.2739 24.6685C27.383 24.5068 27.9289 24.2912 28.1473 24.1295C28.3219 24.0001 28.8023 24.0756 29.0207 24.1295C29.2754 23.86 29.8176 23.2778 29.9486 23.1053C30.0796 22.9328 30.8766 22.6381 31.2587 22.5123H32.6234C32.8054 22.3147 33.1693 21.8763 33.1693 21.7038C33.1693 21.5313 33.0237 21.0569 32.9509 20.8413L32.2959 19.332L31.5863 17.9844C31.5317 17.8766 31.4552 17.6609 31.5863 17.6609C31.7173 17.6609 32.1139 17.2656 32.2959 17.068L31.75 16.6368L29.9486 14.8579L28.6931 14.0494L27.7106 13.2947C27.3466 12.8635 26.597 12.001 26.5096 12.001C26.4005 12.001 26.1821 10.9229 26.1275 10.9229C26.0839 10.9229 25.709 10.2042 25.5271 9.84481H24.1624L22.4156 9.41357L21.9789 8.5511L23.7803 7.20349L23.1252 6.55664H20.5051L17.6119 7.79644L13.4087 7.20349H11.9349L12.8083 8.5511L12.3716 8.98234L10.5702 9.84481L7.40413 10.9229L8.11376 12.001L6.96743 12.4322L5.98486 13.2947L5.32982 14.2111L5.98486 14.6423V15.0735L5.32982 16.1516V16.7985L4.07431 18.5773L2 21.3804L3.63762 20.9491L4.51101 21.7577L2.76422 25.531L4.07431 25.0997C4.9841 24.8841 6.92376 24.4636 7.40413 24.5067Z" fill="white"/>
<path d="M20.6142 6.02834C20.4731 6.04524 20.3997 6.07904 20.3997 6.13537C20.3997 6.1917 20.3206 6.21424 20.0721 6.21424C19.818 6.21424 19.7277 6.23677 19.6486 6.3269C19.5809 6.40576 19.4849 6.43956 19.3268 6.43956C19.1687 6.43956 19.1009 6.46209 19.1009 6.51842C19.1009 6.56912 19.0162 6.61419 18.875 6.63672C18.7339 6.65925 18.6492 6.70432 18.6492 6.75502C18.6492 6.80571 18.587 6.83388 18.4515 6.83388C18.3273 6.83388 18.2369 6.86768 18.2031 6.92964C18.1522 7.01414 18.1353 7.01977 18.0901 6.95218C18.0619 6.91274 17.9094 6.86205 17.7513 6.84515C17.4859 6.82261 17.4633 6.82825 17.4633 6.94091C17.4633 7.04794 17.4294 7.0592 17.1528 7.0592C16.9212 7.0592 16.8365 7.03667 16.7914 6.95781C16.7462 6.87894 16.6389 6.85641 16.142 6.84515C15.7072 6.82825 15.5434 6.80571 15.5434 6.75502C15.5434 6.68178 14.7359 6.60855 13.9793 6.60855C13.7534 6.60855 13.68 6.58602 13.68 6.52406C13.68 6.45083 13.5501 6.43956 12.833 6.43956C12.1384 6.43956 11.9859 6.45646 11.9859 6.51842C11.9859 6.56349 11.9125 6.61419 11.8222 6.63672C11.6867 6.66489 11.6471 6.70995 11.602 6.90711C11.5342 7.1775 11.5737 7.44789 11.681 7.49296C11.7262 7.50985 11.7601 7.55492 11.7601 7.59998C11.7601 7.64505 11.8109 7.67885 11.873 7.67885C11.9408 7.67885 11.9859 7.71828 11.9859 7.76898C11.9859 7.81968 12.0368 7.87038 12.0989 7.88727C12.1836 7.90981 12.2118 7.96614 12.2118 8.10697C12.2118 8.23653 12.1836 8.29849 12.1328 8.29849C12.0819 8.29849 12.0368 8.38299 12.0142 8.52382C11.9916 8.66465 11.9464 8.74914 11.8956 8.74914C11.8504 8.74914 11.8165 8.78857 11.8165 8.83364C11.8165 8.87871 11.7657 8.91814 11.7092 8.91814C11.5398 8.91814 11.4213 8.9801 11.4213 9.0646C11.4213 9.12093 11.3535 9.14346 11.1954 9.14346C11.0373 9.14346 10.9695 9.16599 10.9695 9.22796C10.9695 9.27302 10.8905 9.32372 10.7719 9.34625C10.6589 9.36315 10.5742 9.41385 10.5742 9.45892C10.5742 9.51525 10.5008 9.53778 10.3484 9.53778C10.162 9.53778 10.1225 9.55468 10.1225 9.65044C10.1225 9.75184 10.083 9.76311 9.81193 9.76311C9.58605 9.76311 9.50135 9.78564 9.50135 9.84197C9.50135 9.9321 9.33195 9.98843 9.06655 9.98843C8.93667 9.98843 8.88021 10.0166 8.88021 10.0729C8.88021 10.1236 8.82938 10.1574 8.74468 10.1574C8.49058 10.1574 8.25906 10.2307 8.25906 10.3039C8.25906 10.3546 8.1913 10.3828 8.06707 10.3828C7.9259 10.3828 7.86943 10.4109 7.84684 10.4954C7.82426 10.5799 7.76779 10.6081 7.61532 10.6081C7.4798 10.6081 7.41204 10.6362 7.41204 10.6869C7.41204 10.7376 7.32734 10.7827 7.18617 10.8052C7.045 10.8278 6.9603 10.8728 6.9603 10.9235C6.9603 10.9742 6.89253 11.0024 6.76266 11.0024C6.60455 11.0024 6.56502 11.0249 6.56502 11.1151C6.56502 11.2052 6.52549 11.2277 6.36738 11.2277C6.23751 11.2277 6.16975 11.2559 6.16975 11.3066C6.16975 11.346 6.11892 11.3967 6.05681 11.4136C5.9947 11.4305 5.94387 11.4812 5.94387 11.5319C5.94387 11.5826 5.90435 11.622 5.85917 11.622C5.79706 11.622 5.77447 11.684 5.77447 11.8474C5.77447 12.0107 5.79706 12.0727 5.85917 12.0727C5.90435 12.0727 5.94387 12.1065 5.94387 12.1516C5.94387 12.2079 6.01728 12.2417 6.15281 12.2529C6.30527 12.2642 6.37303 12.298 6.38432 12.3656C6.39562 12.4388 6.36738 12.467 6.28833 12.467C6.20927 12.467 6.16975 12.5008 6.16975 12.5797C6.16975 12.6529 6.13022 12.6923 6.05681 12.6923C5.9947 12.6923 5.94387 12.7261 5.94387 12.7712C5.94387 12.8106 5.89305 12.8613 5.83094 12.8782C5.76882 12.8951 5.718 12.9458 5.718 12.9965C5.718 13.0472 5.67847 13.0867 5.6333 13.0867C5.58813 13.0867 5.5486 13.1374 5.5486 13.1993C5.5486 13.2725 5.50907 13.312 5.43566 13.312C5.36225 13.312 5.32273 13.3514 5.32273 13.4246C5.32273 13.4866 5.28885 13.5373 5.24367 13.5373C5.1872 13.5373 5.15332 13.65 5.12509 13.9147C5.09121 14.2245 5.1025 14.3034 5.17591 14.3597C5.22673 14.3935 5.26626 14.4499 5.26626 14.4893C5.26626 14.5231 5.32837 14.5513 5.40178 14.5513C5.50342 14.5513 5.54295 14.5907 5.56554 14.7146C5.60507 14.9005 5.49778 15.1709 5.39614 15.1709C5.35661 15.1709 5.32273 15.2047 5.32273 15.2498C5.32273 15.2892 5.27191 15.3399 5.20979 15.3568C5.14203 15.3737 5.09686 15.4357 5.09686 15.5033C5.09686 15.5709 5.06297 15.6216 5.01215 15.6216C4.96698 15.6216 4.92745 15.661 4.92745 15.7061C4.92745 15.7455 4.88228 15.8075 4.83146 15.8413C4.68464 15.9201 4.64511 16.7876 4.78063 16.8383C4.89357 16.8834 4.89922 17.0073 4.78628 17.0524C4.74111 17.0693 4.70158 17.12 4.70158 17.1707C4.70158 17.2157 4.66205 17.2552 4.61688 17.2552C4.5717 17.2552 4.53218 17.2946 4.53218 17.3453C4.53218 17.396 4.48136 17.4467 4.41924 17.4636C4.35713 17.4805 4.3063 17.5312 4.3063 17.5763C4.3063 17.6213 4.25548 17.672 4.19337 17.6889C4.13125 17.7058 4.08043 17.7565 4.08043 17.7959C4.08043 17.841 4.04091 17.8748 3.99573 17.8748C3.95056 17.8748 3.91103 17.9255 3.91103 17.9875C3.91103 18.0607 3.8715 18.1001 3.80374 18.1001C3.73033 18.1001 3.68516 18.1565 3.66257 18.2917C3.63998 18.4156 3.58916 18.4945 3.51575 18.5114C3.45364 18.5283 3.40282 18.579 3.40282 18.6297C3.40282 18.6803 3.36329 18.7198 3.31812 18.7198C3.27294 18.7198 3.23341 18.7592 3.23341 18.8043C3.23341 18.855 3.19389 18.9057 3.14871 18.9226C3.10354 18.9451 3.06401 18.9958 3.06401 19.0409C3.06401 19.0859 3.01319 19.1366 2.95107 19.1535C2.87767 19.1704 2.82684 19.2493 2.80426 19.3732C2.78732 19.4803 2.7365 19.5647 2.69132 19.5647C2.64615 19.5647 2.61227 19.6154 2.61227 19.6774C2.61227 19.7394 2.57274 19.7901 2.52756 19.7901C2.48239 19.7901 2.43157 19.8689 2.40898 19.9872C2.39204 20.0943 2.34122 20.1844 2.30169 20.1844C2.26217 20.1844 2.21699 20.2971 2.20005 20.4773C2.17746 20.6407 2.13794 20.7815 2.10406 20.7928C2.025 20.8209 1.97418 21.1702 2.01371 21.3955C2.04194 21.542 2.08712 21.5983 2.18876 21.6265C2.26781 21.6434 2.32993 21.6941 2.32993 21.7391C2.32993 21.7955 2.41463 21.818 2.66873 21.818C2.93413 21.818 3.00754 21.8011 3.00754 21.7335C3.00754 21.6659 3.10354 21.649 3.51575 21.649C3.92797 21.649 4.02396 21.6659 4.02396 21.7335C4.02396 21.7786 4.00138 21.818 3.97314 21.818C3.94491 21.818 3.90538 21.9194 3.8828 22.0433C3.86021 22.1785 3.81503 22.2687 3.76986 22.2687C3.72468 22.2687 3.67386 22.3531 3.65128 22.4658C3.63434 22.5785 3.58352 22.663 3.53834 22.663C3.49317 22.663 3.45929 22.7137 3.45929 22.7756C3.45929 22.8376 3.4254 22.8883 3.38023 22.8883C3.33506 22.8883 3.28424 22.9728 3.26729 23.0911C3.24471 23.1981 3.19389 23.2995 3.14871 23.3164C3.10354 23.3333 3.05272 23.4347 3.03013 23.5417C3.01319 23.6488 2.96237 23.7333 2.92284 23.7333C2.88331 23.7333 2.83814 23.8459 2.8212 24.0262C2.79861 24.1839 2.75908 24.3304 2.7252 24.3529C2.62921 24.4092 2.5558 25.0683 2.59533 25.4626C2.62356 25.7612 2.64615 25.8175 2.73085 25.8175C2.79296 25.8175 2.83814 25.857 2.83814 25.902C2.83814 25.9696 2.93413 25.9865 3.34635 25.9865C3.75857 25.9865 3.85456 25.9696 3.85456 25.902C3.85456 25.8344 3.93362 25.8175 4.23854 25.8175C4.69029 25.8175 4.87098 25.7725 4.87098 25.6711C4.87098 25.6147 4.93874 25.5922 5.09121 25.5922C5.26061 25.5922 5.31708 25.5697 5.33967 25.4795C5.36225 25.3838 5.41872 25.3669 5.65589 25.3669C5.87611 25.3669 5.94387 25.3443 5.94387 25.2824C5.94387 25.2317 5.9947 25.1979 6.08504 25.1979C6.17539 25.1979 6.22621 25.2317 6.22621 25.2824C6.22621 25.3274 6.26574 25.3669 6.31092 25.3669C6.35609 25.3669 6.39562 25.3274 6.39562 25.2824C6.39562 25.2204 6.45773 25.1979 6.5989 25.1979C6.75137 25.1979 6.80783 25.1697 6.83042 25.0852C6.85301 25.0007 6.90948 24.9726 7.05065 24.9726C7.17487 24.9726 7.24264 25.0007 7.24264 25.0514C7.24264 25.1415 7.41204 25.1979 7.68309 25.1979C7.80732 25.1979 7.86378 25.226 7.86378 25.2824C7.86378 25.3443 7.93154 25.3669 8.14612 25.3669C8.34941 25.3669 8.42846 25.3443 8.42846 25.288C8.42846 25.2429 8.51881 25.1979 8.65433 25.1753C8.80115 25.1528 8.88021 25.1134 8.88021 25.057C8.88021 25.012 8.93103 24.9726 8.99314 24.9726C9.05526 24.9726 9.12302 24.9331 9.13996 24.8881C9.17384 24.8092 9.18513 24.8148 9.25289 24.8993C9.29242 24.9557 9.33195 25.0402 9.33195 25.0965C9.33195 25.1472 9.36018 25.1979 9.39406 25.2091C9.42794 25.2204 9.46747 25.35 9.48441 25.5021C9.50135 25.6542 9.55217 25.7837 9.5917 25.8006C9.63688 25.8175 9.6877 25.9302 9.70464 26.0541C9.72722 26.178 9.77805 26.3076 9.81757 26.347C9.8571 26.3865 9.90792 26.516 9.92486 26.6287C9.94745 26.747 9.99827 26.8315 10.0434 26.8315C10.0886 26.8315 10.1225 26.8822 10.1225 26.9441C10.1225 27.0061 10.1564 27.0568 10.2016 27.0568C10.2467 27.0568 10.2976 27.1413 10.3145 27.254C10.3371 27.3723 10.3879 27.4511 10.4331 27.4511C10.4782 27.4511 10.5178 27.5018 10.5178 27.5638C10.5178 27.6258 10.5517 27.6765 10.5912 27.6765C10.6307 27.6765 10.6985 27.7666 10.7436 27.8736C10.7888 27.9806 10.8566 28.0708 10.8961 28.0708C10.9356 28.0708 10.9695 28.1215 10.9695 28.1834C10.9695 28.2454 11.0034 28.2961 11.0486 28.2961C11.0881 28.2961 11.1389 28.3468 11.1559 28.4088C11.1728 28.4764 11.2349 28.5214 11.3027 28.5214C11.3704 28.5214 11.4213 28.5552 11.4213 28.6003C11.4213 28.6454 11.5003 28.6961 11.5907 28.7186C11.6867 28.7411 11.7601 28.7918 11.7601 28.8369C11.7601 28.8876 11.8278 28.9157 11.9634 28.9157C12.1158 28.9157 12.1723 28.9439 12.1949 29.0284C12.2175 29.1185 12.2739 29.1411 12.4433 29.1411C12.5958 29.1411 12.6636 29.1636 12.6636 29.2256C12.6636 29.2706 12.7426 29.3213 12.8612 29.3439C12.9741 29.3608 13.0588 29.4115 13.0588 29.4565C13.0588 29.5072 13.1266 29.5354 13.2621 29.5354C13.4146 29.5354 13.471 29.5636 13.4936 29.648C13.5162 29.7438 13.5727 29.7607 13.7986 29.7607C13.9962 29.7607 14.0753 29.7832 14.0753 29.8396C14.0753 29.9241 14.3124 29.986 14.6456 29.986C14.8037 29.986 14.8658 30.0086 14.8658 30.0705C14.8658 30.1269 14.9223 30.155 15.0296 30.155C15.3063 30.155 15.5434 30.2226 15.5434 30.3015C15.5434 30.3578 15.6338 30.3804 15.8822 30.3804C16.1307 30.3804 16.221 30.4029 16.221 30.4592C16.221 30.5662 16.4017 30.6057 16.9721 30.6057C17.373 30.6057 17.4633 30.6226 17.4633 30.6902C17.4633 30.7578 17.5537 30.7747 17.932 30.7747C18.9936 30.7747 19.9479 30.8479 19.9479 30.9268C19.9479 30.9831 20.0891 31 20.5973 31C21.1394 31 21.2467 30.9831 21.2467 30.9155C21.2467 30.8592 21.3031 30.831 21.433 30.831C21.8339 30.831 22.2066 30.7578 22.2066 30.6845C22.2066 30.6282 22.28 30.6057 22.4269 30.6057C22.7036 30.6057 22.8278 30.5606 22.8278 30.4592C22.8278 30.4029 22.9068 30.3804 23.1327 30.3804C23.3868 30.3804 23.4376 30.3635 23.4659 30.2677C23.4828 30.2001 23.5449 30.155 23.6127 30.155C23.6804 30.155 23.7313 30.1212 23.7313 30.0762C23.7313 30.0367 23.8103 29.986 23.9007 29.9635C24.0023 29.9466 24.0701 29.8959 24.0701 29.8452C24.0701 29.8001 24.1209 29.7607 24.183 29.7607C24.2564 29.7607 24.2959 29.7213 24.2959 29.648C24.2959 29.5748 24.3355 29.5354 24.4089 29.5354C24.4766 29.5354 24.5218 29.496 24.5218 29.4453C24.5218 29.3946 24.5726 29.3439 24.6348 29.327C24.6969 29.3101 24.7477 29.2594 24.7477 29.2199C24.7477 29.1749 24.7985 29.1411 24.8606 29.1411C24.934 29.1411 24.9736 29.1016 24.9736 29.0284C24.9736 28.9552 25.0131 28.9157 25.0865 28.9157C25.1486 28.9157 25.1994 28.8819 25.1994 28.8369C25.1994 28.7918 25.239 28.7467 25.2841 28.7242C25.3293 28.7073 25.3688 28.6454 25.3688 28.5834C25.3688 28.5214 25.4084 28.4313 25.4592 28.3862C25.5044 28.3355 25.5608 28.1553 25.5778 27.9863C25.6004 27.7947 25.6399 27.6765 25.6794 27.6765C25.7302 27.6765 25.7585 27.5075 25.7754 27.0793C25.7923 26.5893 25.8149 26.4766 25.894 26.4315C25.9505 26.3977 25.99 26.3076 25.99 26.2175C25.99 26.0428 26.0916 25.9865 26.4022 25.9865C26.4982 25.9865 26.5547 25.9584 26.5547 25.902C26.5547 25.8513 26.6055 25.8175 26.6958 25.8175C26.7975 25.8175 26.837 25.7894 26.837 25.7049C26.837 25.6147 26.8765 25.5922 27.0346 25.5922C27.1928 25.5922 27.2323 25.5697 27.2323 25.4795C27.2323 25.4063 27.2718 25.3669 27.3452 25.3669C27.4073 25.3669 27.4581 25.3274 27.4581 25.2824C27.4581 25.2373 27.4977 25.1979 27.5485 25.1979C27.5993 25.1979 27.6501 25.1472 27.6671 25.0852C27.684 25.0233 27.7348 24.9726 27.7744 24.9726C27.8195 24.9726 27.8534 24.9219 27.8534 24.8599C27.8534 24.7867 27.893 24.7472 27.9664 24.7472C28.0567 24.7472 28.0793 24.7078 28.0793 24.5501C28.0793 24.4205 28.1075 24.3529 28.1584 24.3529C28.2092 24.3529 28.2543 24.2684 28.2769 24.1276C28.2995 24.0037 28.3447 23.9023 28.3842 23.9023C28.5423 23.9023 28.5593 20.8998 28.4068 20.7984C28.3786 20.7815 28.3334 20.6069 28.3052 20.4097C28.2713 20.1844 28.2205 20.0323 28.1696 20.0041C28.1188 19.976 28.0793 19.9196 28.0793 19.8802C28.0793 19.8351 28.0285 19.7901 27.9664 19.7732C27.9042 19.7563 27.8534 19.7056 27.8534 19.6549C27.8534 19.6042 27.8139 19.5647 27.7687 19.5647C27.7235 19.5647 27.684 19.5141 27.684 19.4521C27.684 19.3789 27.6445 19.3394 27.5711 19.3394C27.509 19.3394 27.4581 19.3056 27.4581 19.2606C27.4581 19.1479 27.2775 19.1141 26.6845 19.1141C26.1989 19.1141 26.1594 19.1085 26.1594 19.0014C26.1594 18.9395 26.1368 18.8888 26.1029 18.8888C26.0747 18.8888 26.0465 18.8493 26.0465 18.8043C26.0465 18.7592 26.0747 18.7198 26.1029 18.7198C26.1368 18.7198 26.1594 18.3649 26.1594 17.7621C26.1594 17.1594 26.1368 16.8045 26.1029 16.8045C26.0747 16.8045 26.0465 16.7651 26.0465 16.72C26.0465 16.675 26.0747 16.6355 26.1029 16.6355C26.1368 16.6355 26.1594 16.5341 26.1594 16.4102C26.1594 16.2863 26.1368 16.1849 26.1029 16.1849C26.0747 16.1849 26.0465 16.1454 26.0465 16.1004C26.0465 16.0553 26.0747 16.0159 26.1029 16.0159C26.1368 16.0159 26.1594 15.9257 26.1594 15.8187C26.1594 15.6835 26.1312 15.6216 26.0747 15.6216C26.0295 15.6216 25.99 15.5709 25.99 15.5089C25.99 15.4075 25.9505 15.3962 25.6794 15.3962C25.4084 15.3962 25.3688 15.385 25.3688 15.2836C25.3688 15.2216 25.335 15.1709 25.2898 15.1709C25.2503 15.1709 25.1994 15.1202 25.1825 15.0582C25.1656 14.9963 25.1147 14.9456 25.0639 14.9456C25.0131 14.9456 24.9736 14.9062 24.9736 14.8611C24.9736 14.7935 24.9002 14.7766 24.6348 14.7766H24.2959V14.5513C24.2959 14.3992 24.2734 14.3259 24.2169 14.3259C24.1717 14.3259 24.1209 14.2414 24.104 14.1288C24.0814 14.0105 24.0305 13.9316 23.9854 13.9316C23.9402 13.9316 23.9007 13.8809 23.9007 13.819C23.9007 13.7457 23.8611 13.7063 23.7877 13.7063C23.7143 13.7063 23.6748 13.6669 23.6748 13.5936C23.6748 13.5204 23.6353 13.481 23.5619 13.481C23.4998 13.481 23.4489 13.4415 23.4489 13.3965C23.4489 13.3289 23.3699 13.312 23.0537 13.312C22.7544 13.312 22.6584 13.3289 22.6584 13.3908C22.6584 13.4359 22.5737 13.4866 22.4607 13.5035C22.3422 13.526 22.2631 13.5767 22.2631 13.6274C22.2631 13.6725 22.2236 13.7232 22.1784 13.7401C22.1332 13.7626 22.0937 13.8077 22.0937 13.8528C22.0937 13.8978 22.0711 13.9316 22.0372 13.9316C22.009 13.9316 21.9808 13.9823 21.9808 14.0443C21.9808 14.1062 21.9412 14.1569 21.8961 14.1569C21.8396 14.1569 21.8114 14.2189 21.8114 14.3541C21.8114 14.5118 21.7888 14.5513 21.6984 14.5513C21.6363 14.5513 21.5855 14.5175 21.5855 14.4724C21.5855 14.4273 21.5516 14.3823 21.5064 14.3654C21.4669 14.3485 21.4161 14.2414 21.3935 14.1344C21.3709 14.0218 21.3314 13.9316 21.3031 13.9316C21.2749 13.9316 21.2354 13.8415 21.2128 13.7288C21.1902 13.6218 21.1394 13.5148 21.0999 13.4979C21.0603 13.481 21.0095 13.3852 20.9869 13.2782C20.97 13.1711 20.9192 13.0867 20.8796 13.0867C20.8401 13.0867 20.7893 12.9965 20.7723 12.8895C20.7498 12.7712 20.6989 12.6923 20.6538 12.6923C20.6086 12.6923 20.5691 12.6416 20.5691 12.5797C20.5691 12.4952 20.5295 12.467 20.4279 12.467C20.3432 12.467 20.2867 12.4332 20.2867 12.3881C20.2867 12.2867 20.1117 12.2417 19.6769 12.2417C19.3607 12.2417 19.3098 12.2586 19.2872 12.3543C19.2703 12.4163 19.2195 12.467 19.18 12.467C19.1348 12.467 19.1009 12.5177 19.1009 12.5797C19.1009 12.6416 19.067 12.6923 19.0218 12.6923C18.9315 12.6923 18.875 12.8613 18.875 13.1261C18.875 13.2444 18.8468 13.312 18.796 13.312C18.7395 13.312 18.7113 13.4134 18.6943 13.6781C18.6604 14.2527 18.5588 14.264 18.4798 13.7007C18.4515 13.5091 18.4007 13.3345 18.3668 13.312C18.3329 13.2894 18.2878 13.1317 18.2708 12.9571C18.2539 12.7768 18.22 12.636 18.1974 12.636C18.1692 12.636 18.124 12.5121 18.0845 12.36C18.0506 12.2079 17.9828 12.0671 17.9377 12.0502C17.8925 12.0333 17.8586 11.9826 17.8586 11.9319C17.8586 11.8868 17.8247 11.8474 17.7796 11.8474C17.74 11.8474 17.6892 11.7967 17.6723 11.7347C17.644 11.6333 17.5932 11.622 17.2149 11.622C16.8817 11.622 16.7857 11.6389 16.7857 11.7009C16.7857 11.746 16.7349 11.8023 16.6728 11.8192C16.6107 11.8361 16.5598 11.8924 16.5598 11.9375C16.5598 11.9826 16.5203 12.0164 16.4751 12.0164C16.43 12.0164 16.3904 12.0671 16.3904 12.129C16.3904 12.191 16.3566 12.2586 16.3114 12.2755C16.2662 12.2924 16.1984 12.4332 16.1646 12.5853C16.125 12.7374 16.0742 12.8613 16.0516 12.8613C16.0234 12.8613 15.9839 12.9965 15.9669 13.1655C15.9443 13.3458 15.8935 13.4866 15.8483 13.5035C15.8032 13.5204 15.7693 13.5711 15.7693 13.6218C15.7693 13.6669 15.7354 13.7063 15.6902 13.7063C15.5999 13.7063 15.5434 13.3176 15.5434 12.7036C15.5434 12.3938 15.5208 12.2867 15.4587 12.2642C15.4135 12.2417 15.374 12.1628 15.374 12.0783C15.374 11.8361 15.3119 11.684 15.199 11.6502C15.1425 11.6277 15.0917 11.5826 15.0917 11.5375C15.0917 11.4981 15.0126 11.4474 14.9223 11.4249C14.6908 11.3742 14.3011 11.4418 14.3011 11.5375C14.3011 11.577 14.2503 11.622 14.1882 11.6389C14.1261 11.6558 14.0753 11.7065 14.0753 11.7572C14.0753 11.8079 14.0414 11.8474 13.9962 11.8474C13.951 11.8474 13.9002 11.9319 13.8833 12.0445C13.8607 12.1516 13.8099 12.2417 13.7703 12.2417C13.7252 12.2417 13.6743 12.3262 13.6574 12.4332C13.6348 12.5402 13.584 12.6416 13.5388 12.6585C13.488 12.6754 13.4541 12.7656 13.4541 12.8895C13.4541 13.0191 13.4259 13.0867 13.3751 13.0867C13.3016 13.0867 13.2282 13.3176 13.2282 13.5711C13.2282 13.6556 13.1944 13.7063 13.1435 13.7063C13.0871 13.7063 13.0588 13.7683 13.0588 13.9035C13.0588 14.0161 13.025 14.1119 12.9685 14.1457C12.9177 14.1738 12.8668 14.3034 12.8499 14.4442C12.833 14.5794 12.7878 14.7203 12.7483 14.7484C12.7087 14.7822 12.6579 14.8893 12.641 14.9906C12.5901 15.1934 12.3812 15.2554 12.3812 15.0639C12.3812 15.0019 12.3586 14.9456 12.3247 14.9343C12.2965 14.9231 12.257 14.4386 12.2344 13.8021C12.2005 12.9289 12.1779 12.6923 12.1158 12.6923C12.0763 12.6923 12.0424 12.6416 12.0424 12.5797C12.0424 12.4952 12.0029 12.467 11.9012 12.467C11.8109 12.467 11.7601 12.4332 11.7601 12.3825C11.7601 12.3374 11.7375 12.298 11.7036 12.298C11.6754 12.298 11.6471 12.3374 11.6471 12.3825C11.6471 12.4332 11.5963 12.467 11.506 12.467C11.4156 12.467 11.3648 12.5008 11.3648 12.5515C11.3648 12.5966 11.3366 12.636 11.3083 12.636C11.2744 12.636 11.2236 12.698 11.1954 12.7768C11.1672 12.8557 11.1163 12.9177 11.0881 12.9177C11.0542 12.9177 11.0147 13.0078 10.9921 13.1148C10.9752 13.2275 10.9243 13.312 10.8792 13.312C10.834 13.312 10.7888 13.4021 10.7662 13.5429C10.7436 13.6669 10.6928 13.8021 10.6533 13.8415C10.6138 13.8809 10.5629 14.0105 10.546 14.1231C10.5234 14.2358 10.4726 14.3259 10.4331 14.3259C10.3879 14.3259 10.3427 14.4217 10.3201 14.5513C10.2976 14.6921 10.2524 14.7766 10.2016 14.7766C10.1507 14.7766 10.1225 14.8442 10.1225 14.9737C10.1225 15.1033 10.0943 15.1709 10.0434 15.1709C9.99827 15.1709 9.94745 15.2554 9.93051 15.3624C9.90792 15.4695 9.8571 15.5652 9.81757 15.5821C9.7724 15.599 9.72158 15.6892 9.69899 15.7849C9.6764 15.8807 9.64252 15.9595 9.61429 15.9595C9.58605 15.9595 9.55217 15.8807 9.52959 15.7849C9.507 15.6892 9.45618 15.599 9.411 15.5821C9.37148 15.5652 9.32066 15.4357 9.29807 15.2836C9.27548 15.1315 9.22466 14.9963 9.18513 14.9794C9.13996 14.9625 9.10608 14.9118 9.10608 14.8611C9.10608 14.816 9.05526 14.7766 8.99314 14.7766C8.91973 14.7766 8.88021 14.7372 8.88021 14.6639C8.88021 14.5738 8.84068 14.5513 8.68257 14.5513C8.52446 14.5513 8.48493 14.5738 8.48493 14.6639C8.48493 14.7259 8.45105 14.7766 8.40588 14.7766C8.36635 14.7766 8.31553 14.8329 8.29294 14.9005C8.24212 15.1033 8.25341 15.1709 8.34376 15.1709C8.45105 15.1709 8.4454 15.0751 8.45105 17.3791L8.4567 19.3394H8.24776C8.0953 19.3394 8.03319 19.3169 8.03319 19.2549C8.03319 19.1648 8.00495 19.1592 7.44027 19.1423C7.01112 19.131 6.84736 19.1648 6.84736 19.2606C6.84736 19.3056 6.79089 19.3394 6.70619 19.3394C6.60455 19.3394 6.56502 19.3676 6.56502 19.4521C6.56502 19.5141 6.52549 19.5647 6.48032 19.5647C6.43514 19.5647 6.39562 19.6042 6.39562 19.6549C6.39562 19.7056 6.35044 19.7563 6.28833 19.7732C6.20927 19.7901 6.17539 19.8689 6.15281 20.0548C6.13586 20.1957 6.09634 20.3309 6.05681 20.3534C6.02293 20.3759 5.97211 20.6181 5.94387 20.8942C5.92129 21.1702 5.87047 21.4011 5.83658 21.4124C5.75188 21.4406 5.75188 22.4771 5.83658 22.5052C5.87611 22.5165 5.92129 22.7306 5.94387 22.9953C5.96646 23.2544 6.01164 23.4798 6.05116 23.5023C6.08504 23.5248 6.13022 23.6769 6.15281 23.8347C6.18104 24.0713 6.20363 24.1276 6.28833 24.1276C6.46338 24.1276 6.40126 24.4937 6.22057 24.5388C6.1641 24.5557 6.11328 24.6064 6.11328 24.6571C6.11328 24.7191 6.06246 24.7472 5.94387 24.7472C5.83094 24.7472 5.77447 24.7191 5.77447 24.6627C5.77447 24.612 5.72365 24.5782 5.6333 24.5782C5.55425 24.5782 5.49213 24.612 5.49213 24.6571C5.49213 24.7022 5.39614 24.7416 5.20979 24.7641C5.05168 24.781 4.88792 24.8374 4.8371 24.8881C4.77499 24.95 4.63382 24.9726 4.32889 24.9726C4.01267 24.9726 3.91103 24.9895 3.91103 25.0514C3.91103 25.0965 3.83197 25.1415 3.73033 25.1584C3.38588 25.2091 3.352 25.1472 3.46493 24.6346C3.49881 24.4825 3.54399 24.3529 3.57222 24.3529C3.60046 24.3529 3.63434 24.2515 3.65692 24.1276C3.67951 23.998 3.72468 23.9023 3.76986 23.9023C3.80939 23.9023 3.86021 23.8121 3.87715 23.7051C3.89974 23.5981 3.95056 23.5079 3.99008 23.5079C4.03526 23.5079 4.08608 23.4234 4.10302 23.3164C4.12561 23.2094 4.17643 23.108 4.2216 23.0911C4.26678 23.0742 4.3063 23.0235 4.3063 22.9784C4.3063 22.939 4.34583 22.8883 4.38536 22.8714C4.43053 22.8545 4.487 22.7475 4.50959 22.6404C4.52653 22.5278 4.57735 22.4376 4.61688 22.4376C4.65641 22.4376 4.70158 22.3306 4.71852 22.1729C4.73546 22.0264 4.77499 21.8969 4.80887 21.8856C4.88228 21.8631 4.89357 21.4237 4.81452 21.4237C4.78628 21.4237 4.74675 21.3392 4.72981 21.2322C4.69593 21.0688 4.66205 21.035 4.4983 21.0012C4.38536 20.9843 4.3063 20.9336 4.3063 20.8885C4.3063 20.8209 4.18772 20.804 3.65128 20.804H2.99625L3.03013 20.6294C3.04707 20.5336 3.06401 20.4323 3.06401 20.4041C3.06401 20.3759 3.10354 20.3534 3.14871 20.3534C3.19389 20.3534 3.24471 20.2745 3.26729 20.1562C3.28424 20.0436 3.33506 19.9591 3.38023 19.9591C3.4254 19.9591 3.45929 19.9196 3.45929 19.8746C3.45929 19.8239 3.49881 19.7732 3.54399 19.7563C3.58916 19.7394 3.63998 19.638 3.66257 19.531C3.68516 19.3958 3.73033 19.3394 3.80374 19.3394C3.86585 19.3394 3.91103 19.3056 3.91103 19.2606C3.91103 19.2155 3.95056 19.1704 3.99573 19.1479C4.04091 19.131 4.08043 19.0803 4.08043 19.0352C4.08043 18.9958 4.13125 18.9451 4.19337 18.9282C4.25548 18.9113 4.3063 18.8606 4.3063 18.8099C4.3063 18.7592 4.34583 18.7198 4.39101 18.7198C4.43618 18.7198 4.47571 18.6803 4.47571 18.6297C4.47571 18.579 4.52653 18.5283 4.58864 18.5114C4.65076 18.4945 4.70158 18.4438 4.70158 18.4043C4.70158 18.3593 4.74111 18.3086 4.78628 18.2917C4.83146 18.2691 4.87098 18.2241 4.87098 18.179C4.87098 18.1339 4.9218 18.1001 4.98392 18.1001C5.05733 18.1001 5.09686 18.0607 5.09686 17.9875C5.09686 17.9142 5.13638 17.8748 5.20979 17.8748C5.2832 17.8748 5.32273 17.8354 5.32273 17.7621C5.32273 17.7002 5.36225 17.6495 5.40743 17.6495C5.4526 17.6495 5.49213 17.6157 5.49213 17.5706C5.49213 17.5256 5.55425 17.4354 5.6333 17.3622C5.70671 17.289 5.77447 17.1988 5.77447 17.165C5.77447 17.1256 5.814 17.0862 5.85353 17.0693C6.03422 17.0017 6.03422 16.2412 5.85917 16.2412C5.814 16.2412 5.76882 16.2187 5.75188 16.1905C5.69542 16.1004 5.78576 15.7906 5.86482 15.7906C5.90999 15.7906 5.94387 15.7568 5.94387 15.7117C5.94387 15.6723 5.9947 15.6216 6.05681 15.6047C6.11892 15.5878 6.16975 15.5371 6.16975 15.4864C6.16975 15.4357 6.20363 15.3962 6.2488 15.3962C6.28833 15.3962 6.33915 15.3455 6.35609 15.2836C6.37303 15.2216 6.42385 15.1709 6.46903 15.1709C6.5142 15.1709 6.56502 15.1202 6.58196 15.0582C6.5989 14.9963 6.64972 14.9456 6.70054 14.9456C6.75137 14.9456 6.79089 14.9062 6.79089 14.8611C6.79089 14.8217 6.83042 14.7597 6.88124 14.7315C7.01676 14.6583 7.06194 14.1682 6.93771 14.1231C6.88689 14.1062 6.84736 14.0555 6.84736 14.0105C6.84736 13.9485 6.75701 13.9316 6.48032 13.9316C6.22621 13.9316 6.11328 13.9091 6.11328 13.8584C6.11328 13.6894 6.18669 13.5429 6.28833 13.5204C6.3448 13.5035 6.39562 13.4528 6.39562 13.4021C6.39562 13.3514 6.44079 13.312 6.50855 13.312C6.57067 13.312 6.62149 13.2725 6.62149 13.2275C6.62149 13.1768 6.68925 13.1261 6.78525 13.1092C6.88124 13.0867 6.9603 13.0303 6.97724 12.9684C6.99418 12.9064 7.05629 12.8613 7.12405 12.8613C7.19181 12.8613 7.24264 12.8275 7.24264 12.7768C7.24264 12.7205 7.2991 12.6923 7.41769 12.6923C7.54192 12.6923 7.59838 12.6642 7.62097 12.5797C7.63791 12.5177 7.70003 12.467 7.75649 12.467C7.81861 12.467 7.86378 12.4332 7.86378 12.3881C7.86378 12.3431 7.93719 12.2924 8.03319 12.2698C8.12918 12.2473 8.20259 12.1966 8.20259 12.1516C8.20259 12.1065 8.25341 12.0727 8.31553 12.0727C8.38893 12.0727 8.46234 11.9938 8.5414 11.8248C8.68257 11.5094 8.68257 11.4756 8.53575 11.4361C8.4454 11.4136 8.42282 11.3685 8.43976 11.2165C8.4567 11.0418 8.46799 11.0306 8.69951 11.0137C8.85197 11.0024 8.93667 10.9686 8.93667 10.9235C8.93667 10.8728 9.04396 10.8334 9.24725 10.8052C9.46183 10.7827 9.55782 10.7433 9.55782 10.6869C9.55782 10.6306 9.63123 10.6081 9.84581 10.6081C10.083 10.6081 10.1394 10.5912 10.162 10.4954C10.1846 10.4053 10.2411 10.3828 10.4613 10.3828C10.6815 10.3828 10.738 10.3602 10.7606 10.2701C10.7832 10.1856 10.8396 10.1574 10.9639 10.1574C11.0768 10.1574 11.1389 10.1293 11.1389 10.0786C11.1389 10.0335 11.2293 9.98843 11.3648 9.9659C11.5116 9.94337 11.5907 9.90393 11.5907 9.8476C11.5907 9.78564 11.6528 9.76311 11.8165 9.76311C12.0029 9.76311 12.0424 9.74621 12.0424 9.65044C12.0424 9.54905 12.0819 9.53778 12.353 9.53778C12.624 9.53778 12.6636 9.52088 12.6636 9.43075C12.6636 9.36879 12.6974 9.31246 12.737 9.29556C12.7878 9.27866 12.7878 9.24486 12.7313 9.14346C12.6636 9.03643 12.6636 9.00827 12.7313 8.96884C12.7708 8.94067 12.8217 8.91814 12.8499 8.91814C12.8725 8.91814 12.8894 8.87871 12.8894 8.83364C12.8894 8.77168 12.9572 8.74914 13.1774 8.74914C13.4146 8.74914 13.471 8.73224 13.4936 8.63648C13.5106 8.57452 13.5614 8.52382 13.6009 8.52382C13.6574 8.52382 13.68 8.45059 13.68 8.29849C13.68 8.13513 13.6574 8.07317 13.5953 8.07317C13.5501 8.07317 13.5106 8.03374 13.5106 7.98304C13.5106 7.93234 13.4598 7.88164 13.3976 7.86474C13.3355 7.84784 13.2847 7.79714 13.2847 7.75771C13.2847 7.71265 13.2339 7.67885 13.1718 7.67885C13.104 7.67885 13.0588 7.63942 13.0588 7.58872C13.0588 7.53802 13.008 7.48732 12.9459 7.47042C12.8838 7.45352 12.833 7.40283 12.833 7.36339C12.833 7.30143 12.9515 7.28453 13.3694 7.28453C13.8099 7.28453 13.9059 7.30143 13.9059 7.36903C13.9059 7.44226 14.0301 7.45352 14.6625 7.45352C15.5095 7.45352 15.7693 7.48732 15.7693 7.59998C15.7693 7.66195 15.8766 7.67885 16.221 7.67885C16.5655 7.67885 16.6728 7.69575 16.6728 7.75771C16.6728 7.85348 16.8478 7.90417 17.1697 7.90417C17.373 7.90417 17.4238 7.88164 17.4464 7.79151C17.4803 7.66195 17.6327 7.63942 17.6327 7.76335C17.6327 7.82531 17.7005 7.84784 17.9151 7.84784C18.1297 7.84784 18.1974 7.82531 18.1974 7.76335C18.1974 7.70138 18.2652 7.67885 18.4515 7.67885C18.6322 7.67885 18.7056 7.65632 18.7056 7.59998C18.7056 7.51549 18.875 7.45352 19.1178 7.45352C19.2082 7.45352 19.2703 7.42536 19.2703 7.37466C19.2703 7.32396 19.355 7.2789 19.4962 7.25636C19.6373 7.23383 19.722 7.18877 19.722 7.13807C19.722 7.08174 19.8011 7.0592 20.027 7.0592C20.2811 7.0592 20.3319 7.04231 20.3601 6.94654C20.3884 6.83951 20.4392 6.83388 21.7492 6.83388C23.0706 6.83388 23.1101 6.83951 23.1101 6.94654C23.1101 7.01977 23.0706 7.0592 23.0028 7.0592C22.9464 7.0592 22.8842 7.1099 22.8673 7.17187C22.8504 7.23383 22.7995 7.28453 22.7487 7.28453C22.6979 7.28453 22.6584 7.32396 22.6584 7.36903C22.6584 7.41409 22.6189 7.45352 22.5737 7.45352C22.5285 7.45352 22.489 7.50422 22.489 7.56619C22.489 7.63942 22.4494 7.67885 22.376 7.67885C22.3139 7.67885 22.2631 7.71828 22.2631 7.76335C22.2631 7.81404 22.2236 7.86474 22.1784 7.88164C22.1332 7.89854 22.0824 7.99994 22.0598 8.10697C22.0372 8.23653 21.9921 8.29849 21.9243 8.29849C21.8452 8.29849 21.8227 8.35482 21.8001 8.56325C21.7605 9.0139 21.8057 9.29556 21.9299 9.32936C21.9864 9.34625 22.0372 9.39695 22.0372 9.44765C22.0372 9.51525 22.0993 9.53778 22.3083 9.53778C22.6527 9.53778 22.8278 9.58848 22.8278 9.68424C22.8278 9.74621 22.9746 9.76311 23.5619 9.76311C24.1491 9.76311 24.2959 9.78001 24.2959 9.84197C24.2959 9.9152 24.5275 9.98843 24.7816 9.98843C24.8606 9.98843 24.9171 10.0222 24.9171 10.0673C24.9171 10.1124 25.0018 10.1631 25.1147 10.18C25.2333 10.2025 25.3124 10.2532 25.3124 10.2983C25.3124 10.349 25.3688 10.3828 25.4535 10.3828C25.5382 10.3828 25.5947 10.4165 25.5947 10.4616C25.5947 10.5067 25.6681 10.5574 25.7585 10.5799C25.9448 10.6193 25.99 10.7545 25.99 11.2897C25.99 11.5375 26.0126 11.622 26.069 11.622C26.1142 11.622 26.165 11.7065 26.182 11.8192C26.2046 11.9375 26.2554 12.0164 26.3006 12.0164C26.3457 12.0164 26.3853 12.0671 26.3853 12.129C26.3853 12.2023 26.4248 12.2417 26.4982 12.2417C26.5716 12.2417 26.6111 12.2811 26.6111 12.3543C26.6111 12.4163 26.645 12.467 26.6902 12.467C26.7297 12.467 26.7805 12.5177 26.7975 12.5797C26.8144 12.6416 26.8596 12.6923 26.9048 12.6923C26.9499 12.6923 27.0177 12.7825 27.0629 12.8895C27.1024 12.9965 27.1702 13.0923 27.2153 13.1092C27.2549 13.1261 27.2887 13.1768 27.2887 13.2275C27.2887 13.2725 27.3283 13.312 27.3734 13.312C27.4186 13.312 27.4581 13.3514 27.4581 13.3965C27.4581 13.4415 27.4977 13.481 27.5485 13.481C27.5993 13.481 27.6501 13.5317 27.6671 13.5936C27.684 13.6556 27.7292 13.7063 27.7687 13.7063C27.8083 13.7063 27.8534 13.757 27.8704 13.819C27.8873 13.8809 27.9381 13.9316 27.9833 13.9316C28.0285 13.9316 28.0793 13.9823 28.0962 14.0443C28.1132 14.1062 28.164 14.1569 28.2148 14.1569C28.2656 14.1569 28.3052 14.1907 28.3052 14.2358C28.3052 14.2752 28.356 14.3259 28.4181 14.3428C28.4802 14.3597 28.531 14.4104 28.531 14.4611C28.531 14.5118 28.5762 14.5513 28.644 14.5513C28.7061 14.5513 28.7569 14.5851 28.7569 14.6301C28.7569 14.6752 28.8077 14.7315 28.8698 14.7484C28.932 14.7653 28.9828 14.816 28.9828 14.8611C28.9828 14.9005 29.0618 14.9512 29.1522 14.9737C29.2482 14.9963 29.3216 15.047 29.3216 15.092C29.3216 15.1371 29.3724 15.1709 29.4345 15.1709C29.5079 15.1709 29.5475 15.2103 29.5475 15.2836C29.5475 15.3568 29.587 15.3962 29.6604 15.3962C29.7225 15.3962 29.7733 15.43 29.7733 15.4751C29.7733 15.5145 29.8242 15.5652 29.8863 15.5821C29.9484 15.599 29.9992 15.6497 29.9992 15.6948C29.9992 15.7399 30.0726 15.7906 30.1686 15.8075C30.2703 15.83 30.338 15.8807 30.338 15.9314C30.338 15.9764 30.3832 16.0159 30.4453 16.0159C30.5018 16.0159 30.5639 16.0666 30.5808 16.1285C30.5978 16.1905 30.6486 16.2412 30.6994 16.2412C30.7502 16.2412 30.7898 16.275 30.7898 16.3201C30.7898 16.3651 30.8745 16.4158 30.9874 16.4327C31.106 16.4553 31.185 16.506 31.185 16.551C31.185 16.5961 31.2302 16.6355 31.2923 16.6355C31.3488 16.6355 31.4109 16.6862 31.4278 16.7482C31.4448 16.8101 31.4956 16.8608 31.5464 16.8608C31.5972 16.8608 31.6368 16.9003 31.6368 16.9453C31.6368 16.9904 31.6763 17.0298 31.7215 17.0298C31.7667 17.0298 31.8062 17.0805 31.8062 17.1425C31.8062 17.2326 31.7667 17.2552 31.6085 17.2552C31.473 17.2552 31.4109 17.227 31.4109 17.1707C31.4109 17.1256 31.3318 17.0749 31.2133 17.0524C31.1003 17.0355 31.0156 16.9848 31.0156 16.9397C31.0156 16.8946 30.9648 16.8608 30.9027 16.8608C30.8406 16.8608 30.7898 16.9003 30.7898 16.9453C30.7898 16.9904 30.7389 17.0298 30.6768 17.0298C30.5752 17.0298 30.5639 17.0693 30.5639 17.3453C30.5639 17.6101 30.5808 17.6664 30.6768 17.6889C30.7389 17.7058 30.7898 17.7565 30.7898 17.7959C30.7898 17.841 30.8236 17.8748 30.8632 17.8748C30.9027 17.8748 30.9705 17.9649 31.0156 18.072C31.0608 18.179 31.1116 18.2691 31.1399 18.2691C31.1624 18.2691 31.185 18.3198 31.185 18.3818C31.185 18.455 31.2246 18.4945 31.2923 18.4945C31.3714 18.4945 31.4109 18.5508 31.4335 18.6916C31.4561 18.7986 31.4956 18.8888 31.5295 18.8888C31.5577 18.8888 31.6085 18.9507 31.6368 19.0296C31.665 19.1085 31.7158 19.1704 31.7441 19.1704C31.7779 19.1704 31.8175 19.2606 31.8401 19.3676C31.857 19.4803 31.9078 19.5647 31.953 19.5647C31.9982 19.5647 32.0321 19.6154 32.0321 19.6774C32.0321 19.7394 32.0716 19.7901 32.1168 19.7901C32.1619 19.7901 32.2127 19.8689 32.2353 19.9872C32.2523 20.0943 32.3031 20.1844 32.3426 20.1844C32.3822 20.1844 32.433 20.2745 32.4499 20.3816C32.4725 20.4886 32.5233 20.5956 32.5628 20.6181C32.6024 20.6463 32.6532 20.7759 32.6701 20.9111C32.6871 21.0519 32.7379 21.1815 32.7887 21.2096C32.8565 21.2491 32.8791 21.3561 32.8791 21.649V22.0433L32.4443 22.0546C32.2015 22.0602 31.9361 22.0602 31.8514 22.0546C31.7497 22.049 31.6763 22.0828 31.6368 22.156C31.586 22.2518 31.5182 22.2687 31.1286 22.2687C30.7841 22.2687 30.6768 22.2856 30.6768 22.3475C30.6768 22.3926 30.5865 22.4376 30.4509 22.4602C30.3041 22.4827 30.2251 22.5221 30.2251 22.5785C30.2251 22.6292 30.1686 22.663 30.0839 22.663C29.9823 22.663 29.9427 22.6911 29.9427 22.7756C29.9427 22.8489 29.9032 22.8883 29.8298 22.8883C29.7677 22.8883 29.7169 22.9221 29.7169 22.9672C29.7169 23.0122 29.6435 23.0629 29.5475 23.0855C29.4571 23.108 29.3781 23.1587 29.3781 23.1981C29.3781 23.2432 29.3272 23.2939 29.2651 23.3108C29.203 23.3277 29.1522 23.384 29.1522 23.4291C29.1522 23.4741 29.1014 23.5079 29.0393 23.5079C28.9658 23.5079 28.9263 23.5474 28.9263 23.6206C28.9263 23.6938 28.8868 23.7333 28.8134 23.7333C28.74 23.7333 28.7004 23.7727 28.7004 23.8459C28.7004 23.9079 28.6666 23.9586 28.6214 23.9586C28.5254 23.9586 28.4633 24.1952 28.5085 24.3811C28.531 24.4825 28.5932 24.5275 28.7287 24.5557C28.9715 24.6008 29.2651 24.5332 29.2651 24.4374C29.2651 24.3923 29.3159 24.3473 29.3724 24.3247C29.4345 24.3078 29.4966 24.2571 29.5136 24.2121C29.5305 24.167 29.5813 24.1276 29.6322 24.1276C29.6773 24.1276 29.7169 24.0769 29.7169 24.0149C29.7169 23.9417 29.7564 23.9023 29.8298 23.9023C29.8919 23.9023 29.9427 23.8628 29.9427 23.8178C29.9427 23.7727 29.9936 23.7333 30.0557 23.7333C30.1291 23.7333 30.1686 23.6938 30.1686 23.6206C30.1686 23.5474 30.2081 23.5079 30.2815 23.5079C30.3437 23.5079 30.3945 23.4685 30.3945 23.4234C30.3945 23.3784 30.4735 23.3277 30.5921 23.3051C30.7051 23.2882 30.7898 23.2375 30.7898 23.1925C30.7898 23.1474 30.8462 23.1136 30.9253 23.1136C31.1794 23.1136 31.4109 23.0404 31.4109 22.9672C31.4109 22.9052 31.5916 22.8883 32.3709 22.8883C33.1614 22.8883 33.3308 22.877 33.3308 22.8094C33.3308 22.7644 33.4042 22.7137 33.4946 22.6911C33.6414 22.6573 33.6696 22.6235 33.7035 22.4038C33.76 22.0264 33.7035 21.2547 33.6132 21.1984C33.5736 21.1758 33.5285 21.0237 33.5115 20.866C33.4946 20.6857 33.4607 20.5787 33.4155 20.5787C33.3365 20.5787 33.2743 20.4041 33.2743 20.1675C33.2743 20.083 33.2461 20.0154 33.2179 20.0154C33.184 20.0154 33.1332 19.9534 33.1049 19.8746C33.0767 19.7957 33.0259 19.7337 32.9977 19.7337C32.9638 19.7337 32.9242 19.6436 32.9017 19.5366C32.8791 19.3958 32.8395 19.3394 32.7605 19.3394C32.6758 19.3394 32.6532 19.3 32.6532 19.1479C32.6532 19.0071 32.625 18.9507 32.5403 18.9282C32.4781 18.9113 32.4273 18.8606 32.4273 18.8099C32.4273 18.7592 32.3878 18.7198 32.3426 18.7198C32.2862 18.7198 32.2579 18.6578 32.2579 18.5226C32.2579 18.3649 32.2353 18.3255 32.145 18.3255C32.049 18.3255 32.0321 18.286 32.0321 18.1001C32.0321 17.8804 32.0377 17.8748 32.2297 17.8748C32.3652 17.8748 32.4273 17.8466 32.4273 17.7903C32.4273 17.7452 32.4781 17.7058 32.5403 17.7058C32.608 17.7058 32.6532 17.6664 32.6532 17.6044C32.6532 17.5481 32.704 17.4636 32.7661 17.4073C32.896 17.2946 32.913 17.0974 32.7944 17.0524C32.7492 17.0355 32.6984 16.9341 32.6758 16.827C32.6532 16.6919 32.608 16.6355 32.5346 16.6355C32.4669 16.6355 32.4273 16.5961 32.4273 16.5229C32.4273 16.4496 32.3878 16.4102 32.3144 16.4102C32.2523 16.4102 32.2015 16.3764 32.2015 16.3313C32.2015 16.2863 32.128 16.2356 32.0321 16.213C31.9417 16.1905 31.8626 16.1398 31.8626 16.0947C31.8626 16.0497 31.8118 16.0159 31.7497 16.0159C31.6763 16.0159 31.6368 15.9764 31.6368 15.9032C31.6368 15.83 31.5972 15.7906 31.5238 15.7906C31.4617 15.7906 31.4109 15.7511 31.4109 15.7061C31.4109 15.661 31.3601 15.6216 31.298 15.6216C31.2246 15.6216 31.185 15.5821 31.185 15.5089C31.185 15.4188 31.1455 15.3962 31.01 15.3962C30.8858 15.3962 30.8293 15.3681 30.8067 15.2836C30.7898 15.2216 30.7276 15.1709 30.6712 15.1709C30.6091 15.1709 30.5639 15.1371 30.5639 15.092C30.5639 15.0526 30.5131 15.0019 30.4509 14.985C30.3888 14.9681 30.338 14.9174 30.338 14.8724C30.338 14.8273 30.2646 14.7766 30.1686 14.7541C30.067 14.7372 29.9992 14.6865 29.9992 14.6358C29.9992 14.5907 29.954 14.5513 29.8919 14.5513C29.8354 14.5513 29.7733 14.5006 29.7564 14.4386C29.7395 14.3766 29.6886 14.3259 29.6378 14.3259C29.587 14.3259 29.5475 14.2921 29.5475 14.2471C29.5475 14.2076 29.4966 14.1569 29.4345 14.14C29.3724 14.1231 29.3216 14.0724 29.3216 14.0218C29.3216 13.9711 29.2764 13.9316 29.2087 13.9316C29.1352 13.9316 29.0957 13.8922 29.0957 13.819C29.0957 13.7457 29.0562 13.7063 28.9828 13.7063C28.9207 13.7063 28.8698 13.6725 28.8698 13.6274C28.8698 13.588 28.819 13.5373 28.7569 13.5204C28.6948 13.5035 28.644 13.4528 28.644 13.4021C28.644 13.3514 28.6044 13.312 28.5593 13.312C28.5141 13.312 28.4746 13.2613 28.4746 13.1993C28.4746 13.1261 28.435 13.0867 28.3616 13.0867C28.2995 13.0867 28.2487 13.0529 28.2487 13.0078C28.2487 12.9627 28.2092 12.9177 28.164 12.8951C28.1188 12.8782 28.0793 12.8275 28.0793 12.7768C28.0793 12.7318 28.0285 12.6923 27.9664 12.6923C27.893 12.6923 27.8534 12.6529 27.8534 12.5797C27.8534 12.5064 27.8139 12.467 27.7405 12.467C27.6671 12.467 27.6276 12.4276 27.6276 12.3543C27.6276 12.2924 27.588 12.2417 27.5429 12.2417C27.4977 12.2417 27.4581 12.2023 27.4581 12.1572C27.4581 12.1065 27.4186 12.0558 27.3734 12.0389C27.3283 12.0164 27.2887 11.9769 27.2887 11.9375C27.2887 11.9037 27.221 11.8136 27.1476 11.7403C27.0685 11.6671 27.0064 11.577 27.0064 11.5319C27.0064 11.4868 26.9669 11.453 26.9217 11.453C26.8539 11.453 26.837 11.3685 26.837 11.0418C26.837 10.563 26.7975 10.3828 26.6902 10.3828C26.645 10.3828 26.6111 10.3321 26.6111 10.2701C26.6111 10.1969 26.5716 10.1574 26.4982 10.1574C26.4361 10.1574 26.3853 10.118 26.3853 10.0729C26.3853 10.0279 26.3457 9.98843 26.2949 9.98843C26.2441 9.98843 26.1933 9.93773 26.1763 9.87577C26.1537 9.79127 26.0973 9.76311 25.9561 9.76311C25.8036 9.76311 25.7641 9.74057 25.7641 9.65044C25.7641 9.56031 25.7246 9.53778 25.5947 9.53778C25.4874 9.53778 25.4253 9.50962 25.4253 9.45892C25.4253 9.40822 25.3406 9.36315 25.1994 9.34062C25.0583 9.31809 24.9736 9.27302 24.9736 9.22233C24.9736 9.16599 24.8889 9.14346 24.6348 9.14346C24.3637 9.14346 24.2734 9.12093 24.2 9.0308C24.1096 8.9294 24.0305 8.91814 23.3812 8.91814H22.6584V8.72098C22.6584 8.59142 22.6866 8.52382 22.7374 8.52382C22.777 8.52382 22.8278 8.47312 22.8447 8.41116C22.8617 8.34919 22.9125 8.29849 22.9633 8.29849C23.0141 8.29849 23.0537 8.25343 23.0537 8.18583C23.0537 8.1126 23.0932 8.07317 23.1666 8.07317C23.2287 8.07317 23.2795 8.03374 23.2795 7.98867C23.2795 7.94361 23.3191 7.90417 23.3642 7.90417C23.4094 7.90417 23.4489 7.85348 23.4489 7.79151C23.4489 7.70701 23.4885 7.67885 23.5901 7.67885C23.6917 7.67885 23.7313 7.65068 23.7313 7.56619C23.7313 7.47606 23.7708 7.45352 23.9007 7.45352C24.0136 7.45352 24.0701 7.42536 24.0701 7.36903C24.0701 7.32396 24.1153 7.28453 24.1717 7.28453C24.3185 7.28453 24.4315 6.79445 24.3355 6.58602C24.2959 6.50716 24.2395 6.43956 24.2112 6.43956C24.1774 6.43956 24.1096 6.38886 24.0531 6.3269C23.9854 6.24803 23.8894 6.21424 23.7313 6.21424C23.5788 6.21424 23.5054 6.1917 23.5054 6.13537C23.5054 6.09031 23.4207 6.04524 23.2965 6.02271C23.0706 5.98891 20.9756 5.99454 20.6142 6.02834ZM14.719 12.6416C14.7359 12.7374 14.7529 12.9289 14.7529 13.0585C14.7529 13.2049 14.7811 13.312 14.8263 13.3232C14.8771 13.3458 14.8997 13.6218 14.9223 14.3541C14.9449 15.0864 14.9674 15.3624 15.0239 15.385C15.0578 15.3962 15.0917 15.4751 15.0917 15.554C15.0917 15.768 15.2046 16.1511 15.2837 16.1961C15.3571 16.2468 15.6394 16.2525 15.8088 16.2074C15.8879 16.1849 15.9443 16.1116 15.9669 16.0046C15.9895 15.9145 16.0403 15.8244 16.0799 15.8131C16.1194 15.7962 16.1646 15.6272 16.1872 15.3962C16.2097 15.1596 16.2549 15.0019 16.3001 14.985C16.3509 14.9625 16.3848 14.8217 16.4017 14.5794C16.413 14.371 16.4526 14.1851 16.4921 14.1626C16.5316 14.14 16.5768 13.988 16.5994 13.8246C16.6163 13.6556 16.6671 13.5148 16.7067 13.4979C16.7518 13.481 16.7857 13.4134 16.7857 13.3401C16.7857 13.0923 16.8591 12.8613 16.9325 12.8613C16.9834 12.8613 17.0116 12.7937 17.0116 12.6642C17.0116 12.5064 17.0342 12.467 17.1245 12.467C17.1866 12.467 17.2375 12.5064 17.2375 12.5515C17.2375 12.5909 17.277 12.6529 17.3222 12.6811C17.373 12.7092 17.4238 12.8444 17.4464 13.0191C17.4633 13.1937 17.5085 13.312 17.548 13.312C17.5932 13.312 17.6271 13.4472 17.644 13.7119C17.6666 13.9598 17.7061 14.1288 17.7513 14.1569C17.7965 14.1851 17.836 14.3541 17.8473 14.5794C17.8643 14.8273 17.8981 14.9625 17.949 14.985C17.9941 15.0019 18.028 15.0751 18.028 15.154C18.028 15.3568 18.1466 15.7906 18.2031 15.7906C18.2313 15.7906 18.2539 15.8413 18.2539 15.9032C18.2539 15.9764 18.2934 16.0159 18.3668 16.0159C18.4289 16.0159 18.4798 16.0553 18.4798 16.1004C18.4798 16.1567 18.5419 16.1849 18.6774 16.1849C18.8129 16.1849 18.875 16.1567 18.875 16.1004C18.875 16.0553 18.9202 16.0159 18.9823 16.0159C19.0557 16.0159 19.1009 15.9595 19.1235 15.8244C19.1461 15.7173 19.1912 15.6216 19.2251 15.6103C19.2647 15.5934 19.2985 15.3906 19.3155 15.0695C19.3324 14.6808 19.3607 14.5513 19.4171 14.5513C19.4736 14.5513 19.4962 14.4668 19.4962 14.2245C19.4962 13.695 19.5583 13.312 19.643 13.312C19.6882 13.312 19.722 13.2613 19.722 13.1993C19.722 13.1261 19.7616 13.0867 19.835 13.0867C19.9084 13.0867 19.9479 13.1261 19.9479 13.1993C19.9479 13.2613 19.9818 13.312 20.027 13.312C20.0665 13.312 20.1173 13.3627 20.1343 13.4246C20.1512 13.4866 20.202 13.5373 20.2528 13.5373C20.3206 13.5373 20.3432 13.5936 20.3432 13.7345C20.3432 13.8697 20.3714 13.9316 20.4222 13.9316C20.4787 13.9316 20.5295 14.0387 20.5691 14.2414C20.6029 14.4104 20.6538 14.5513 20.682 14.5513C20.7046 14.5513 20.7441 14.6527 20.7667 14.7766C20.7893 14.9005 20.8345 15.0019 20.8796 15.0019C20.9192 15.0019 20.9587 15.1033 20.9813 15.2667C20.9982 15.4188 21.0434 15.5483 21.0999 15.5765C21.1507 15.6047 21.1902 15.6779 21.1902 15.7399C21.1902 15.7962 21.241 15.8919 21.3031 15.9426C21.3653 15.999 21.4161 16.0722 21.4161 16.106C21.4161 16.1905 21.6024 16.2412 21.9356 16.2412H22.1953L22.2349 16.0159C22.2575 15.8863 22.3026 15.7906 22.3478 15.7906C22.3986 15.7906 22.4269 15.661 22.4382 15.3117C22.4551 15.0244 22.489 14.8104 22.5285 14.7879C22.5624 14.7653 22.6076 14.6527 22.6301 14.5344C22.6527 14.4161 22.7036 14.3259 22.7487 14.3259C22.7939 14.3259 22.8278 14.2865 22.8278 14.2414C22.8278 14.1851 22.8899 14.1569 23.0254 14.1569C23.2005 14.1569 23.2231 14.1738 23.2569 14.3541C23.2795 14.4949 23.3191 14.5513 23.3981 14.5513C23.4828 14.5513 23.5054 14.5907 23.5054 14.7484C23.5054 14.8724 23.5393 14.9625 23.5901 14.9794C23.6466 15.0019 23.6748 15.0977 23.6748 15.2892C23.6748 15.4807 23.703 15.5765 23.7651 15.6103C23.8216 15.6385 23.8668 15.7624 23.8837 15.9201C23.9063 16.106 23.9402 16.1849 24.0193 16.2018C24.0814 16.2187 24.1265 16.2694 24.1265 16.3201C24.1265 16.3877 24.183 16.4102 24.3242 16.4102C24.4597 16.4102 24.5218 16.382 24.5218 16.3257C24.5218 16.2806 24.5726 16.2412 24.6291 16.2412C24.6912 16.2412 24.7759 16.2243 24.8211 16.2074C24.8832 16.1849 24.9171 16.2356 24.9453 16.4046C24.9679 16.5454 25.0131 16.6355 25.0639 16.6355C25.1091 16.6355 25.143 16.6862 25.143 16.7482C25.143 16.8214 25.1825 16.8608 25.2559 16.8608C25.3688 16.8608 25.3688 16.9003 25.3688 18.5226C25.3688 19.9647 25.3801 20.1844 25.4535 20.1844C25.4987 20.1844 25.5382 20.2238 25.5382 20.2689C25.5382 20.3309 25.6004 20.3534 25.7641 20.3534C25.9279 20.3534 25.99 20.3309 25.99 20.2689C25.99 20.2238 26.0408 20.1844 26.1029 20.1844C26.1763 20.1844 26.2159 20.145 26.2159 20.0717C26.2159 19.9816 26.2554 19.9591 26.4135 19.9591C26.549 19.9591 26.6111 19.9309 26.6111 19.8746C26.6111 19.8295 26.662 19.7901 26.7241 19.7901C26.7862 19.7901 26.837 19.8295 26.837 19.8746C26.837 19.9196 26.8878 19.9591 26.9443 19.9591C27.1137 19.9591 27.2323 20.021 27.2323 20.1055C27.2323 20.1506 27.2718 20.1844 27.317 20.1844C27.3622 20.1844 27.413 20.2633 27.4356 20.3816C27.4525 20.4886 27.5146 20.6012 27.5598 20.6294C27.6445 20.6745 27.6558 20.8604 27.6558 22.1898C27.6558 23.322 27.6388 23.6995 27.588 23.7164C27.5485 23.7333 27.5033 23.829 27.4807 23.9361C27.4638 24.0431 27.413 24.1276 27.3678 24.1276C27.3283 24.1276 27.2775 24.2177 27.2549 24.3247C27.2323 24.443 27.1871 24.5219 27.1363 24.5219C27.0911 24.5219 27.0403 24.5726 27.0233 24.6289C27.0064 24.6909 26.9274 24.7472 26.8314 24.7698C26.7354 24.7867 26.6676 24.8374 26.6676 24.8881C26.6676 24.9388 26.6168 24.9726 26.5264 24.9726C26.4417 24.9726 26.3853 25.0064 26.3853 25.057C26.3853 25.1528 26.0634 25.226 25.8319 25.181C25.5326 25.1246 25.3745 25.1922 25.335 25.4007C25.318 25.5077 25.2672 25.5922 25.222 25.5922C25.1599 25.5922 25.143 25.7049 25.143 26.0935C25.143 26.4597 25.1204 26.6005 25.0696 26.6231C25.0131 26.6456 24.9792 26.8146 24.951 27.1526C24.934 27.423 24.8889 27.6539 24.8606 27.6652C24.8324 27.6765 24.7816 27.8229 24.742 27.9919C24.7025 28.1722 24.6404 28.2961 24.5952 28.2961C24.5557 28.2961 24.5218 28.3299 24.5218 28.375C24.5218 28.42 24.471 28.4764 24.4089 28.4933C24.3468 28.5102 24.2959 28.5609 24.2959 28.6059C24.2959 28.6454 24.2225 28.6961 24.1265 28.7186C24.0362 28.7411 23.9571 28.7918 23.9571 28.8369C23.9571 28.8819 23.912 28.9157 23.8499 28.9157C23.7934 28.9157 23.7313 28.9664 23.7143 29.0284C23.6974 29.0904 23.6466 29.1411 23.6014 29.1411C23.5562 29.1411 23.5054 29.1918 23.4885 29.2537C23.4715 29.3157 23.4207 29.3664 23.3699 29.3664C23.3191 29.3664 23.2795 29.4058 23.2795 29.4509C23.2795 29.5129 23.2174 29.5354 23.0762 29.5354C22.9238 29.5354 22.8673 29.5636 22.8447 29.648C22.8165 29.7438 22.7657 29.7607 22.5116 29.7607C22.2913 29.7607 22.2066 29.7832 22.2066 29.8396C22.2066 29.9128 21.8735 29.986 21.5234 29.986C21.4161 29.986 21.3596 30.0142 21.3596 30.0705C21.3596 30.1438 21.2297 30.155 20.5408 30.155C19.8519 30.155 19.722 30.1438 19.722 30.0705C19.722 29.9973 19.5865 29.986 18.8355 29.986C17.6948 29.986 17.181 29.941 17.181 29.8396C17.181 29.7776 17.0681 29.7607 16.7067 29.7607C16.2832 29.7607 16.2323 29.7494 16.2041 29.648C16.1815 29.5523 16.125 29.5354 15.8596 29.5354C15.6281 29.5354 15.5434 29.5129 15.5434 29.4565C15.5434 29.4002 15.4361 29.3664 15.2046 29.3382C14.9731 29.3101 14.8658 29.2763 14.8658 29.2199C14.8658 29.158 14.7755 29.1411 14.5044 29.1411C14.1938 29.1411 14.143 29.1242 14.1148 29.0284C14.0922 28.9439 14.0357 28.9157 13.8833 28.9157C13.7477 28.9157 13.68 28.8876 13.68 28.8369C13.68 28.7862 13.5953 28.7411 13.4541 28.7186C13.3129 28.6961 13.2282 28.651 13.2282 28.6003C13.2282 28.5496 13.1661 28.5214 13.0362 28.5214C12.8951 28.5214 12.8386 28.4933 12.816 28.4088C12.7934 28.3186 12.737 28.2961 12.5337 28.2961C12.3304 28.2961 12.2739 28.2736 12.2513 28.1834C12.2288 28.0989 12.1723 28.0708 12.0481 28.0708C11.9351 28.0708 11.873 28.0426 11.873 27.9919C11.873 27.9468 11.8222 27.8961 11.7657 27.8736C11.7036 27.8567 11.6415 27.7666 11.6189 27.6652C11.5963 27.5638 11.5342 27.4849 11.4721 27.468C11.4156 27.4511 11.3648 27.4061 11.3648 27.3666C11.3648 27.3272 11.3309 27.2821 11.2857 27.2652C11.2406 27.2483 11.1897 27.1582 11.1672 27.0624C11.1446 26.9667 11.105 26.8878 11.0768 26.8878C11.0486 26.8878 10.9978 26.8259 10.9695 26.747C10.9413 26.6681 10.8792 26.6062 10.8283 26.6062C10.7662 26.6062 10.7436 26.5498 10.7436 26.409C10.7436 26.2794 10.7154 26.2118 10.6646 26.2118C10.6194 26.2118 10.5686 26.1273 10.5517 26.0147C10.5291 25.9077 10.4952 25.8175 10.467 25.8175C10.4444 25.8175 10.3935 25.6823 10.354 25.5133C10.3145 25.3443 10.258 25.1979 10.2298 25.1866C10.1959 25.1753 10.1564 25.0233 10.1394 24.843C10.1169 24.6289 10.083 24.5219 10.0322 24.5219C9.98133 24.5219 9.9531 24.4599 9.9531 24.3642C9.9531 24.0431 9.89663 23.9586 9.66511 23.9248C9.53523 23.9023 9.44488 23.8572 9.44488 23.8121C9.44488 23.7671 9.38842 23.7333 9.30372 23.7333C9.21337 23.7333 9.16255 23.7671 9.16255 23.8178C9.16255 23.8685 9.11172 23.9023 9.02138 23.9023C8.91973 23.9023 8.88021 23.9304 8.88021 24.0149C8.88021 24.0882 8.84068 24.1276 8.76727 24.1276C8.69386 24.1276 8.65433 24.167 8.65433 24.2402C8.65433 24.3304 8.61481 24.3529 8.48493 24.3529C8.37199 24.3529 8.31553 24.3811 8.31553 24.4374C8.31553 24.4994 8.25341 24.5219 8.08965 24.5219C7.9259 24.5219 7.86378 24.4994 7.86378 24.4374C7.86378 24.3811 7.80732 24.3529 7.67179 24.3529C7.53062 24.3529 7.47415 24.3247 7.45157 24.2402C7.43463 24.1726 7.37251 24.1276 7.30475 24.1276C7.2257 24.1276 7.18617 24.0938 7.18617 24.0149C7.18617 23.953 7.15229 23.9023 7.10711 23.9023C7.06194 23.9023 7.01112 23.8178 6.99418 23.7051C6.97159 23.5981 6.92077 23.5079 6.88124 23.5079C6.82477 23.5079 6.79654 23.3953 6.7796 23.1305C6.76831 22.9108 6.72878 22.7475 6.68925 22.7306C6.63843 22.7137 6.62149 22.4714 6.62149 21.8743C6.62149 21.1871 6.63843 21.035 6.70619 21.0068C6.76831 20.9843 6.79089 20.8942 6.79089 20.697C6.79089 20.5224 6.81913 20.3985 6.86995 20.3703C6.90948 20.3478 6.96594 20.2464 6.99982 20.1562C7.05629 19.9872 7.05629 19.9872 7.53627 19.9703C7.98237 19.9534 8.02189 19.9647 8.05013 20.0717C8.07271 20.1562 8.12354 20.1844 8.28165 20.1844C8.42282 20.1844 8.48493 20.2069 8.48493 20.2689C8.48493 20.3365 8.55834 20.3534 8.7955 20.3534C9.03267 20.3534 9.10608 20.3365 9.10608 20.2689C9.10608 20.2238 9.1456 20.1844 9.19078 20.1844C9.26419 20.1844 9.27548 19.976 9.27548 18.6409V17.0974L9.40536 17.0636C9.47312 17.0467 9.61429 17.0298 9.71593 17.0298C9.84581 17.0298 9.89663 17.0017 9.89663 16.9397C9.89663 16.889 9.94745 16.8383 10.0039 16.8214C10.0717 16.8045 10.1338 16.7257 10.1507 16.6355C10.1677 16.5454 10.2241 16.4609 10.2693 16.444C10.3145 16.4271 10.3484 16.3595 10.3484 16.2975C10.3484 16.2356 10.3879 16.1849 10.4331 16.1849C10.4782 16.1849 10.5291 16.106 10.5517 15.9877C10.5686 15.8751 10.6194 15.7906 10.6646 15.7906C10.7154 15.7906 10.7436 15.723 10.7436 15.5934C10.7436 15.4695 10.7775 15.3793 10.8227 15.3624C10.8679 15.3455 10.9356 15.2047 10.9695 15.0526C11.009 14.9005 11.0599 14.7766 11.0825 14.7766C11.1107 14.7766 11.1446 14.6752 11.1672 14.5513C11.1954 14.3823 11.2293 14.3259 11.314 14.3259C11.3817 14.3259 11.4213 14.3654 11.4213 14.433C11.4213 14.4949 11.4551 14.5513 11.489 14.5625C11.5398 14.5794 11.5681 14.8273 11.5907 15.3962C11.6133 15.9426 11.6471 16.213 11.6923 16.2299C11.7262 16.2412 11.7714 16.337 11.794 16.444L11.8278 16.6355H12.2457C12.624 16.6355 12.6636 16.6243 12.6636 16.5229C12.6636 16.4609 12.7031 16.4102 12.7483 16.4102C12.7934 16.4102 12.833 16.3708 12.833 16.3257C12.833 16.275 12.8725 16.2243 12.9177 16.2074C12.9628 16.1905 13.0137 16.0891 13.0362 15.9821C13.0532 15.8751 13.104 15.7906 13.1492 15.7906C13.1887 15.7906 13.2395 15.7004 13.2621 15.5934C13.2791 15.4807 13.3299 15.3962 13.3751 15.3962C13.4202 15.3962 13.4541 15.3399 13.4541 15.261C13.4541 15.0075 13.5275 14.7766 13.6009 14.7766C13.6574 14.7766 13.68 14.7034 13.68 14.5513C13.68 14.3992 13.7026 14.3259 13.759 14.3259C13.8324 14.3259 13.9059 14.095 13.9059 13.8415C13.9059 13.757 13.9397 13.7063 13.9906 13.7063C14.0527 13.7063 14.0753 13.6443 14.0753 13.5091C14.0753 13.3852 14.1091 13.2951 14.1543 13.2782C14.1995 13.2613 14.2672 13.1261 14.3011 12.974C14.335 12.8219 14.4028 12.6867 14.4479 12.6698C14.4931 12.6529 14.527 12.6022 14.527 12.5515C14.527 12.3938 14.6795 12.467 14.719 12.6416Z" fill="#2B2C33"/>
<path d="M13.8498 19.0297C13.8498 19.0861 13.7934 19.1142 13.6748 19.1142C13.5506 19.1142 13.4941 19.1424 13.4715 19.2269C13.4546 19.2889 13.4037 19.3396 13.3642 19.3396C13.3077 19.3396 13.2852 19.424 13.2852 19.6494C13.2852 19.886 13.3021 19.9592 13.3699 19.9592C13.415 19.9592 13.4546 20.0099 13.4546 20.0719C13.4546 20.1676 13.4941 20.1845 13.6804 20.1845C13.8442 20.1845 13.9063 20.2071 13.9063 20.269C13.9063 20.3141 13.9458 20.3535 13.991 20.3535C14.0362 20.3535 14.0757 20.3141 14.0757 20.269C14.0757 20.2127 14.1322 20.1845 14.2677 20.1845C14.454 20.1845 14.4653 20.1733 14.4992 19.9423C14.5218 19.8127 14.5275 19.5761 14.5162 19.424C14.4992 19.1537 14.4936 19.1424 14.3185 19.1255C14.1999 19.1142 14.1322 19.0748 14.1322 19.0241C14.1322 18.979 14.0757 18.9452 13.991 18.9452C13.9007 18.9452 13.8498 18.979 13.8498 19.0297Z" fill="#2B2C33"/>
<path d="M21.4153 19.0232C21.4153 19.0626 21.3645 19.1133 21.3024 19.1302C21.2007 19.1584 21.1895 19.2091 21.1895 19.5583C21.1895 19.9188 21.2007 19.9583 21.3024 19.9583C21.3645 19.9583 21.4153 19.9921 21.4153 20.0371C21.4153 20.1216 21.5847 20.1836 21.8445 20.1836C21.9744 20.1836 22.0308 20.1554 22.0534 20.0709C22.0704 20.009 22.1212 19.9583 22.172 19.9583C22.2228 19.9583 22.2623 19.9188 22.2623 19.8738C22.2623 19.8287 22.3019 19.7893 22.347 19.7893C22.4092 19.7893 22.4317 19.7273 22.4317 19.5639C22.4317 19.4119 22.4092 19.3386 22.3527 19.3386C22.3132 19.3386 22.2623 19.2879 22.2454 19.226C22.2285 19.164 22.1776 19.1133 22.1268 19.1133C22.076 19.1133 22.0365 19.0739 22.0365 19.0288C22.0365 18.9612 21.9631 18.9443 21.7259 18.9443C21.5 18.9443 21.4153 18.9668 21.4153 19.0232Z" fill="#2B2C33"/>
<path d="M17.723 20.3939C17.627 20.4164 17.6214 20.4671 17.6496 20.822C17.6609 21.0417 17.7061 21.2332 17.74 21.2445C17.7738 21.2558 17.8021 21.3008 17.8021 21.3459C17.8021 21.391 17.8529 21.4248 17.915 21.4248C17.9771 21.4248 18.028 21.4642 18.028 21.5093C18.028 21.5543 18.0788 21.5938 18.1409 21.5938C18.203 21.5938 18.2538 21.5543 18.2538 21.5093C18.2538 21.4642 18.3046 21.4248 18.3668 21.4248C18.4684 21.4248 18.4797 21.3853 18.4797 21.0023C18.4797 20.6812 18.4628 20.5798 18.4006 20.5798C18.3611 20.5798 18.3103 20.5291 18.2934 20.4671C18.2708 20.377 18.2199 20.3545 18.0449 20.3601C17.9263 20.3657 17.7851 20.377 17.723 20.3939Z" fill="#2B2C33"/>
<path d="M15.7686 23.819C15.7686 23.8754 15.7121 23.9035 15.5879 23.9035C15.3168 23.9035 15.1474 23.9599 15.1474 24.05C15.1474 24.1007 15.0797 24.1289 14.9554 24.1289C14.7804 24.1289 14.7634 24.1458 14.7296 24.326C14.707 24.4331 14.6674 24.5232 14.6336 24.5232C14.5206 24.5232 14.4642 24.833 14.498 25.2104C14.5263 25.4808 14.5602 25.5935 14.6166 25.5935C14.6618 25.5935 14.6957 25.6498 14.6957 25.7287C14.6957 25.9822 14.7691 26.2131 14.8425 26.2131C14.8933 26.2131 14.9216 26.2807 14.9216 26.4046C14.9216 26.5455 14.9498 26.6018 15.0345 26.6243C15.0966 26.6412 15.1474 26.6919 15.1474 26.7426C15.1474 26.7933 15.187 26.8328 15.2321 26.8328C15.2773 26.8328 15.3168 26.8835 15.3168 26.9454C15.3168 27.0187 15.3564 27.0581 15.4298 27.0581C15.4919 27.0581 15.5427 27.0975 15.5427 27.1426C15.5427 27.1989 15.6218 27.2384 15.7686 27.2609C15.9041 27.2834 15.9944 27.3285 15.9944 27.3735C15.9944 27.4299 16.0679 27.4524 16.2147 27.4524C16.5478 27.4524 16.785 27.5144 16.785 27.5989C16.785 27.6608 16.8866 27.6777 17.2085 27.6777C17.5417 27.6777 17.632 27.6608 17.632 27.5989C17.632 27.5087 17.9821 27.4355 18.2814 27.458C18.3774 27.4693 18.5976 27.4693 18.7783 27.4637C19.0211 27.4524 19.1002 27.4299 19.1002 27.3679C19.1002 27.3172 19.151 27.2834 19.2188 27.2834C19.2865 27.2834 19.3486 27.2384 19.3656 27.1708C19.3882 27.0919 19.4446 27.0581 19.5576 27.0581C19.6818 27.0581 19.7213 27.0299 19.7213 26.9454C19.7213 26.8722 19.7609 26.8328 19.8343 26.8328C19.9077 26.8328 19.9472 26.7933 19.9472 26.7201C19.9472 26.6581 19.9867 26.6074 20.0319 26.6074C20.0771 26.6074 20.1166 26.568 20.1166 26.5173C20.1166 26.4666 20.1674 26.4159 20.2295 26.399C20.3086 26.3765 20.3425 26.3202 20.3425 26.2075C20.3425 26.1117 20.3764 26.0272 20.4215 26.0103C20.4667 25.9934 20.5345 25.847 20.574 25.6892C20.6079 25.5259 20.6643 25.3794 20.6926 25.3625C20.7208 25.3456 20.7547 25.1992 20.7773 25.0414C20.7999 24.8499 20.8337 24.7485 20.8846 24.7485C20.941 24.7485 20.9636 24.664 20.9636 24.4387C20.9636 24.2134 20.941 24.1289 20.8846 24.1289C20.8394 24.1289 20.7886 24.0444 20.7716 23.9317L20.7321 23.7345H20.1166C19.6027 23.7345 19.4955 23.7514 19.4955 23.819C19.4955 23.8923 19.3204 23.9035 18.2532 23.9035C17.1859 23.9035 17.0109 23.8923 17.0109 23.819C17.0109 23.7514 16.9036 23.7345 16.3897 23.7345C15.8759 23.7345 15.7686 23.7514 15.7686 23.819ZM15.9832 24.8161C16.017 24.9513 16.0283 25.1259 16.0114 25.2104C15.9832 25.3513 15.9549 25.3682 15.7629 25.3682C15.6105 25.3682 15.5427 25.3456 15.5427 25.2893C15.5427 25.2499 15.4919 25.1992 15.4298 25.1823C15.3677 25.1654 15.3168 25.1147 15.3168 25.0696C15.3168 25.0189 15.3677 24.9626 15.4298 24.9457C15.4919 24.9288 15.5427 24.8724 15.5427 24.8274C15.5427 24.7823 15.5935 24.7485 15.6556 24.7485C15.7178 24.7485 15.7686 24.7091 15.7686 24.664C15.7686 24.4781 15.9267 24.5908 15.9832 24.8161ZM17.2367 24.664C17.2367 24.7091 17.2706 24.7485 17.3158 24.7485C17.4457 24.7485 17.4796 24.8499 17.4344 25.1203L17.4005 25.3682H17.1182H16.8415V25.0583C16.8415 24.8893 16.8697 24.7485 16.8979 24.7485C16.9318 24.7485 16.9544 24.7091 16.9544 24.664C16.9544 24.6133 17.0052 24.5795 17.0956 24.5795C17.1859 24.5795 17.2367 24.6133 17.2367 24.664ZM20.1166 24.664C20.1166 24.7091 20.094 24.7485 20.0601 24.7485C20.0319 24.7485 19.9867 24.8499 19.9698 24.9738L19.9303 25.1992H19.631H19.3261V24.9738C19.3261 24.8105 19.3486 24.7485 19.4108 24.7485C19.4559 24.7485 19.4955 24.7091 19.4955 24.664C19.4955 24.5964 19.5689 24.5795 19.806 24.5795C20.0432 24.5795 20.1166 24.5964 20.1166 24.664ZM18.479 25.0583C18.479 25.3231 18.4621 25.3682 18.3717 25.3682C18.304 25.3682 18.2588 25.3175 18.2362 25.2104C18.1854 24.9682 18.2532 24.7485 18.3717 24.7485C18.4621 24.7485 18.479 24.7936 18.479 25.0583ZM15.9832 26.3089C15.9719 26.3652 15.9267 26.4103 15.8815 26.4103C15.8363 26.4103 15.7912 26.3652 15.7799 26.3089C15.7686 26.2413 15.7968 26.2131 15.8815 26.2131C15.9662 26.2131 15.9944 26.2413 15.9832 26.3089ZM17.4344 26.2751C17.457 26.3089 17.457 26.4441 17.4344 26.5849C17.4005 26.8271 17.3949 26.8328 17.1746 26.8328C17.0165 26.8328 16.9544 26.8102 16.9544 26.7483C16.9544 26.7032 16.9318 26.6638 16.8979 26.6638C16.8697 26.6638 16.8415 26.5624 16.8415 26.4384V26.2131H17.1182C17.2763 26.2131 17.4174 26.2413 17.4344 26.2751ZM18.479 26.2976C18.479 26.3427 18.5581 26.3934 18.6767 26.4159C19.0437 26.4835 18.8743 26.6638 18.4395 26.6638C18.2588 26.6638 18.2532 26.6525 18.2532 26.4384C18.2532 26.2526 18.2701 26.2131 18.3661 26.2131C18.4282 26.2131 18.479 26.2526 18.479 26.2976Z" fill="#2B2C33"/>
</svg>
