<svg width="36" height="36" viewBox="0 0 36 36" fill="none" xmlns="http://www.w3.org/2000/svg">
<path d="M18.1278 10.8905C18.7635 11.2596 23.6272 16.1652 23.6892 16.9919C23.5771 17.3282 17.2493 30.154 16.93 30.3492C15.9623 30.9405 14.9325 31.5586 13.7786 31.6848C12.0223 31.8769 10.2349 31.5811 8.5145 31.2396C7.49447 31.0371 6.49707 30.8386 5.59002 30.3142C4.52429 29.6981 4.00729 28.9528 3.44249 27.8961C2.83493 26.7594 2.62495 25.6629 2.43856 24.3954C2.32124 23.5977 2.13081 22.8051 2.04572 22.0035C1.97046 21.2944 2.0108 20.5676 2.0108 19.8559C2.0108 18.2873 1.93186 16.7215 2.64371 15.2728C3.60668 13.3131 5.2123 11.9225 7.09154 10.8905C7.81785 10.4916 8.56037 10.1229 9.34819 9.86033C10.1314 9.59928 10.9984 9.58998 11.8144 9.5286C12.4911 9.47769 13.5986 9.71166 14.2589 9.86023C15.55 10.1507 16.9734 10.2202 18.1278 10.8905Z" fill="#2B2C33" stroke="#2B2C33" stroke-width="0.726342" stroke-linecap="round"/>
<path d="M4.51953 18.4147C4.53472 18.6121 4.7215 18.8059 4.87707 18.9136C5.07248 19.0489 5.268 19.2575 5.50067 19.321C5.59849 19.3477 5.64106 19.4249 5.72309 19.4769C5.82217 19.5396 5.92288 19.5292 6.03282 19.5455C6.37034 19.5955 6.69971 19.5598 7.03891 19.5392C7.45187 19.5142 7.90567 19.3325 8.22376 19.0674C8.42895 18.8964 8.69985 18.5953 8.78501 18.3398" stroke="white" stroke-width="0.726342" stroke-linecap="round"/>
<path d="M11.1787 21.5215C11.1787 22.3072 11.3789 23.0642 11.3789 23.8488C11.3789 24.2233 11.2052 24.5827 10.9285 24.8248" stroke="white" stroke-width="0.726342" stroke-linecap="round"/>
<path d="M7.48276 14.1621C6.83818 14.4324 6.16139 14.7008 5.46962 14.8072C5.09726 14.8645 4.78358 14.9619 4.42969 15.063" stroke="white" stroke-width="0.726342" stroke-linecap="round"/>
<path d="M7.63281 25.8652C8.05072 26.251 8.58677 26.7156 9.16491 26.8162C9.90331 26.9446 10.6355 27.0664 11.3866 27.0664" stroke="white" stroke-width="0.726342" stroke-linecap="round"/>
<path d="M17.968 5.36896C16.1275 6.43761 14.329 9.84014 14.267 10.6668C14.3791 11.0031 13.9477 16.5959 14.267 16.791C14.6546 18.6414 14.3445 19.5042 17.3678 23.0702C20.0156 25.016 25.8608 26.0597 27.5812 25.7181C28.6012 25.5156 29.5986 25.3171 30.5057 24.7928C31.5714 24.1766 32.0884 23.4313 32.6532 22.3746C33.2608 21.2379 33.4708 20.1414 33.6571 18.874C33.7745 18.0762 33.9649 17.2837 34.05 16.482C34.1252 15.7729 34.0849 15.0461 34.0849 14.3345C34.0849 12.7658 34.1638 11.2 33.452 9.75132C32.489 7.7916 30.8834 6.401 29.0042 5.36896C28.2779 4.97009 27.5353 4.60145 26.7475 4.33885C25.9643 4.07779 25.0973 4.06849 24.2813 4.00711C23.6046 3.95621 22.4971 4.19018 21.8368 4.33875C20.5457 4.62924 19.1223 4.6987 17.968 5.36896Z" fill="#2B2C33" stroke="#2B2C33" stroke-width="0.726342" stroke-linecap="round"/>
<path d="M24.917 16C24.917 16.7857 24.7168 17.5428 24.7168 18.3273C24.7168 18.7018 24.8905 19.0612 25.1673 19.3033" stroke="white" stroke-width="0.726342" stroke-linecap="round"/>
<path d="M28.4629 21.8066C28.045 22.1924 27.5089 22.6571 26.9308 22.7576C26.1924 22.886 25.4602 23.0079 24.7091 23.0079" stroke="white" stroke-width="0.726342" stroke-linecap="round"/>
<path d="M27.6582 12.2207C27.7569 12.5292 27.8114 12.8294 28.0486 13.0666C28.2524 13.2704 28.1787 12.6625 28.1787 12.5713C28.1787 12.4792 28.1745 12.8869 28.1824 12.9617C28.2111 13.2345 28.3011 12.673 28.3089 12.6111" stroke="white" stroke-width="0.58216" stroke-linecap="round"/>
<path d="M26.4238 12.4826C26.694 12.4581 26.893 12.2561 27.1468 12.1934C27.5542 12.0929 27.9533 11.9231 28.3794 11.9657C28.6473 11.9925 28.9348 12.2314 29.153 12.3814C29.3168 12.494 29.5178 12.4892 29.6121 12.6778" stroke="white" stroke-width="0.58216" stroke-linecap="round"/>
<path d="M16.3209 9.29644C17.5662 8.79536 18.6431 9.04034 19.9552 9.04038C20.4313 9.23385 20.9109 9.58898 21.4369 9.58898C21.646 9.58898 21.9091 9.79518 22.095 9.88816C22.9048 10.293 23.6375 10.7427 24.3821 11.2644C25.43 11.9986 26.342 12.6932 27.0282 13.8107C27.5459 14.6539 27.8496 15.6059 28.3446 16.4568C28.6696 17.0156 29.0483 17.4974 29.2754 18.1123C29.4721 18.6451 29.6089 19.1988 29.6876 19.7611C29.7996 20.5615 29.7541 21.3822 29.7541 22.1878C29.7541 22.9829 29.7692 23.7783 29.6078 24.5613C29.2281 26.4037 28.5087 28.044 27.0648 29.2817C26.2512 29.979 25.3414 30.6031 24.422 31.1532C23.7646 31.5466 23.076 31.8446 22.3078 31.9278C20.6512 32.1072 18.7474 31.9555 17.1685 31.3826C16.2463 31.048 15.4171 30.4579 14.5923 29.9399C13.9087 29.5105 13.2255 29.0888 12.5745 28.6102C11.7188 27.9812 10.9 27.3514 10.2475 26.5026C9.7233 25.8207 9.15306 25.0072 8.92447 24.169C8.52944 22.7206 8.51057 21.0615 8.5854 19.565C8.6347 18.5788 8.82536 17.5768 9.07738 16.623C9.49969 15.0249 10.3927 13.4089 11.5639 12.2351C12.8789 10.917 14.6063 9.98631 16.3209 9.29644Z" fill="white"/>
<path d="M19.9555 9.04038C18.6432 9.04038 17.5663 8.79532 16.3209 9.29644C14.6063 9.98631 12.8789 10.917 11.5639 12.2351C10.3927 13.4089 9.49969 15.0249 9.07738 16.623C8.82536 17.5768 8.6347 18.5788 8.5854 19.565C8.51057 21.0615 8.52944 22.7206 8.92447 24.169C9.15306 25.0072 9.7233 25.8207 10.2475 26.5026C10.9 27.3514 11.7188 27.9812 12.5745 28.6102C13.2255 29.0888 13.9087 29.5105 14.5923 29.9399C15.4171 30.4579 16.2463 31.048 17.1685 31.3826C18.7474 31.9555 20.6512 32.1072 22.3078 31.9278C23.076 31.8446 23.7646 31.5466 24.422 31.1532C25.3414 30.6031 26.2512 29.979 27.0648 29.2817C28.5087 28.044 29.2281 26.4037 29.6078 24.5613C29.7692 23.7783 29.7541 22.9829 29.7541 22.1878C29.7541 21.3822 29.7996 20.5615 29.6876 19.7611C29.6089 19.1988 29.4721 18.6451 29.2754 18.1123C29.0484 17.4974 28.6696 17.0156 28.3446 16.4568C27.8496 15.6059 27.5459 14.6539 27.0282 13.8107C26.342 12.6932 25.43 11.9986 24.3821 11.2644C23.6375 10.7427 22.9048 10.293 22.095 9.88816C21.9091 9.79518 21.646 9.58898 21.4369 9.58898C20.8616 9.58898 20.3417 9.16409 19.8213 8.99062" stroke="#2B2C33" stroke-width="0.814123" stroke-linecap="round"/>
<path d="M22.3956 18.144C22.3246 18.2095 22.0084 18.3531 22.1596 18.4665C22.3143 18.5825 22.3409 18.3468 22.3358 18.2437C22.33 18.1281 22.0386 18.2376 22.2593 18.4964C22.4939 18.7715 22.5918 18.6609 22.6216 18.3701C22.7577 17.0437 21.8702 18.0973 22.2161 18.4432" stroke="#2B2C33" stroke-width="0.814123" stroke-linecap="round"/>
<path d="M14.3164 18.2051C14.383 18.3839 14.5331 19.1765 14.6023 18.5973C14.6093 18.5389 14.6054 18.0636 14.6156 18.338C14.6214 18.4938 14.7638 18.7441 14.9281 18.7901C15.1847 18.862 14.9049 18.3273 14.8549 18.2649" stroke="#2B2C33" stroke-width="0.814123" stroke-linecap="round"/>
<path d="M19.0435 19.7617C19.0435 20.9209 18.9238 22.0758 18.9238 23.2322" stroke="#2B2C33" stroke-width="0.814123" stroke-linecap="round"/>
<path d="M19.9219 26.1523C20.0002 26.3156 20.5503 27.247 20.2805 27.3819" stroke="#2B2C33" stroke-width="0.814123" stroke-linecap="round"/>
<path d="M13.2773 17.7129C14.2282 17.894 14.8808 17.9277 15.8409 17.7906" stroke="#2B2C33" stroke-width="0.814123" stroke-linecap="round"/>
<path d="M29.1426 16.3731C29.3901 16.3456 29.5556 16.239 29.8276 16.239C30.0732 16.239 30.7188 16.1015 30.885 16.3507C31.081 16.6448 31.1051 17.0765 31.1679 17.4155C31.2309 17.7559 31.3537 18.1138 31.4509 18.4468C31.5435 18.7643 31.4211 19.0765 31.4211 19.3962C31.4211 19.8087 31.4296 20.314 31.2573 20.6992C31.0722 21.1128 30.3304 21.0337 29.9468 21.1981" stroke="#2B2C33" stroke-width="0.58216" stroke-linecap="round"/>
<path d="M29.621 17.0723C29.8118 17.4141 29.8945 17.8302 29.8945 18.2181C29.8945 18.3598 30.0619 18.7573 30.0399 18.6174C30 18.3651 30.0012 18.1269 29.8359 17.9143C29.7501 17.804 29.6825 17.684 29.6015 17.5692C29.5794 17.5379 29.5512 17.5126 29.5277 17.4824C29.5077 17.4567 29.4721 17.3719 29.4691 17.4043C29.4635 17.4658 29.5247 17.5147 29.5537 17.5692C29.5746 17.6084 29.8232 18.0729 29.8359 18.0966C29.9238 18.2606 30.0511 18.4381 30.106 18.6196C30.1395 18.7298 30.1355 18.8689 30.0702 18.9668" stroke="white" stroke-width="0.58216" stroke-linecap="round"/>
</svg>
