<svg width="48" height="48" viewBox="0 0 48 48" fill="none" xmlns="http://www.w3.org/2000/svg">
<path d="M12.8994 12.5508L22.3994 10.0508C24.2327 10.7174 28.0994 12.1508 28.8994 12.5508C29.8994 13.0508 33.8994 13.5508 34.3994 14.0508C34.8994 14.5508 36.3994 16.0508 36.8994 17.0508C37.3994 18.0508 38.3994 19.5508 38.8994 20.0508C39.2994 20.4508 39.7327 22.8841 39.8994 24.0508C40.0661 25.2174 40.3994 27.6508 40.3994 28.0508V32.5508C40.3994 33.3508 37.7327 35.2174 36.3994 36.0508L29.3994 37.0508L18.3994 35.5508L9.89941 31.5508L7.39941 28.0508L8.39941 17.0508L12.8994 12.5508Z" fill="white"/>
<path d="M23.8735 10C19.7374 10.4898 14.7526 10.6098 11.3828 13.373C5.54109 18.1632 5.49743 28.0545 11.502 32.8122C16.8875 37.0794 24.4653 37.3568 31.0366 37.222C33.6843 37.1677 36.2657 37.1473 38.14 35.0648C42.1416 30.6186 40.9354 23.5094 37.9374 18.9509C36.742 17.1331 35.6167 14.6081 33.6944 13.3849C32.5493 12.6562 31.3134 12.5822 30.2142 11.9308C29.4924 11.5031 28.1876 11.0997 27.3537 10.9058C26.3364 10.6692 25.3206 10.4408 24.3026 10.2145" stroke="#2B2C33" stroke-width="2.85893" stroke-linecap="round"/>
<path d="M21.5142 18.5827C21.662 17.5108 21.486 16.6425 22.6107 16.3301C23.419 16.1055 24.3751 16.2051 25.2089 16.2228C27.0081 16.2611 29.5093 18.2292 29.4519 20.1798C29.391 22.2514 27.0014 23.3559 25.5426 24.2798C24.3321 25.0464 23.8855 26.4518 23.6595 27.8077" stroke="#2B2C33" stroke-width="2.85893" stroke-linecap="round"/>
<path d="M25.1607 31.668C24.4296 31.668 23.8735 31.9351 23.8735 32.7406" stroke="#2B2C33" stroke-width="2.85893" stroke-linecap="round"/>
</svg>
